<svg width="256" height="92" viewBox="0 0 256 92" fill="none" xmlns="http://www.w3.org/2000/svg">
    <path d="M133.254 26.052c-20.549 0-39.338 8.236-52.347 21.135C69.773 58.227 44.85 79.303 3.996 90.681c-1.316.367-2.648.723-3.996 1.068V64.721c33.355-9.962 53.63-27.176 62.564-36.034C80.425 10.977 105.796 0 133.254 0c27.459 0 52.83 10.977 70.691 28.688 7.927 7.859 24.606 22.595 52.055 32.766l-9.519 24.261c-31.525-11.783-51.165-28.896-60.879-38.528-13.009-12.899-31.798-21.135-52.348-21.135z" fill="url(#ilbubor6ua)"/>
    <defs>
        <linearGradient id="ilbubor6ua" x1="0" y1="45.874" x2="256" y2="45.874" gradientUnits="userSpaceOnUse">
            <stop stop-color="#23D527"/>
            <stop offset="1" stop-color="#275460"/>
        </linearGradient>
    </defs>
</svg>
