<svg xmlns="http://www.w3.org/2000/svg" width="100" height="100" viewBox="0 0 100 100">
    <path data-name="사각형 9734" style="fill:transparent" d="M0 0h100v100H0z"/>
    <g transform="translate(17 17)">
        <g data-name="패스 65" style="fill:#010809">
            <path d="M33 68c-4.724 0-9.308-.926-13.624-2.751a34.881 34.881 0 0 1-11.125-7.5 34.88 34.88 0 0 1-7.5-11.125A34.783 34.783 0 0 1-2 33c0-4.724.926-9.308 2.751-13.624a34.88 34.88 0 0 1 7.5-11.125 34.88 34.88 0 0 1 11.125-7.5A34.783 34.783 0 0 1 33-2c4.724 0 9.308.926 13.624 2.751a34.88 34.88 0 0 1 11.125 7.5 34.881 34.881 0 0 1 7.5 11.125A34.783 34.783 0 0 1 68 33c0 4.724-.926 9.308-2.751 13.624a34.88 34.88 0 0 1-7.5 11.125 34.88 34.88 0 0 1-11.125 7.5A34.783 34.783 0 0 1 33 68z" style="stroke:none"/>
            <path d="M33 0C14.775 0 0 14.775 0 33s14.775 33 33 33 33-14.775 33-33S51.225 0 33 0m0-4c4.993 0 9.84.979 14.403 2.91a36.872 36.872 0 0 1 11.76 7.927 36.872 36.872 0 0 1 7.928 11.76A36.772 36.772 0 0 1 70 33c0 4.993-.979 9.84-2.91 14.403a36.872 36.872 0 0 1-7.927 11.76 36.872 36.872 0 0 1-11.76 7.928A36.772 36.772 0 0 1 33 70c-4.993 0-9.84-.979-14.403-2.91a36.872 36.872 0 0 1-11.76-7.927 36.872 36.872 0 0 1-7.928-11.76A36.772 36.772 0 0 1-4 33c0-4.993.979-9.84 2.91-14.403a36.872 36.872 0 0 1 7.927-11.76 36.872 36.872 0 0 1 11.76-7.928A36.772 36.772 0 0 1 33-4z" style="fill:#5e5e5e;stroke:none"/>
        </g>
        <path data-name="패스 66" d="m0 0 36.879.953.544 20.228-36.879-.953z" transform="rotate(14.98 -36.125 77.31)" style="fill:#00ff6f"/>
        <path data-name="사각형 220" transform="translate(11.235 38.912)" style="fill:#00ff6f" d="M0 0h5v16H0z"/>
        <path data-name="패스 43" d="M-10285.576 4038.463s16.3-6.65 16.3-20.092" transform="translate(10299.312 -3991.076)" style="fill:none;stroke:#00ff6f;stroke-width:5px"/>
        <path data-name="사각형 221" transform="rotate(13 -92.662 251.641)" style="fill:#00ff6f" d="M0 0h4v11H0z"/>
        <circle data-name="타원 367" cx="4" cy="4" r="4" transform="translate(17.846 23.795)" style="fill:#010809"/>
    </g>
</svg>
