<svg xmlns="http://www.w3.org/2000/svg" width="112" height="64" viewBox="0 0 112 64">
    <defs>
        <clipPath id="c3uq51znga">
            <path data-name="사각형 1113" transform="translate(0 .178)" style="fill:#2aaec2" d="M0 0h112v64H0z"/>
        </clipPath>
    </defs>
    <g data-name="그룹 1729" transform="translate(0 -.178)" style="clip-path:url(#c3uq51znga)">
        <path data-name="패스 800" d="M22.369 29.825a14.93 14.93 0 0 1 14.912 14.913h29.825a14.913 14.913 0 0 1 29.825 0h7.456v-7.457h-3.728V22.369l-22.368-3.728L70.834 0H41.009v18.641H3.728v18.64H0v7.456h7.456a14.93 14.93 0 0 1 14.913-14.912m26.1-26.1h19.838l5.972 14.913H48.466z" transform="translate(2.694 3.3)" style="fill:#2aaec2"/>
        <path data-name="패스 801" d="M25.369 20.184a11.184 11.184 0 1 0-11.185 11.185 11.186 11.186 0 0 0 11.185-11.185m-18.641 0a7.456 7.456 0 1 1 7.456 7.456 7.464 7.464 0 0 1-7.456-7.456" transform="translate(10.879 27.853)" style="fill:#2aaec2"/>
        <path data-name="패스 802" d="M41.369 20.184a11.184 11.184 0 1 0-11.185 11.185 11.186 11.186 0 0 0 11.185-11.185m-18.641 0a7.456 7.456 0 1 1 7.456 7.456 7.464 7.464 0 0 1-7.456-7.456" transform="translate(54.529 27.853)" style="fill:#2aaec2"/>
    </g>
</svg>
