<svg xmlns="http://www.w3.org/2000/svg" width="29.25" height="27" viewBox="0 0 29.25 27">
    <g data-name="Icon ionic-ios-calendar">
        <path data-name="패스 42" d="M29.813 6.75H27v1.688a.564.564 0 0 1-.562.562h-1.125a.564.564 0 0 1-.562-.562V6.75H11.25v1.688a.564.564 0 0 1-.562.562H9.563A.564.564 0 0 1 9 8.438V6.75H6.188a2.821 2.821 0 0 0-2.813 2.813v19.125A2.821 2.821 0 0 0 6.188 31.5h23.625a2.821 2.821 0 0 0 2.813-2.812V9.563a2.821 2.821 0 0 0-2.813-2.813zm.563 21.094a1.41 1.41 0 0 1-1.406 1.406H7.031a1.41 1.41 0 0 1-1.406-1.406V15.188a.564.564 0 0 1 .563-.562h23.625a.564.564 0 0 1 .563.563z" style="fill:#fff" transform="translate(-3.375 -4.5)"/>
        <path data-name="패스 43" d="M11.25 5.063a.564.564 0 0 0-.562-.562H9.563A.564.564 0 0 0 9 5.063V6.75h2.25z" style="fill:#fff" transform="translate(-3.375 -4.5)"/>
        <path data-name="패스 44" d="M27 5.063a.564.564 0 0 0-.562-.562h-1.125a.564.564 0 0 0-.562.563V6.75H27z" style="fill:#fff" transform="translate(-3.375 -4.5)"/>
    </g>
</svg>
