<svg data-name="구성 요소 24 – 1" xmlns="http://www.w3.org/2000/svg" width="100" height="100" viewBox="0 0 100 100">
    <path data-name="사각형 9736" style="fill:transparent" d="M0 0h100v100H0z"/>
    <g data-name="그룹 10470">
        <g data-name="타원 14" transform="translate(17 17)" style="fill:#010809;stroke:#fddb00;stroke-width:3px">
            <circle cx="33" cy="33" r="33" style="stroke:none"/>
            <circle cx="33" cy="33" r="34.5" style="fill:none"/>
        </g>
        <g data-name="그룹 9802">
            <path data-name="사각형 125" transform="rotate(-90 31 7)" style="fill:#fddb00" d="M0 0h4v53H0z"/>
            <path data-name="사각형 126" transform="rotate(180 17.102 23.107)" style="fill:#fddb00" d="M0 0h2.633v9.215H0z"/>
            <path data-name="사각형 9714" transform="rotate(180 29.938 23.107)" style="fill:#fddb00" d="M0 0h2.633v9.215H0z"/>
            <path data-name="사각형 9712" transform="rotate(180 22.367 23.107)" style="fill:#fddb00" d="M0 0h2.633v9.215H0z"/>
            <path data-name="사각형 9715" transform="rotate(180 35.204 23.107)" style="fill:#fddb00" d="M0 0h2.633v9.215H0z"/>
            <path data-name="사각형 128" transform="rotate(-90 46 19)" style="fill:#fddb00" d="M0 0h22v22H0z"/>
            <path data-name="사각형 9713" transform="rotate(-90 58.5 6.5)" style="fill:#fddb00" d="M0 0h22v23H0z"/>
            <g data-name="그룹 9705">
                <path data-name="패스 42" d="m-10668.159 3997.516-6.419 6.419 6.419 6.42" transform="translate(10712.567 -3949.936)" style="stroke:#010809;stroke-width:4px;fill:none"/>
                <path data-name="패스 632" d="m-10674.578 3997.516 6.419 6.419-6.419 6.419" transform="translate(10706.148 -3949.936)" style="stroke:#010809;stroke-width:4px;fill:none"/>
            </g>
            <g data-name="그룹 9706">
                <path data-name="패스 42" d="M6.374 0 0 6.373l6.374 6.374" transform="rotate(-90 58.759 1.658)" style="stroke:#010809;stroke-width:4px;fill:none"/>
                <path data-name="패스 632" d="m0 0 8.329 8.331" transform="rotate(45 -23.864 99.653)" style="stroke:#010809;stroke-width:4px;fill:none"/>
            </g>
        </g>
    </g>
</svg>
