<svg xmlns="http://www.w3.org/2000/svg" width="96" height="56" viewBox="0 0 96 56">
    <defs>
        <clipPath id="0oz0cjttqa">
            <path data-name="사각형 1116" transform="translate(-1)" style="fill:#2aaec2" d="M0 0h96v56H0z"/>
        </clipPath>
    </defs>
    <g data-name="그룹 1736" transform="translate(1)" style="clip-path:url(#0oz0cjttqa)">
        <path data-name="패스 816" d="M53.54 166.232a8.994 8.994 0 1 1-8.918 7.793 9.011 9.011 0 0 1 8.918-7.793m0 15.585a6.586 6.586 0 1 0-6.586-6.586 6.593 6.593 0 0 0 6.586 6.586" transform="translate(20.856 -130.804)" style="fill:#2aaec2"/>
        <path data-name="패스 817" d="M73.717 191.321a4.087 4.087 0 1 1-4.087 4.087 4.092 4.092 0 0 1 4.087-4.087" transform="translate(.678 -150.982)" style="fill:#2aaec2"/>
        <path data-name="패스 818" d="M348.5 191.321a4.087 4.087 0 1 1-4.086 4.087 4.092 4.092 0 0 1 4.086-4.087" transform="translate(-327.899 -150.982)" style="fill:#2aaec2"/>
        <path data-name="패스 819" d="M328.326 166.232a8.995 8.995 0 1 1-8.917 7.793 9.012 9.012 0 0 1 8.917-7.793m0 15.585a6.586 6.586 0 1 0-6.585-6.586 6.593 6.593 0 0 0 6.585 6.586" transform="translate(-307.722 -130.804)" style="fill:#2aaec2"/>
        <path data-name="패스 820" d="M4.314 0h72.735a8.071 8.071 0 0 1 7.674 5.544l3.434 10.373a21.06 21.06 0 0 1 1.067 6.624v16.734a3.474 3.474 0 0 1-3.47 3.47H81.64a10.272 10.272 0 0 0 0-2.412c-.007-.054-.013-.107-.021-.16a10.2 10.2 0 0 0-20.225 0l-.021.16a10.271 10.271 0 0 0 0 2.412H27.85a10.271 10.271 0 0 0 0-2.412c-.007-.054-.013-.107-.021-.16a10.2 10.2 0 0 0-20.225 0l-.021.16a10.272 10.272 0 0 0 0 2.412H3.47A3.474 3.474 0 0 1 0 39.275V4.315A4.32 4.32 0 0 1 4.314 0m19.973 19.273h9.675V5.677h-9.675zm14.886 0h9.674V5.677h-9.674zm14.884 0h9.675V5.677h-9.675zm14.885-13.6v13.6h13.581a.146.146 0 0 0 .128-.063.1.1 0 0 0 .016-.1c0-.01-.006-.018-.008-.028l-3.42-10.893a3.817 3.817 0 0 0-3.616-2.512zm-49.866 0H6.3a.336.336 0 0 0-.336.335v13.265h13.113zm67.735 18.2H2.412v1.809h84.4z" transform="translate(2.888 2.888)" style="fill:#2aaec2"/>
    </g>
</svg>
