<svg xmlns="http://www.w3.org/2000/svg" width="118" height="70" viewBox="0 0 118 70">
    <defs>
        <clipPath id="cxz7d2wp3a">
            <path data-name="사각형 1103" transform="translate(1 .002)" style="fill:#2aaec2" d="M0 0h118v70H0z"/>
        </clipPath>
    </defs>
    <g data-name="그룹 1719" transform="translate(-1 -.002)" style="clip-path:url(#cxz7d2wp3a)">
        <path data-name="패스 781" d="M4.041 48.491h4.041a16.164 16.164 0 1 1 32.327 0h24.246a16.164 16.164 0 1 1 32.327 0H109.1V36.368h-4.041v-8.082l-20.2-8.086L68.7 0H16.164L8.082 20.2H4.041v8.082H0V44.45h4.041zm62.715-44.45L79.683 20.2H40.409V4.041zm-47.852 0h17.464V20.2H12.434z" transform="translate(5.353 4.925)" style="fill:#2aaec2"/>
        <path data-name="패스 782" d="M15.123 9a12.123 12.123 0 1 0 12.122 12.123A12.127 12.127 0 0 0 15.123 9m0 20.2a8.082 8.082 0 1 1 8.077-8.077 8.085 8.085 0 0 1-8.077 8.077" transform="translate(14.475 32.293)" style="fill:#2aaec2"/>
        <path data-name="패스 783" d="M29.123 9a12.123 12.123 0 1 0 12.122 12.123A12.127 12.127 0 0 0 29.123 9m0 20.2a8.082 8.082 0 1 1 8.077-8.077 8.085 8.085 0 0 1-8.077 8.077" transform="translate(57.048 32.293)" style="fill:#2aaec2"/>
    </g>
</svg>
