<svg xmlns="http://www.w3.org/2000/svg" width="82" height="70" viewBox="0 0 82 70">
    <defs>
        <clipPath id="09a5xas3za">
            <path data-name="사각형 1105" transform="translate(0 .094)" style="fill:#2aaec2" d="M0 0h82v70H0z"/>
        </clipPath>
    </defs>
    <g data-name="그룹 1723" transform="translate(0 -.094)" style="clip-path:url(#09a5xas3za)">
        <path data-name="패스 788" d="M0 35.121v20.488h5.854a11.707 11.707 0 1 1 23.414 0h20.487a11.707 11.707 0 1 1 23.414 0H76.1V26.341L70.243 8.78H46.828V0H0zm68.132-23.414 5.037 15.108v8.306H46.828V11.707z" transform="translate(3.119 3.037)" style="fill:#2aaec2"/>
        <path data-name="패스 789" d="M11.78 16a8.78 8.78 0 1 0 8.78 8.78A8.784 8.784 0 0 0 11.78 16m0 14.634a5.854 5.854 0 1 1 5.854-5.854 5.861 5.861 0 0 1-5.854 5.854" transform="translate(8.9 33.865)" style="fill:#2aaec2"/>
        <path data-name="패스 790" d="M26.78 16a8.78 8.78 0 1 0 8.78 8.78A8.784 8.784 0 0 0 26.78 16m0 14.634a5.854 5.854 0 1 1 5.854-5.854 5.861 5.861 0 0 1-5.854 5.854" transform="translate(37.801 33.865)" style="fill:#2aaec2"/>
    </g>
</svg>
