<svg xmlns="http://www.w3.org/2000/svg" width="111" height="70" viewBox="0 0 111 70">
    <defs>
        <clipPath id="jwble0m8la">
            <path data-name="사각형 1117" transform="translate(0 -1)" style="fill:#2aaec2" d="M0 0h111v70H0z"/>
        </clipPath>
    </defs>
    <g data-name="그룹 1738" transform="translate(0 1)" style="clip-path:url(#jwble0m8la)">
        <path data-name="패스 821" d="M42.54 196.626c0-.069.006-.14.01-.21 0-.037 0-.075.007-.112l.021-.272v-.024l.022-.214.008-.075.022-.165c.01-.078.022-.154.035-.231s.025-.153.039-.228.028-.151.044-.226.032-.15.05-.225l.054-.222c.019-.074.039-.149.06-.221a7.538 7.538 0 0 1 .198-.623 8.66 8.66 0 0 1 .268-.677c.031-.069.061-.139.093-.207s.064-.136.1-.2c.061-.126.126-.251.194-.375l.024-.041.1-.179a10.115 10.115 0 0 1 7.8-5.017l.08-.007c.056 0 .111-.01.168-.013a9.57 9.57 0 0 1 1.4 0c.057 0 .112.008.168.013l.08.007c.2.018.392.043.586.073A10.1 10.1 0 0 1 61 191.276c.054.079.107.158.158.239q.121.187.233.383c.035.058.068.119.1.179s.078.143.115.214c.024.044.046.09.068.135a7.552 7.552 0 0 1 .212.449l.037.086c.025.057.049.115.072.172a9.929 9.929 0 0 1 .53 1.729 7.912 7.912 0 0 1 .12.69.057.057 0 0 1 0 .015c0 .022.007.044.01.066a9.855 9.855 0 0 1 .047.433c.007.082.013.146.017.221 0 .038 0 .075.007.114 0 .089.008.178.01.268s0 .18 0 .271v.271c0 .089-.006.173-.01.258 0 .044 0 .089-.007.133l-.017.211-.008.086a5.542 5.542 0 0 1-.025.233.172.172 0 0 1 0 .026 9.764 9.764 0 0 1-.022.169 10.107 10.107 0 0 1-20.022 0l-.006-.037a2.617 2.617 0 0 1-.015-.131q-.019-.152-.033-.3-.027-.3-.037-.6V196.665zm10.1 7.647a7.331 7.331 0 1 0-7.331-7.331 7.338 7.338 0 0 0 7.331 7.331" transform="translate(35.433 -140.924)" style="fill:#2aaec2"/>
        <path data-name="패스 822" d="M71.138 210.836a4.6 4.6 0 1 1-4.6 4.6 4.608 4.608 0 0 1 4.6-4.6m0 7.123a2.52 2.52 0 1 0-2.519-2.52 2.523 2.523 0 0 0 2.519 2.52" transform="translate(16.938 -159.419)" style="fill:#2aaec2"/>
        <path data-name="패스 823" d="M274.446 210.836a4.6 4.6 0 1 1-4.6 4.6 4.608 4.608 0 0 1 4.6-4.6m0 7.123a2.52 2.52 0 1 0-2.519-2.52 2.523 2.523 0 0 0 2.519 2.52" transform="translate(-232.998 -159.419)" style="fill:#2aaec2"/>
        <path data-name="패스 824" d="M246.21 194.249c.029-.1.06-.208.092-.311l.054-.169.064-.187c.008-.022.015-.043.024-.064l.06-.162a.189.189 0 0 1 .01-.024l.078-.2a9.54 9.54 0 0 1 .378-.818v-.01l.1-.187.11-.2c.038-.07.072-.126.11-.189s.079-.129.121-.193.081-.126.122-.187l.114-.168c.025-.036.051-.074.078-.11.036-.051.074-.1.111-.153l.137-.18c.039-.05.078-.1.118-.148.086-.1.173-.208.262-.31.133-.154.273-.3.416-.445.047-.049.095-.1.143-.143.092-.087.183-.175.277-.259s.187-.166.283-.246a10.034 10.034 0 0 1 4.422-2.141c.126-.026.254-.05.382-.072l.206-.032.205-.028.207-.024.139-.014.179-.015h.036l.208-.011a.061.061 0 0 1 .017 0l.151-.006c.107 0 .214-.006.321-.006.236 0 .469.008.7.025.057 0 .112.008.168.013l.081.007c.2.018.391.043.586.073a10.1 10.1 0 0 1 6.827 4.322c.054.079.107.158.158.239q.12.187.233.383c.035.058.068.119.1.179s.078.143.115.214c.024.044.046.09.068.135a7.552 7.552 0 0 1 .212.449l.037.086c.025.057.049.115.072.172a9.913 9.913 0 0 1 .53 1.729c.032.151.061.3.085.458l.035.232a.059.059 0 0 1 0 .015c0 .022.007.044.01.066.009.062.015.125.022.189.01.081.018.162.025.244s.013.146.017.221c0 .038 0 .075.007.114 0 .089.008.178.01.268s0 .18 0 .271v.271c0 .091-.005.176-.01.262 0 .042 0 .084-.007.125l-.017.215c0 .029-.005.058-.008.086q-.011.119-.025.233a.184.184 0 0 1 0 .026 9.764 9.764 0 0 1-.022.169 10.107 10.107 0 0 1-20.022 0 10.132 10.132 0 0 1 .269-4.082m9.742 10.025a7.331 7.331 0 1 0-7.331-7.331 7.338 7.338 0 0 0 7.331 7.331" transform="translate(-214.504 -140.924)" style="fill:#2aaec2"/>
        <path data-name="패스 825" d="M371.059 210.836a4.6 4.6 0 1 1-4.6 4.6 4.608 4.608 0 0 1 4.6-4.6m0 7.123a2.52 2.52 0 1 0-2.519-2.52 2.523 2.523 0 0 0 2.519 2.52" transform="translate(-351.769 -159.419)" style="fill:#2aaec2"/>
        <path data-name="패스 826" d="M342.471 196.414c0-.045 0-.089.007-.133l.017-.211c0-.029.006-.058.008-.086q.01-.119.025-.233a.152.152 0 0 1 0-.026l.022-.173a10.453 10.453 0 0 1 .22-1.127c.018-.074.039-.147.06-.221l.064-.218.069-.217c.05-.151.1-.3.159-.447s.107-.268.164-.4a10.242 10.242 0 0 1 .636-1.223c.078-.125.155-.25.239-.372a10.116 10.116 0 0 1 6.879-4.378q.283-.044.57-.071l.08-.007c.056 0 .111-.01.168-.013a9.57 9.57 0 0 1 1.018-.019l.157.006.218.013h.036c.058 0 .116.01.174.015l.144.014a8.027 8.027 0 0 1 .613.083c.064.011.147.025.219.039a10.075 10.075 0 0 1 5.266 2.8c.1.1.2.205.3.311.048.054.1.107.144.161s.089.1.132.153.088.1.131.157.079.1.116.148l.139.18c.046.059.073.1.111.153l.008.012c.032.045.064.089.095.135.094.137.186.276.274.418l.076.125a9.918 9.918 0 0 1 .483.911c.031.062.058.126.086.19l.06.137c.035.082.069.164.1.247.025.064.05.129.075.2l.071.2.067.2.062.2.058.2.049.175v.006a10.176 10.176 0 0 1 .221 1.126 10.124 10.124 0 0 1 0 2.776 10.107 10.107 0 0 1-20.022 0 9.651 9.651 0 0 1-.022-.168c0-.017 0-.032-.006-.049l-.022-.21-.008-.089-.017-.215c0-.041 0-.083-.007-.125 0-.087-.008-.175-.009-.262v-.542c0-.089.005-.174.009-.258m10.093 7.86a7.331 7.331 0 1 0-7.331-7.331 7.338 7.338 0 0 0 7.331 7.331" transform="translate(-333.275 -140.924)" style="fill:#2aaec2"/>
        <path data-name="패스 827" d="M4.866 28.085h86.347a9.068 9.068 0 0 1 8.623 6.229l3.843 11.607a23.586 23.586 0 0 1 1.2 7.423v18.724a3.925 3.925 0 0 1-3.921 3.921h-4.53a11.609 11.609 0 0 0 0-2.776l-.026-.193a11.495 11.495 0 0 0-22.771 0l-.025.189a11.72 11.72 0 0 0-.083 1.388 11.469 11.469 0 0 0 .085 1.388H49.8a11.611 11.611 0 0 0 0-2.776l-.026-.193a11.5 11.5 0 0 0-22.465-1.484 11.495 11.495 0 0 0-22.468 1.492l-.025.189a11.579 11.579 0 0 0 0 2.776h-.9A3.925 3.925 0 0 1 0 72.068V32.951a4.872 4.872 0 0 1 4.866-4.866M7.084 34.5a.347.347 0 0 0-.347.347v14.812H26.32V34.5zm25.124 15.159h10.767V34.5H32.208zm16.655 0h10.768V34.5H48.863zm16.655 0h10.768V34.5H65.518zm31.955-.144c0-.01-.007-.021-.01-.031L93.638 37.3a4.241 4.241 0 0 0-4.02-2.791h-7.444v15.15h15.165a.146.146 0 0 0 .121-.057.086.086 0 0 0 .012-.087M2.776 60.858H102.1V56.89H2.776z" transform="translate(3.062 -18.582)" style="fill:#2aaec2"/>
        <path data-name="패스 828" d="M268.332 3.529A3.533 3.533 0 0 1 271.861 0h28.175a3.534 3.534 0 0 1 3.529 3.529v1.524h-35.233z" transform="translate(-257.169 3.062)" style="fill:#2aaec2"/>
        <path data-name="패스 829" d="M68.135 3.529A3.534 3.534 0 0 1 71.664 0H99.84a3.534 3.534 0 0 1 3.529 3.529v1.524H68.135z" transform="translate(-11.058 3.062)" style="fill:#2aaec2"/>
    </g>
</svg>
