<svg xmlns="http://www.w3.org/2000/svg" width="72" height="72" viewBox="0 0 72 72">
    <g data-name="타원 13" style="fill:#010809;stroke:#6ad6ff;stroke-width:3px" transform="translate(3 3)">
        <circle cx="33" cy="33" r="33" style="stroke:none"/>
        <circle cx="33" cy="33" r="34.5" style="fill:none"/>
    </g>
    <path data-name="제외 12" d="M-16499.029-20297.416h-19.646a5.632 5.632 0 0 1-3.758-1.395 4.444 4.444 0 0 1-1.566-3.34v-14.115a5.057 5.057 0 0 1 5.313-4.738h19.646a5.606 5.606 0 0 1 3.754 1.4 4.462 4.462 0 0 1 1.561 3.342v14.105a4.422 4.422 0 0 1-1.295 3.105 5.6 5.6 0 0 1-4.009 1.636zm-14.043-17.611v12.7l10.93-6.35-10.93-6.346zm28.811 15.273h-1.3a.886.886 0 0 1-.58-.25l-5.408-5.031a.92.92 0 0 1-.248-.662v-7a.937.937 0 0 1 .248-.662l5.408-5.031a.86.86 0 0 1 .58-.248h1.3c.295 0 .539.352.539.781v17.322c-.001.43-.245.781-.54.781z" transform="translate(16540 20345.004)" style="fill:#6ad6ff"/>
</svg>
