<svg xmlns="http://www.w3.org/2000/svg" width="94" height="94" viewBox="0 0 94 94">
    <g data-name="타원 13" transform="translate(5 7)" style="stroke-width:4px;fill:#010809;stroke:#ff2bea">
        <circle cx="40" cy="40" r="40" style="stroke:none"/>
        <circle cx="40" cy="40" r="42" style="fill:none"/>
    </g>
    <path data-name="사각형 125" transform="translate(63 24)" style="fill:#ff2bea" d="M0 0h6v51H0z"/>
    <path data-name="사각형 126" transform="rotate(-90 40.25 -8.25)" style="fill:#ff2bea" d="M0 0h2v18H0z"/>
    <path data-name="사각형 128" transform="rotate(-90 37.5 17.5)" style="fill:#ff2bea" d="M0 0h28v39H0z"/>
    <path data-name="사각형 127" transform="rotate(-90 50.25 1.75)" style="fill:#ff2bea" d="M0 0h2v18H0z"/>
    <path data-name="패스 41" d="M-10664.268 4013.148v-10.166s.527-3.981-2.432-3.876-9.734 0-9.734 0" transform="translate(10709 -3961.793)" style="stroke:#010809;fill:none;stroke-width:4px"/>
    <path data-name="패스 42" d="m-10669.5 3997.516-5.078 5.078 5.078 5.078" transform="translate(10706.605 -3965.283)" style="stroke-width:3px;stroke:#010809;fill:none"/>
</svg>
