<svg xmlns="http://www.w3.org/2000/svg" width="94" height="94" viewBox="0 0 94 94">
    <g data-name="타원 454" transform="translate(7 7)" style="fill:#010809;stroke:#6ad6ff;stroke-width:4px">
        <circle cx="40" cy="40" r="40" style="stroke:none"/>
        <circle cx="40" cy="40" r="42" style="fill:none"/>
    </g>
    <path data-name="제외 14" d="M30.9 29.184H6.588a6.959 6.959 0 0 1-4.649-1.725A5.5 5.5 0 0 1 0 23.327V5.861C0 2.631 2.95 0 6.573 0h24.31a6.932 6.932 0 0 1 4.645 1.727 5.522 5.522 0 0 1 1.931 4.134v17.453a5.469 5.469 0 0 1-1.6 3.843 6.923 6.923 0 0 1-4.959 2.027zM13.521 7.394V23.1l13.525-7.856-13.525-7.85zm35.649 18.9h-1.61a1.1 1.1 0 0 1-.717-.308l-6.693-6.227a1.133 1.133 0 0 1-.306-.819v-8.668a1.158 1.158 0 0 1 .306-.819l6.693-6.225a1.066 1.066 0 0 1 .717-.308h1.61c.366 0 .668.436.668.968V25.32c0 .538-.302.972-.668.972z" transform="translate(22 32)" style="fill:#6ad6ff"/>
</svg>
