<svg xmlns="http://www.w3.org/2000/svg" width="98" height="64" viewBox="0 0 98 64">
    <defs>
        <clipPath id="2n9umk1cxa">
            <path data-name="사각형 1114" transform="translate(.999 -1)" style="fill:#2aaec2" d="M0 0h98v64H0z"/>
        </clipPath>
    </defs>
    <g data-name="그룹 1731" transform="translate(-.999 1.001)" style="clip-path:url(#2n9umk1cxa)">
        <path data-name="패스 803" d="M23.29 33.272A13.324 13.324 0 0 1 36.6 46.581h19.962a13.309 13.309 0 1 1 26.617 0h9.982V9.982L83.179 0H0v36.6l9.982 9.982a13.324 13.324 0 0 1 13.308-13.31M69.871 3.327H81.8l8.032 8.032V23.29H69.871zm-16.636 0h13.309v13.309H53.235zm-16.636 0h13.309v13.309H36.6zm-16.636 0h13.309v13.309H19.963zm-16.636 0h13.309v13.309H3.327z" transform="translate(2.998 3.074)" style="fill:#2aaec2"/>
        <path data-name="패스 804" d="M13.982 11a9.982 9.982 0 1 0 9.982 9.982A9.983 9.983 0 0 0 13.982 11m0 16.636a6.654 6.654 0 1 1 6.654-6.654 6.661 6.661 0 0 1-6.654 6.654" transform="translate(12.306 28.673)" style="fill:#2aaec2"/>
        <path data-name="패스 805" d="M37.963 20.982a9.982 9.982 0 1 0-9.982 9.982 9.983 9.983 0 0 0 9.982-9.982m-16.636 0a6.654 6.654 0 1 1 6.654 6.654 6.659 6.659 0 0 1-6.654-6.654" transform="translate(44.887 28.673)" style="fill:#2aaec2"/>
    </g>
</svg>
