<svg xmlns="http://www.w3.org/2000/svg" width="90" height="64" viewBox="0 0 90 64">
    <defs>
        <clipPath id="9c6pp17v6a">
            <path data-name="사각형 1102" style="fill:#2aaec2" d="M0 0h90v64H0z"/>
        </clipPath>
    </defs>
    <g data-name="그룹 1717" style="clip-path:url(#9c6pp17v6a)">
        <path data-name="패스 779" d="M14.837 29.673a14.837 14.837 0 1 0 14.671 16.485H47.1l15.454-26.267 2.918 10.837a14.768 14.768 0 1 0 5.414-1.055 14.181 14.181 0 0 0-2.225.227L60.609 0H42.861v3.3h15.226l1.866 6.94-21.517 12.292-6.231-9.344H3.3v9.891h20.471l11.306 19.782h-5.569a14.785 14.785 0 0 0-14.671-13.188m11.374 16.485a11.54 11.54 0 1 1 0-3.3H13.188v3.3zm43.089-1.22 3.182-.857-2.961-10.972a11.742 11.742 0 0 1 1.365-.138 11.565 11.565 0 1 1-4.556.946z" transform="translate(2.549 1.837)" style="fill:#2aaec2"/>
        <path data-name="패스 780" d="M27.094 14.188V1a6.594 6.594 0 0 0 0 13.188" transform="translate(49.638 4.134)" style="fill:#2aaec2"/>
    </g>
</svg>
