<svg xmlns="http://www.w3.org/2000/svg" width="94" height="94" viewBox="0 0 94 94">
    <g data-name="패스 65" style="fill:#010809">
        <path d="M40 82c-5.67 0-11.17-1.11-16.349-3.301a41.857 41.857 0 0 1-13.35-9 41.857 41.857 0 0 1-9-13.35A41.739 41.739 0 0 1-2 40c0-5.67 1.11-11.17 3.301-16.349a41.857 41.857 0 0 1 9-13.35 41.857 41.857 0 0 1 13.35-9A41.739 41.739 0 0 1 40-2c5.67 0 11.17 1.11 16.349 3.301a41.857 41.857 0 0 1 13.35 9 41.857 41.857 0 0 1 9 13.35A41.739 41.739 0 0 1 82 40c0 5.67-1.11 11.17-3.301 16.349a41.857 41.857 0 0 1-9 13.35 41.857 41.857 0 0 1-13.35 9A41.739 41.739 0 0 1 40 82z" style="stroke:none" transform="translate(7 7)"/>
        <path d="M40 0C17.909 0 0 17.909 0 40s17.909 40 40 40 40-17.909 40-40S62.091 0 40 0m0-4c5.938 0 11.7 1.164 17.128 3.46a43.848 43.848 0 0 1 13.985 9.427 43.848 43.848 0 0 1 9.428 13.985A43.728 43.728 0 0 1 84 40c0 5.938-1.164 11.7-3.46 17.128a43.848 43.848 0 0 1-9.427 13.985 43.848 43.848 0 0 1-13.985 9.428A43.728 43.728 0 0 1 40 84c-5.938 0-11.7-1.164-17.128-3.46a43.848 43.848 0 0 1-13.985-9.427A43.848 43.848 0 0 1-.54 57.128 43.728 43.728 0 0 1-4 40c0-5.938 1.164-11.7 3.46-17.128A43.848 43.848 0 0 1 8.886 8.887 43.848 43.848 0 0 1 22.872-.54 43.728 43.728 0 0 1 40-4z" style="fill:#00ff6f;stroke:none" transform="translate(7 7)"/>
    </g>
    <path data-name="패스 66" d="m0 0 45.008 1.2.665 25.387-45.008-1.2z" transform="rotate(14.98 -62.746 123.496)" style="fill:#00ff6f"/>
    <path data-name="사각형 220" transform="translate(21.126 51.078)" style="fill:#00ff6f" d="M0 0h5v16H0z"/>
    <path data-name="패스 43" d="M-10287.5 4036s18.229-4.187 18.229-17.629" transform="translate(10309.772 -3976.176)" style="fill:none;stroke:#00ff6f;stroke-width:5px"/>
    <path data-name="사각형 221" transform="rotate(13 -143.298 341.98)" style="fill:#00ff6f" d="M0 0h4v11H0z"/>
    <circle data-name="타원 367" cx="4" cy="4" r="4" transform="translate(29 37)" style="fill:#010809"/>
</svg>
