<svg xmlns="http://www.w3.org/2000/svg" width="74" height="74" viewBox="0 0 74 74">
    <g data-name="타원 13" transform="translate(4 4)" style="stroke-width:4px;fill:#010809;stroke:#ff2bea">
        <circle cx="33" cy="33" r="33" style="stroke:none"/>
        <circle cx="33" cy="33" r="35" style="fill:none"/>
    </g>
    <path data-name="사각형 125" transform="translate(49.279 19.349)" style="fill:#ff2bea" d="M0 0h4.605v42.977H0z"/>
    <path data-name="사각형 126" transform="rotate(-90 31.82 -6.332)" style="fill:#ff2bea" d="M0 0h1.535v13.814H0z"/>
    <path data-name="사각형 128" transform="rotate(-90 29.71 13.43)" style="fill:#ff2bea" d="M0 0h21.488v29.93H0z"/>
    <path data-name="사각형 127" transform="rotate(-90 39.494 1.343)" style="fill:#ff2bea" d="M0 0h1.535v13.814H0z"/>
    <path data-name="패스 41" d="M-10667.1 4009.882v-7.8s.405-3.055-1.865-2.975-7.471 0-7.471 0" transform="translate(10702.357 -3969.54)" style="stroke:#010809;fill:none;stroke-width:4px"/>
    <path data-name="패스 42" d="m-10670.682 3997.516-3.9 3.9 3.9 3.9" transform="translate(10700.087 -3971.849)" style="stroke-width:3px;stroke:#010809;fill:none"/>
</svg>
