<svg xmlns="http://www.w3.org/2000/svg" width="146" height="72" viewBox="0 0 146 72">
    <defs>
        <clipPath id="fnrpennyla">
            <path data-name="사각형 1108" transform="translate(-.786 -.367)" style="fill:#2aaec2" d="M0 0h146v72H0z"/>
        </clipPath>
    </defs>
    <g data-name="그룹 1725" transform="translate(.786 .367)" style="clip-path:url(#fnrpennyla)">
        <path data-name="패스 791" d="m87.7 31.716-21.945-6.27-3.134-9.406h-3.135L46.945 3.5H25v34.486h21.945v15.675h6.43a13.614 13.614 0 0 1-.16-1.568 14.108 14.108 0 1 1 28.216 0 13.612 13.612 0 0 1-.16 1.568h9.565v-9.405H87.7zm-53.3-18.81h-3.13V9.77h3.135zm9.405 0H37.54V9.77h6.27zm3.135 12.54v-6.27h13.42l2.088 6.27z" transform="translate(53.377 7.473)" style="fill:#2aaec2"/>
        <path data-name="패스 792" d="M45.973 15.5a10.973 10.973 0 1 0 10.972 10.973A10.971 10.971 0 0 0 45.973 15.5m0 18.81a7.838 7.838 0 1 1 7.838-7.838 7.845 7.845 0 0 1-7.838 7.838" transform="translate(74.727 33.094)" style="fill:#2aaec2"/>
        <path data-name="패스 793" d="M68.972 2.5H0v37.621h68.972zm-53.3 9.405H12.54V8.77h3.135zm47.026 0H18.81V8.77H62.7z" transform="translate(0 5.338)" style="fill:#2aaec2"/>
        <path data-name="패스 794" d="M29.338 45.459V7.838C29.338 5.129 27.7 0 21.5 0v3.135a4.472 4.472 0 0 1 4.7 4.7v37.624z" transform="translate(45.904)" style="fill:#2aaec2"/>
        <path data-name="패스 795" d="M20.378 37.445a10.94 10.94 0 0 0 10.813-9.405h3.455a10.918 10.918 0 0 0 21.626 0h3.295v-3.135h-3.296a10.918 10.918 0 0 0-21.626 0h-3.454a10.918 10.918 0 0 0-21.626 0H0v3.135h9.565a10.94 10.94 0 0 0 10.813 9.405m25.081-18.81a7.838 7.838 0 1 1-7.838 7.838 7.845 7.845 0 0 1 7.838-7.838m-25.081 0a7.838 7.838 0 1 1-7.838 7.838 7.845 7.845 0 0 1 7.838-7.838" transform="translate(0 33.094)" style="fill:#2aaec2"/>
        <path data-name="사각형 1106" transform="translate(90.917 48.594)" style="fill:#2aaec2" d="M0 0h6.27v15.675H0z"/>
        <path data-name="사각형 1107" transform="translate(62.701 48.594)" style="fill:#2aaec2" d="M0 0h25.081v15.675H0z"/>
        <path data-name="패스 796" d="M9.7 26.905A4.7 4.7 0 1 0 5 22.2a4.7 4.7 0 0 0 4.7 4.7" transform="translate(10.675 37.364)" style="fill:#2aaec2"/>
        <path data-name="패스 797" d="M17.7 26.905A4.7 4.7 0 1 0 13 22.2a4.7 4.7 0 0 0 4.7 4.7" transform="translate(27.756 37.364)" style="fill:#2aaec2"/>
        <path data-name="패스 798" d="M41.7 17.5a4.7 4.7 0 1 0 4.7 4.7 4.7 4.7 0 0 0-4.7-4.7" transform="translate(78.998 37.364)" style="fill:#2aaec2"/>
    </g>
</svg>
