<svg xmlns="http://www.w3.org/2000/svg" width="94" height="94" viewBox="0 0 94 94">
    <g data-name="타원 455" transform="translate(7 7)" style="stroke:#fddb00;stroke-width:4px;fill:#010809">
        <circle cx="40" cy="40" r="40" style="stroke:none"/>
        <circle cx="40" cy="40" r="42" style="fill:none"/>
    </g>
    <g data-name="그룹 10625">
        <path data-name="사각형 125" transform="rotate(-90 24 10)" style="fill:#fddb00" d="M0 0h4v67H0z"/>
        <path data-name="사각형 126" transform="rotate(180 12.102 21.474)" style="fill:#fddb00" d="M0 0h2.633v9.215H0z"/>
        <path data-name="사각형 9714" transform="rotate(180 29.558 21.474)" style="fill:#fddb00" d="M0 0h2.633v9.215H0z"/>
        <path data-name="사각형 9712" transform="rotate(180 19.884 21.474)" style="fill:#fddb00" d="M0 0h2.633v9.215H0z"/>
        <path data-name="사각형 9715" transform="rotate(180 37.204 21.474)" style="fill:#fddb00" d="M0 0h2.633v9.215H0z"/>
        <path data-name="사각형 128" transform="rotate(-90 41 24)" style="fill:#fddb00" d="M0 0h26v26H0z"/>
        <path data-name="사각형 9713" transform="rotate(-90 58.5 6.5)" style="fill:#fddb00" d="M0 0h26v27H0z"/>
        <g data-name="그룹 9705">
            <path data-name="합치기 43" d="m9.719 13.224-6.211 6.21L0 15.924l6.209-6.208L0 3.507 3.508 0l6.211 6.209L15.928 0l3.507 3.507-6.209 6.209 6.208 6.208-3.507 3.51z" transform="translate(20.001 42)" style="fill:#010809"/>
        </g>
        <g data-name="그룹 9706">
            <path data-name="합치기 42" d="m0 11.191 3.37-3.367 3.53 3.525V0h4.76v11.347l3.525-3.523 3.37 3.367-9.28 9.279z" transform="translate(56 42.556)" style="fill:#010809"/>
        </g>
    </g>
</svg>
