<svg xmlns="http://www.w3.org/2000/svg" width="126" height="92" viewBox="0 0 126 92">
    <g data-name="그룹 1337" transform="translate(67.212 24.995)">
        <g data-name="그룹 1335" transform="translate(22.928 22.198)">
            <rect data-name="사각형 827" width="10.362" height="1.967" rx=".59" style="fill:#92839a"/>
        </g>
        <g data-name="그룹 1336">
            <path data-name="패스 482" d="M135.364 845.581v16a22.895 22.895 0 0 0 0-16z" transform="translate(-134.73 -839.74)" style="opacity:.7;fill:#3b4c71"/>
            <path data-name="패스 483" d="M62.393 836.48v5.841a22.895 22.895 0 0 1 0 16v24.557h37.621v-46.4zM93.512 878a.574.574 0 0 1-.487.631h-7.071a.574.574 0 0 1-.487-.631v-36.684a.573.573 0 0 1 .487-.631h7.071a.573.573 0 0 1 .487.631z" transform="translate(-61.759 -836.48)" style="fill:#85728c"/>
        </g>
        <path data-name="패스 484" d="M135.865 845.235a18.785 18.785 0 0 1-.654-2.756h-.243a.459.459 0 0 0-.39.505 8.8 8.8 0 0 0 .567 2.636 21.505 21.505 0 0 1 0 13.7 8.794 8.794 0 0 0-.567 2.636.459.459 0 0 0 .39.505h.243a18.779 18.779 0 0 1 .654-2.756 22.787 22.787 0 0 0 0-14.466z" transform="translate(-134.577 -838.629)" style="fill:#463f6a"/>
        <path data-name="패스 485" d="M71.253 838.176h1.037a.574.574 0 0 1 .487.631v44.675h-1.524z" transform="translate(-38.914 -837.088)" style="fill:#414d83"/>
        <path data-name="패스 486" d="M73.7 838.176h10.513a.574.574 0 0 1 .487.631v44.675H73.212v-44.675a.574.574 0 0 1 .488-.631zm1.817 40.43a.574.574 0 0 0 .487.631h7.071a.574.574 0 0 0 .487-.631v-36.682a.573.573 0 0 0-.487-.631H76a.573.573 0 0 0-.487.631z" transform="translate(-51.809 -837.088)" style="fill:#4e5d90"/>
        <path data-name="패스 487" d="M74.814 839.75h9.407a.574.574 0 0 1 .488.631v43.665H74.327v-43.665a.574.574 0 0 1 .487-.631zm1.264 39.42a.574.574 0 0 0 .487.631h7.071a.574.574 0 0 0 .487-.631v-36.682a.573.573 0 0 0-.487-.631h-7.07a.573.573 0 0 0-.487.631z" transform="translate(-52.37 -837.652)" style="fill:#a897a8"/>
        <rect data-name="사각형 828" width="8.046" height="37.945" rx=".984" transform="translate(23.708 4.205)" style="opacity:.7;fill:#3b4c71"/>
        <path data-name="패스 488" d="M90.575 843.033h.325a.574.574 0 0 0-.488.631v36.682a.574.574 0 0 0 .488.631h-.329a.574.574 0 0 1-.487-.631v-36.682a.573.573 0 0 1 .491-.631z" transform="translate(-66.38 -838.828)" style="fill:#92839a"/>
        <path data-name="패스 489" d="M94.583 839.75h.093v44.3H94.1v-43.669a.574.574 0 0 1 .483-.631z" transform="translate(-72.139 -837.652)" style="fill:#414d83"/>
    </g>
    <path data-name="패스 490" d="M135.477 845.235a18.414 18.414 0 0 1-.79-2.756h-.2a.473.473 0 0 0-.431.505 8.081 8.081 0 0 0 .626 2.636 19.56 19.56 0 0 1 0 13.7 8.073 8.073 0 0 0-.626 2.636.472.472 0 0 0 .431.505h.2a18.409 18.409 0 0 1 .79-2.756 20.736 20.736 0 0 0 0-14.466z" transform="translate(-66.841 -813.634)" style="fill:#eeecf0"/>
    <g data-name="그룹 1341" transform="translate(54.281 22.581)">
        <rect data-name="사각형 829" width="57.33" height="2.414" rx=".984" transform="translate(0 48.809)" style="fill:#9e8299"/>
        <rect data-name="사각형 830" width="49.918" height="2.414" rx=".984" transform="translate(7.413)" style="fill:#6f87b7"/>
        <path data-name="패스 491" d="M86.344 859.3a7.474 7.474 0 0 0 6.034-2.637 11.169 11.169 0 0 0 0-12.684 7.474 7.474 0 0 0-6.034-2.637H62.393v-4.86h37.621v46.4H62.393V859.3z" transform="translate(-48.828 -834.066)" style="fill:#fcbd45"/>
        <path data-name="사각형 831" transform="translate(13.565 42.907)" style="fill:#c6bbc6" d="M0 0h37.621v5.902H0z"/>
        <g data-name="그룹 1338">
            <path data-name="사각형 832" style="fill:#eeecf0" d="M0 0h37.621v2.872H0z" transform="translate(13.565 34.291)"/>
            <path data-name="사각형 833" transform="translate(13.565 40.035)" style="fill:#eeecf0" d="M0 0h37.621v2.872H0z"/>
        </g>
        <g data-name="그룹 1340" style="opacity:.7">
            <path data-name="패스 492" d="M97.761 844.053a7.474 7.474 0 0 1 6.034 2.637 11.169 11.169 0 0 1 0 12.684 7.474 7.474 0 0 1-6.034 2.637h-7.7v-3.545c0-1.729-.953-3.135-2.124-3.135H81.18c-1.171 0-2.124 1.406-2.124 3.135v3.545H73.81v-17.958z" transform="translate(-60.245 -836.778)" style="fill:#65859e"/>
            <g data-name="그룹 1339">
                <path data-name="패스 493" d="m87.26 844.053 12.54 16.226a7.766 7.766 0 0 1-5.148 1.733h-1.197l-13.873-17.959z" transform="translate(-57.131 -836.778)" style="fill:#759cb1"/>
                <path data-name="패스 494" d="M123.015 854.62v-8.253l7.565 9.793h-.195c-1.171 0-2.124 1.406-2.124 3.135v2.116z" transform="translate(-109.45 -837.607)" style="fill:#759cb1"/>
                <path data-name="패스 495" d="m78.248 844.053 8.881 11.5a9.025 9.025 0 0 1-1.367 3.336L74.3 844.053z" transform="translate(-41.847 -836.778)" style="fill:#759cb1"/>
                <path data-name="패스 496" d="m131 864.759 3.607 4.67H131z" transform="translate(-117.433 -844.195)" style="fill:#759cb1"/>
            </g>
        </g>
        <path data-name="패스 497" d="M114.391 867.742h1.365a.344.344 0 0 1-.293-.379V864.2c0-2.289-1.3-4.145-2.9-4.145h-6.752c-1.6 0-2.9 1.856-2.9 4.145v3.167a.344.344 0 0 1-.293.379h1.365a.344.344 0 0 1-.293-.379V864.2c0-1.729.953-3.135 2.124-3.135h6.752c1.172 0 2.124 1.406 2.124 3.135v3.167a.344.344 0 0 1-.299.375z" transform="translate(-84.509 -842.51)" style="fill:#d5d1da"/>
        <path data-name="패스 498" d="M72.643 861.448H76.9a.344.344 0 0 0 .293-.379V857.9c0-2.289 1.3-4.145 2.9-4.145h6.752c1.6 0 2.9 1.856 2.9 4.145v3.167a.344.344 0 0 0 .293.379h6.632a7.474 7.474 0 0 0 6.034-2.637 11.169 11.169 0 0 0 0-12.684 7.474 7.474 0 0 0-6.034-2.637H72.643a.452.452 0 0 1-.405-.455.472.472 0 0 1 .389-.555h24.048a8.151 8.151 0 0 1 6.571 2.914 12.391 12.391 0 0 1 0 14.151 8.151 8.151 0 0 1-6.571 2.914H72.626a.472.472 0 0 1-.389-.555.453.453 0 0 1 .406-.454zm16.035 0a.344.344 0 0 0 .293-.379V857.9c0-1.729-.953-3.135-2.124-3.135h-6.753c-1.171 0-2.124 1.406-2.124 3.135v3.167a.344.344 0 0 0 .293.379z" transform="translate(-59.159 -836.215)" style="fill:#eeecf0"/>
        <path data-name="패스 499" d="M104.321 876.007H116.1a.459.459 0 0 0 .39-.5v-1.894h-12.559v1.887a.458.458 0 0 0 .39.507z" transform="translate(-85.9 -847.366)" style="fill:#ded4db;mix-blend-mode:multiply;isolation:isolate"/>
        <path data-name="패스 500" d="M104.321 873.045h12.971a.459.459 0 0 0 .39-.505.459.459 0 0 0-.39-.505h-12.971a.459.459 0 0 0-.39.505.459.459 0 0 0 .39.505z" transform="translate(-87.091 -846.802)" style="fill:#d5d1da"/>
        <path data-name="사각형 834" transform="translate(13.565 2.414)" style="fill:#ded4db;mix-blend-mode:multiply;isolation:isolate" d="M0 0h37.621v2.588H0z"/>
    </g>
    <g data-name="그룹 1342" transform="translate(74.807 19)">
        <path data-name="패스 501" d="M130.342 833.816a.275.275 0 0 0 .245-.249l.1-1.108-.961.1.328 1.064a.274.274 0 0 0 .288.193z" transform="translate(-128.163 -829.045)" style="fill:#dad1d9"/>
        <rect data-name="사각형 835" width="1.481" height="1.752" rx=".295" transform="translate(4.698 3.912)" style="fill:#886883"/>
        <rect data-name="사각형 836" width=".41" height="1.752" rx=".205" transform="translate(5.768 3.912)" style="fill:#7d5b77"/>
        <path data-name="패스 502" d="M128.746 834.836a.119.119 0 0 1-.15.115l-3.211-.848a.312.312 0 0 1-.205-.314.3.3 0 0 1 .245-.32l3.194-.221a.119.119 0 0 1 .127.119z" transform="translate(-123.309 -829.327)" style="fill:#c6bbc6"/>
        <path data-name="패스 503" d="m131.4 829.668-.225-2.129a.447.447 0 0 0-.492-.4l-2.923.309a.448.448 0 0 0-.4.492l.225 2.128z" transform="translate(-127.355 -827.139)" style="fill:#dad1d9"/>
        <path data-name="패스 504" d="m127.979 831.587 3.06-.323-.153-1.443a.379.379 0 0 0-.417-.337l-2.307.244a.379.379 0 0 0-.337.417z" transform="translate(-127.299 -827.978)" style="fill:#b9acba"/>
        <path data-name="패스 505" d="m131.02 829.243.205 1.94a.19.19 0 0 1-.169.208.189.189 0 0 1-.208-.168l-.173-1.632a.379.379 0 0 0-.417-.337l-2.307.244a.379.379 0 0 0-.337.417l.173 1.632a.189.189 0 0 1-.169.208.189.189 0 0 1-.208-.168l-.205-1.94a.449.449 0 0 1 .4-.493l2.923-.309a.448.448 0 0 1 .492.398z" transform="translate(-127.089 -827.749)" style="fill:#e9e2e7"/>
        <path data-name="패스 506" d="M128.727 830.639a.786.786 0 1 0 .7-.865.786.786 0 0 0-.7.865z" transform="translate(-127.131 -828.081)" style="fill:#5b3d55"/>
        <path data-name="패스 507" d="M131.949 830.3a.227.227 0 1 0 .2-.25.228.228 0 0 0-.2.25z" transform="translate(-131.309 -828.18)" style="fill:#d32739"/>
        <path data-name="패스 508" d="M129.749 833.753a.274.274 0 0 0 .245-.248l.1-1.109-.961.1.328 1.063a.274.274 0 0 0 .288.194z" transform="translate(-127.189 -829.022)" style="fill:#e9e2e7"/>
        <path data-name="패스 509" d="M129.522 830a.642.642 0 1 1-.571.706.642.642 0 0 1 .571-.706zm.11 1.04a.4.4 0 1 0-.444-.359.4.4 0 0 0 .444.357z" transform="translate(-127.213 -828.162)" style="fill:#775a70"/>
        <path data-name="패스 510" d="M129.679 830.368a.4.4 0 1 1-.359.444.4.4 0 0 1 .359-.444zm.065.621a.221.221 0 1 0-.243-.2.221.221 0 0 0 .244.2z" transform="translate(-127.345 -828.295)" style="fill:#4a3897"/>
        <path data-name="패스 511" d="M129.8 830.652a.221.221 0 1 1-.2.243.221.221 0 0 1 .2-.243z" transform="translate(-127.448 -828.397)" style="fill:#4334c4"/>
        <path data-name="패스 512" d="M129.917 830.931a.092.092 0 1 0-.1-.081.092.092 0 0 0 .1.081z" transform="translate(-127.538 -828.431)" style="fill:#9e87eb"/>
    </g>
    <g data-name="그룹 1343" transform="translate(102.816 29.272)">
        <rect data-name="사각형 837" width="1.511" height="5.057" rx=".373" transform="translate(0 14.025)" style="fill:#aca0af"/>
        <path data-name="패스 513" d="M61.192 857.6h-.555v-12.315a.864.864 0 0 1 .734-.95H63.8v.718h-2.429a.211.211 0 0 0-.179.232z" transform="translate(-60.281 -843.571)" style="fill:#9f90a1"/>
        <rect data-name="사각형 838" width="4.947" height="19.41" rx=".865" transform="translate(.623)" style="fill:#4b3757"/>
        <rect data-name="사각형 839" width="4.947" height="19.41" rx=".865" transform="translate(1.178)" style="fill:#5c4b6c"/>
        <rect data-name="사각형 840" width="2.685" height="4.967" rx=".649" transform="translate(2.365 2.255)" style="fill:#4b3757"/>
        <path data-name="패스 514" d="M60.331 847.1h-1.1c-.657 0-1.189.984-1.189 2.2s.532 2.2 1.189 2.2h1.1z" transform="translate(-55.52 -844.562)" style="fill:#6a5a7a"/>
        <path data-name="패스 515" d="M58.018 849.3c0 1.215-.532 2.2-1.189 2.2s-1.189-.985-1.189-2.2.532-2.2 1.189-2.2 1.189.985 1.189 2.2z" transform="translate(-52.018 -844.562)" style="fill:#4b3757"/>
        <path data-name="패스 516" d="M58.184 847.642a3.407 3.407 0 0 0 0 3.7c.478-.154.841-.925.841-1.852s-.363-1.69-.841-1.848z" transform="translate(-54.016 -844.756)" style="fill:#e44452"/>
        <rect data-name="사각형 841" width="2.685" height="4.967" rx=".649" transform="translate(2.365 7.222)" style="fill:#4b3757"/>
        <path data-name="패스 517" d="M60.331 854.84h-1.1c-.657 0-1.189.984-1.189 2.2s.532 2.2 1.189 2.2h1.1z" transform="translate(-55.52 -847.334)" style="fill:#6a5a7a"/>
        <path data-name="패스 518" d="M58.018 857.039c0 1.215-.532 2.2-1.189 2.2s-1.189-.985-1.189-2.2.532-2.2 1.189-2.2 1.189.986 1.189 2.2z" transform="translate(-52.018 -847.334)" style="fill:#4b3757"/>
        <path data-name="패스 519" d="M58.184 855.381a3.408 3.408 0 0 0 0 3.7c.478-.154.841-.925.841-1.852s-.363-1.694-.841-1.848z" transform="translate(-54.016 -847.528)" style="fill:#ffbe27"/>
        <rect data-name="사각형 842" width="2.685" height="4.967" rx=".649" transform="translate(2.365 12.188)" style="fill:#4b3757"/>
        <path data-name="패스 520" d="M60.331 862.578h-1.1c-.657 0-1.189.985-1.189 2.2s.532 2.2 1.189 2.2h1.1z" transform="translate(-55.52 -850.106)" style="fill:#6a5a7a"/>
        <path data-name="패스 521" d="M58.018 864.778c0 1.215-.532 2.2-1.189 2.2s-1.189-.984-1.189-2.2.532-2.2 1.189-2.2 1.189.985 1.189 2.2z" transform="translate(-52.018 -850.106)" style="fill:#4b3757"/>
        <path data-name="패스 522" d="M58.184 863.12a3.408 3.408 0 0 0 0 3.7c.478-.154.841-.925.841-1.852s-.363-1.694-.841-1.848z" transform="translate(-54.016 -850.3)" style="fill:#8fbb68"/>
    </g>
    <g data-name="그룹 1344" transform="translate(3 46.189)">
        <path data-name="패스 523" d="M140.794 869.5h5.621a.239.239 0 0 1 .239.239v.044h-5.861z" transform="translate(-79.432 -869.503)" style="fill:#7a93c2"/>
        <path data-name="패스 524" d="M139.869 869.945h5.861c.144 0 .273.133.322.332l.206.832a2.27 2.27 0 0 1 .065.547v23.208h-6.454z" transform="translate(-78.507 -869.661)" style="fill:#d1c8d1"/>
        <path data-name="패스 525" d="M139.895 869.945h5.861c.144 0 .273.133.322.332l.206.832a2.237 2.237 0 0 1 .049.264h-6.438z" transform="translate(-78.533 -869.661)" style="fill:#c2b5c1"/>
        <path data-name="사각형 843" transform="translate(62.223 4.118)" style="fill:#809ecc" d="M0 0h5.594v21.083H0z"/>
        <path data-name="패스 526" d="M149.206 869.945h4.612a.39.39 0 0 1 .338.332l.215.832a2.179 2.179 0 0 1 .069.547v23.208h-5.854v-23.209a2.179 2.179 0 0 1 .069-.547l.216-.832a.389.389 0 0 1 .335-.331z" transform="translate(-92.216 -869.661)" style="fill:#c2b5c1"/>
        <path data-name="사각형 844" transform="translate(56.368 4.118)" style="fill:#7a93c2" d="M0 0h5.855v21.083H0z"/>
        <rect data-name="사각형 845" width="4.898" height="16.917" rx=".829" transform="translate(56.847 6.475)" style="fill:#6f87b7"/>
        <path data-name="패스 527" d="M149.792 869.5h4.133a.239.239 0 0 1 .239.239v.044h-4.612v-.044a.239.239 0 0 1 .24-.239z" transform="translate(-92.563 -869.503)" style="fill:#6f87b7"/>
        <path data-name="패스 528" d="M148.613 871.373a2.114 2.114 0 0 1 .051-.264l.216-.832a.389.389 0 0 1 .337-.332h4.612a.39.39 0 0 1 .338.332l.215.832a2 2 0 0 1 .051.264z" transform="translate(-92.227 -869.661)" style="fill:#b5a5b3"/>
        <path data-name="패스 529" d="M139.329 873.141a.352.352 0 0 0-.229.09l-.412.348a.716.716 0 0 0-.217.542v3.079a.716.716 0 0 0 .217.542l.412.348a.352.352 0 0 0 .229.09h5c.247 0 .447-.283.447-.632v-3.771c0-.349-.2-.632-.447-.632z" transform="translate(-76.058 -870.806)" style="fill:#4b3757"/>
        <path data-name="패스 530" d="m147.169 873.579.413-.348a.349.349 0 0 1 .228-.09h1.019a.352.352 0 0 0-.229.09l-.412.348a.716.716 0 0 0-.217.542v3.079a.716.716 0 0 0 .217.542l.412.348a.352.352 0 0 0 .229.09h-1.019a.349.349 0 0 1-.228-.09l-.413-.348a.716.716 0 0 1-.217-.542v-3.08a.716.716 0 0 1 .217-.541z" transform="translate(-85.558 -870.806)" style="fill:#3c284a"/>
        <path data-name="패스 531" d="M139.323 876.789v-.807a.424.424 0 0 0-.136-.329l-.6-.483h4.713l.6.483a.426.426 0 0 1 .135.329v.807a.426.426 0 0 1-.135.329l-.6.483h-4.716l.6-.483a.425.425 0 0 0 .139-.329z" transform="translate(-75.4 -871.533)" style="fill:#5c4b6c"/>
        <path data-name="패스 532" d="M145.936 875.17v2.43l.6-.483a.425.425 0 0 0 .136-.329v-.807a.424.424 0 0 0-.136-.329z" transform="translate(-82.748 -871.533)" style="fill:#817390"/>
        <path data-name="패스 533" d="M149.222 877.534h61.285a.4.4 0 0 0 .4-.4V875.1a.4.4 0 0 0-.4-.4h-61.285a.35.35 0 0 0-.35.35v2.136a.35.35 0 0 0 .35.348z" transform="translate(-148.872 -871.364)" style="fill:#e2dfe5"/>
        <rect data-name="사각형 846" width="3.191" height="1.231" rx=".496" transform="translate(3.803 4.118)" style="fill:#d32739"/>
        <rect data-name="사각형 847" width="3.191" height="1.231" rx=".496" transform="translate(10.295 4.118)" style="fill:#d32739"/>
        <rect data-name="사각형 848" width="3.191" height="1.231" rx=".496" transform="translate(16.786 4.118)" style="fill:#d32739"/>
        <rect data-name="사각형 849" width="3.191" height="1.231" rx=".496" transform="translate(23.278 4.118)" style="fill:#d32739"/>
        <rect data-name="사각형 850" width="3.191" height="1.231" rx=".496" transform="translate(29.77 4.118)" style="fill:#d32739"/>
        <rect data-name="사각형 851" width="3.191" height="1.231" rx=".496" transform="translate(36.261 4.118)" style="fill:#d32739"/>
        <rect data-name="사각형 852" width="3.191" height="1.231" rx=".496" transform="translate(42.753 4.118)" style="fill:#d32739"/>
        <rect data-name="사각형 853" width="3.191" height="1.231" rx=".496" transform="translate(49.244 4.118)" style="fill:#d32739"/>
        <rect data-name="사각형 854" width="3.191" height="1.231" rx=".496" transform="translate(55.736 4.118)" style="fill:#d32739"/>
        <path data-name="패스 534" d="M157.418 870.381h-.268c-.472 0-.855.541-.855 1.209s.383 1.208.855 1.208h.268c-.472 0-.855-.54-.855-1.208s.383-1.209.855-1.209z" transform="translate(-100.144 -869.818)" style="fill:#d1c8d1"/>
        <ellipse data-name="타원 393" cx=".855" cy="1.209" rx=".855" ry="1.209" transform="translate(56.419 .564)" style="fill:#f1edf0"/>
        <path data-name="패스 535" d="M154.848 871.754a.8.8 0 1 0 .795-.915.861.861 0 0 0-.795.915z" transform="translate(-98.234 -869.982)" style="fill:#d32739"/>
        <path data-name="패스 536" d="M155.934 873.988h.219a.167.167 0 0 0 .083-.022.72.72 0 0 1 .314-.107.136.136 0 0 1 .143.129v.41h-.76z" transform="translate(-99.187 -871.063)" style="fill:#b6a7b5"/>
        <path data-name="패스 537" d="M198.044 870.381h-.268c-.472 0-.855.541-.855 1.209s.383 1.208.855 1.208h.268c-.472 0-.855-.54-.855-1.208s.383-1.209.855-1.209z" transform="translate(-166.844 -869.818)" style="fill:#d1c8d1"/>
        <ellipse data-name="타원 394" cx=".855" cy="1.209" rx=".855" ry="1.209" transform="translate(30.346 .564)" style="fill:#f1edf0"/>
        <path data-name="패스 538" d="M195.474 871.754a.8.8 0 1 0 .795-.915.861.861 0 0 0-.795.915z" transform="translate(-164.933 -869.982)" style="fill:#d32739"/>
        <path data-name="패스 539" d="M196.56 873.988h.219a.167.167 0 0 0 .083-.022.717.717 0 0 1 .314-.107.136.136 0 0 1 .143.129v.41h-.76z" transform="translate(-165.887 -871.063)" style="fill:#b6a7b5"/>
        <path data-name="패스 540" d="M238.439 870.381h-.268c-.472 0-.855.541-.855 1.209s.382 1.208.855 1.208h.268c-.472 0-.855-.54-.855-1.208s.383-1.209.855-1.209z" transform="translate(-233.163 -869.818)" style="fill:#d1c8d1"/>
        <ellipse data-name="타원 395" cx=".855" cy="1.209" rx=".855" ry="1.209" transform="translate(4.422 .564)" style="fill:#f1edf0"/>
        <path data-name="패스 541" d="M235.869 871.754a.8.8 0 1 0 .8-.915.861.861 0 0 0-.8.915z" transform="translate(-231.253 -869.982)" style="fill:#d32739"/>
        <path data-name="패스 542" d="M236.955 873.988h.219a.165.165 0 0 0 .083-.022.72.72 0 0 1 .314-.107.136.136 0 0 1 .143.129v.41h-.76z" transform="translate(-232.206 -871.063)" style="fill:#b6a7b5"/>
    </g>
    <path data-name="Icon awesome-info-circle" d="M13.281.563A12.719 12.719 0 1 0 26 13.281 12.721 12.721 0 0 0 13.281.563zm0 5.641a2.154 2.154 0 1 1-2.154 2.154A2.154 2.154 0 0 1 13.281 6.2zm2.872 13.026a.615.615 0 0 1-.615.615h-4.513a.615.615 0 0 1-.615-.615V18a.615.615 0 0 1 .615-.615h.615V14.1h-.615a.615.615 0 0 1-.615-.615v-1.229a.615.615 0 0 1 .615-.615h3.282a.615.615 0 0 1 .615.615v5.129h.615a.615.615 0 0 1 .615.615z" transform="translate(99 57.316)" style="fill:#fff"/>
</svg>
