<svg xmlns="http://www.w3.org/2000/svg" width="110" height="62.186" viewBox="0 0 110 62.186">
    <defs>
        <clipPath id="m3auq2occa">
            <path data-name="사각형 1118" style="fill:#2aaec2" d="M0 0h110v62.186H0z"/>
        </clipPath>
    </defs>
    <g data-name="그룹 1740" style="clip-path:url(#m3auq2occa)">
        <path data-name="패스 830" d="M52.506 158.585a10.031 10.031 0 0 1 9.922 8.639 10.035 10.035 0 0 1 0 2.756 10.018 10.018 0 0 1-19.845 0 10.035 10.035 0 0 1 0-2.756 10.031 10.031 0 0 1 9.922-8.639m0 17.279a7.261 7.261 0 1 0-7.261-7.261 7.27 7.27 0 0 0 7.261 7.261" transform="translate(34.773 -119.47)" style="fill:#2aaec2"/>
        <path data-name="패스 831" d="M71.033 182.561a4.562 4.562 0 1 1-4.562 4.563 4.567 4.567 0 0 1 4.562-4.563" transform="translate(16.247 -137.992)" style="fill:#2aaec2"/>
        <path data-name="패스 832" d="M274.123 182.561a4.562 4.562 0 1 1-4.562 4.563 4.568 4.568 0 0 1 4.562-4.563" transform="translate(-233.047 -137.992)" style="fill:#2aaec2"/>
        <path data-name="패스 833" d="M255.6 158.585a10.031 10.031 0 0 1 9.922 8.639 10.035 10.035 0 0 1 0 2.756 10.018 10.018 0 0 1-19.845 0 10.035 10.035 0 0 1 0-2.756 10.031 10.031 0 0 1 9.922-8.639m0 17.279a7.261 7.261 0 1 0-7.261-7.261 7.269 7.269 0 0 0 7.261 7.261" transform="translate(-214.527 -119.47)" style="fill:#2aaec2"/>
        <path data-name="패스 834" d="M370.634 182.561a4.562 4.562 0 1 1-4.562 4.563 4.568 4.568 0 0 1 4.562-4.563" transform="translate(-351.514 -137.992)" style="fill:#2aaec2"/>
        <path data-name="패스 835" d="M352.113 158.585a10.031 10.031 0 0 1 9.922 8.639 10.035 10.035 0 0 1 0 2.756 10.018 10.018 0 0 1-19.845 0 10.038 10.038 0 0 1 0-2.756 10.031 10.031 0 0 1 9.922-8.639m0 17.279a7.261 7.261 0 1 0-7.261-7.261 7.269 7.269 0 0 0 7.261 7.261" transform="translate(-332.994 -119.47)" style="fill:#2aaec2"/>
        <path data-name="패스 836" d="M4.825 0h85.561a8.989 8.989 0 0 1 8.547 6.174l3.808 11.5a23.368 23.368 0 0 1 1.185 7.356v18.554a3.894 3.894 0 0 1-3.889 3.889h-4.481a11.681 11.681 0 0 0 .083-1.378 11.353 11.353 0 0 0-.084-1.378c-.007-.065-.016-.128-.025-.192a11.4 11.4 0 0 0-22.575 0l-.025.189a11.652 11.652 0 0 0-.083 1.378 11.366 11.366 0 0 0 .084 1.378H49.352a11.632 11.632 0 0 0 .083-1.378 11.353 11.353 0 0 0-.084-1.378c-.007-.065-.016-.128-.025-.192a11.4 11.4 0 0 0-22.265-1.488 11.4 11.4 0 0 0-22.266 1.494l-.025.189a11.65 11.65 0 0 0-.083 1.383 11.414 11.414 0 0 0 .084 1.378h-.882A3.893 3.893 0 0 1 0 43.584V4.825A4.829 4.829 0 0 1 4.825 0m27.1 21.377h10.66V6.364H31.92zm16.5 0h10.663V6.364H48.423zm16.5 0h10.667V6.364H64.927zM81.43 6.364v15.013h15.025a.133.133 0 0 0 .117-.056.083.083 0 0 0 .014-.083c0-.011-.007-.022-.011-.032L92.786 9.13a4.2 4.2 0 0 0-3.98-2.766zm-55.348 0H7.021a.344.344 0 0 0-.342.342v14.671h19.4zm75.088 20.115H2.756v2.067h98.414z" transform="translate(3.037 3.037)" style="fill:#2aaec2"/>
    </g>
</svg>
