<svg xmlns="http://www.w3.org/2000/svg" width="966" height="66" viewBox="0 0 966 66">
    <defs>
        <filter id="vo16j11ala">
            <feOffset/>
            <feGaussianBlur stdDeviation="23" result="blur"/>
            <feFlood flood-color="#038bcb" flood-opacity=".561" result="color"/>
            <feComposite operator="out" in="SourceGraphic" in2="blur"/>
            <feComposite operator="in" in="color"/>
            <feComposite operator="in" in2="SourceGraphic"/>
        </filter>
    </defs>
    <g data-name="그룹 9686">
        <path data-name="패스 561" d="M14.975.034h6.869l-15.529 25h-6.87z" transform="translate(922.555 40.966)" style="opacity:.72;fill:#038bcb"/>
        <path data-name="패스 560" d="M14.7.034h6.747l-15.253 25H-.555z" transform="translate(933.555 40.966)" style="opacity:.51;fill:#038bcb"/>
        <path data-name="패스 559" d="M14.975.034h6.869l-15.529 25h-6.87z" transform="translate(944.156 40.966)" style="opacity:.33;fill:#038bcb"/>
    </g>
    <g data-name="그룹 9688">
        <path data-name="패스 561" d="M6.314.034H-.555l15.529 25h6.869z" transform="translate(22.156 40.966)" style="opacity:.72;fill:#038bcb"/>
        <path data-name="패스 560" d="M6.192.034H-.555l15.253 25h6.747z" transform="translate(11.555 40.966)" style="opacity:.51;fill:#038bcb"/>
        <path data-name="패스 559" d="M6.314.034H-.555l15.529 25h6.869z" transform="translate(.555 40.966)" style="opacity:.33;fill:#038bcb"/>
    </g>
    <g data-type="innerShadowGroup">
        <g data-name="합치기 6" style="fill:#061225">
            <path d="M880.675 65H16.324L1 40.646V25.27L16.323 1h864.353L896 25.27v15.374L880.675 65z" style="stroke:none" transform="translate(35)"/>
            <path d="M880.123 64 895 40.356V25.559L880.125 2H16.875L2 25.559v14.798L16.877 64h863.246m1.105 2H15.772L0 40.934V24.98L15.772 0h865.456L897 24.98v15.953L881.228 66z" style="stroke:none" transform="translate(35)"/>
        </g>
        <g style="filter:url(#vo16j11ala)">
            <g data-name="합치기 6" style="fill:#fff">
                <path d="M880.675 65H16.324L1 40.646V25.27L16.323 1h864.353L896 25.27v15.374L880.675 65z" style="stroke:none" transform="translate(35)"/>
                <path d="M880.123 64 895 40.356V25.559L880.125 2H16.875L2 25.559v14.798L16.877 64h863.246m1.105 2H15.772L0 40.934V24.98L15.772 0h865.456L897 24.98v15.953L881.228 66z" style="stroke:none" transform="translate(35)"/>
            </g>
        </g>
        <g data-name="합치기 6" style="fill:none">
            <path d="M880.675 65H16.324L1 40.646V25.27L16.323 1h864.353L896 25.27v15.374L880.675 65z" style="stroke:none" transform="translate(35)"/>
            <path d="M880.123 64 895 40.356V25.559L880.125 2H16.875L2 25.559v14.798L16.877 64h863.246m1.105 2H15.772L0 40.934V24.98L15.772 0h865.456L897 24.98v15.953L881.228 66z" style="fill:#038bcb;stroke:none" transform="translate(35)"/>
        </g>
    </g>
</svg>
