<svg xmlns="http://www.w3.org/2000/svg" width="1026.405" height="236.651" viewBox="0 0 1026.405 236.651">
    <defs>
        <linearGradient id="1qune990pa" x1=".5" x2=".5" y2="1" gradientUnits="objectBoundingBox">
            <stop offset="0" stop-color="#fff"/>
            <stop offset=".858" stop-color="#bcc2c7"/>
            <stop offset="1" stop-color="#405260"/>
        </linearGradient>
    </defs>
    <path data-name="패스 577" d="M38.363 0h-5.748L10.782-33.419V0H5.034v-43.367h5.749L32.674-9.8v-33.567h5.689zm35.028-32.049a10.071 10.071 0 0 1-1.713 5.778 11.653 11.653 0 0 1-4.632 3.961 12.43 12.43 0 0 1 5.376 4.259 10.718 10.718 0 0 1 1.978 6.345 11.332 11.332 0 0 1-3.8 8.965Q66.808.6 60.613.6 54.358.6 50.59-2.755a11.385 11.385 0 0 1-3.768-8.95 11.038 11.038 0 0 1 1.921-6.344 11.956 11.956 0 0 1 5.317-4.289A11.365 11.365 0 0 1 49.5-26.3a10.214 10.214 0 0 1-1.668-5.749 11.21 11.21 0 0 1 3.515-8.7 13.184 13.184 0 0 1 9.263-3.217 13.2 13.2 0 0 1 9.248 3.217 11.186 11.186 0 0 1 3.533 8.7zm-4.5 20.224a7.993 7.993 0 0 0-2.308-5.927 8.186 8.186 0 0 0-6.031-2.293 8.043 8.043 0 0 0-5.972 2.264 8.084 8.084 0 0 0-2.249 5.957 7.7 7.7 0 0 0 2.189 5.808A8.4 8.4 0 0 0 60.613-3.9a8.378 8.378 0 0 0 6.076-2.13 7.68 7.68 0 0 0 2.204-5.795zm-8.28-27.611a7.11 7.11 0 0 0-5.257 2.01 7.385 7.385 0 0 0-2.01 5.466 7.35 7.35 0 0 0 1.981 5.346 7.03 7.03 0 0 0 5.287 2.04 7.03 7.03 0 0 0 5.287-2.04 7.35 7.35 0 0 0 1.981-5.346 7.353 7.353 0 0 0-2.055-5.391 7.01 7.01 0 0 0-5.212-2.085zm70.621 19.152a26.827 26.827 0 0 1-2.145 11.125 16.244 16.244 0 0 1-6.076 7.253A16.717 16.717 0 0 1 113.839.6a16.575 16.575 0 0 1-9.084-2.517A16.632 16.632 0 0 1 98.6-9.1a25.74 25.74 0 0 1-2.249-10.8v-3.127a26.508 26.508 0 0 1 2.174-11.05 16.574 16.574 0 0 1 6.151-7.342 16.5 16.5 0 0 1 9.1-2.547 16.811 16.811 0 0 1 9.189 2.517 16.214 16.214 0 0 1 6.121 7.3 26.957 26.957 0 0 1 2.145 11.125zm-5.689-2.8q0-7.714-3.1-11.84a10.217 10.217 0 0 0-8.667-4.125 10.107 10.107 0 0 0-8.533 4.125q-3.113 4.125-3.2 11.452v3.187q0 7.476 3.142 11.75a10.15 10.15 0 0 0 8.653 4.274 10.109 10.109 0 0 0 8.579-4.039q3.038-4.036 3.127-11.572zm40.627 7.327q0 7.357-3.366 11.854A10.787 10.787 0 0 1 153.691.6a11.819 11.819 0 0 1-9.233-3.723v15.514h-5.51v-44.619h5.034l.268 3.574a11.351 11.351 0 0 1 9.353-4.17 10.989 10.989 0 0 1 9.189 4.378q3.381 4.378 3.381 12.182zm-5.51-.625q0-5.451-2.323-8.608a7.484 7.484 0 0 0-6.374-3.157 8.1 8.1 0 0 0-7.506 4.438v15.4a8.116 8.116 0 0 0 7.566 4.409 7.449 7.449 0 0 0 6.3-3.142q2.338-3.145 2.338-9.34zM186.544.6a14.081 14.081 0 0 1-10.663-4.3q-4.11-4.3-4.11-11.512v-1.013A19.339 19.339 0 0 1 173.6-24.8a14.289 14.289 0 0 1 5.123-5.9 12.88 12.88 0 0 1 7.134-2.13q6.285 0 9.77 4.14t3.485 11.854v2.293h-21.831a11.456 11.456 0 0 0 2.785 7.7 8.754 8.754 0 0 0 6.776 2.943 9.6 9.6 0 0 0 4.944-1.191 12.423 12.423 0 0 0 3.544-3.157l3.37 2.619Q194.646.6 186.544.6zm-.685-28.9a7.35 7.35 0 0 0-5.6 2.427 11.8 11.8 0 0 0-2.8 6.806H193.6v-.417a10.5 10.5 0 0 0-2.264-6.508 6.92 6.92 0 0 0-5.477-2.308zm35.206 1.013a16.513 16.513 0 0 0-2.71-.208q-5.421 0-7.357 4.617V0h-5.51v-32.228h5.361l.089 3.723a8.58 8.58 0 0 1 7.685-4.319 5.629 5.629 0 0 1 2.442.417zM244.834 0a11.575 11.575 0 0 1-.774-3.4 12.3 12.3 0 0 1-9.174 4 11.376 11.376 0 0 1-7.819-2.7 8.721 8.721 0 0 1-3.053-6.836 9.111 9.111 0 0 1 3.827-7.819q3.827-2.785 10.767-2.785h5.361v-2.532a6.189 6.189 0 0 0-1.728-4.6 6.943 6.943 0 0 0-5.093-1.713 8.035 8.035 0 0 0-4.944 1.489 4.388 4.388 0 0 0-2 3.6h-5.54a7.6 7.6 0 0 1 1.713-4.661 11.689 11.689 0 0 1 4.646-3.559 15.632 15.632 0 0 1 6.448-1.311q5.57 0 8.727 2.785a10.046 10.046 0 0 1 3.276 7.67v14.836a18.135 18.135 0 0 0 1.132 7.059V0zm-9.144-4.2a9.684 9.684 0 0 0 4.91-1.34 8.107 8.107 0 0 0 3.366-3.485v-6.612h-4.319q-10.127 0-10.127 5.927a5.016 5.016 0 0 0 1.728 4.051A6.64 6.64 0 0 0 235.69-4.2zm29.9-35.832v7.8h6.017v4.259h-6.017v20.016a4.473 4.473 0 0 0 .8 2.908 3.385 3.385 0 0 0 2.74.969 13.341 13.341 0 0 0 2.621-.357V0a16.069 16.069 0 0 1-4.221.6 6.862 6.862 0 0 1-5.57-2.234 9.6 9.6 0 0 1-1.876-6.344v-19.99h-5.868v-4.259h5.868v-7.8zM284.031 0h-5.51v-32.228h5.51zm-5.957-40.776a3.289 3.289 0 0 1 .819-2.264 3.075 3.075 0 0 1 2.427-.923 3.123 3.123 0 0 1 2.442.923 3.254 3.254 0 0 1 .834 2.264 3.147 3.147 0 0 1-.834 2.234 3.18 3.18 0 0 1-2.442.894 3.131 3.131 0 0 1-2.427-.894 3.18 3.18 0 0 1-.819-2.234zm13.314 24.364a19.035 19.035 0 0 1 1.862-8.519 13.887 13.887 0 0 1 5.183-5.838 14.108 14.108 0 0 1 7.58-2.055 13.591 13.591 0 0 1 10.648 4.557q4.066 4.557 4.066 12.123v.387a19.2 19.2 0 0 1-1.8 8.444 13.683 13.683 0 0 1-5.153 5.823A14.27 14.27 0 0 1 306.072.6a13.557 13.557 0 0 1-10.618-4.557q-4.066-4.557-4.066-12.063zm5.54.655a13.787 13.787 0 0 0 2.487 8.608 7.959 7.959 0 0 0 6.657 3.249 7.911 7.911 0 0 0 6.672-3.291q2.472-3.291 2.472-9.219A13.763 13.763 0 0 0 312.7-25a8 8 0 0 0-6.687-3.291 7.913 7.913 0 0 0-6.583 3.247q-2.502 3.244-2.502 9.288zm35.921-16.471.179 4.051a11.744 11.744 0 0 1 9.65-4.646q10.216 0 10.306 11.527V0h-5.51v-21.326q-.03-3.485-1.594-5.153a6.386 6.386 0 0 0-4.87-1.668 7.953 7.953 0 0 0-4.706 1.43 9.708 9.708 0 0 0-3.157 3.753V0h-5.51v-32.228zm57.188 12.9q-7.357-2.115-10.708-5.2a9.931 9.931 0 0 1-3.351-7.61 10.49 10.49 0 0 1 4.1-8.474q4.1-3.351 10.648-3.351a17.767 17.767 0 0 1 7.968 1.728 13.1 13.1 0 0 1 5.421 4.766 12.186 12.186 0 0 1 1.921 6.642h-5.749a7.929 7.929 0 0 0-2.5-6.2q-2.5-2.257-7.059-2.257a10.416 10.416 0 0 0-6.6 1.865 6.221 6.221 0 0 0-2.368 5.177 5.6 5.6 0 0 0 2.249 4.491q2.249 1.835 7.655 3.357a35.517 35.517 0 0 1 8.459 3.354 12.837 12.837 0 0 1 4.527 4.274 10.909 10.909 0 0 1 1.474 5.749 10.133 10.133 0 0 1-4.11 8.444Q397.9.6 391.02.6a20.384 20.384 0 0 1-8.34-1.713 14.035 14.035 0 0 1-5.972-4.691 11.448 11.448 0 0 1-2.1-6.761h5.749a7.469 7.469 0 0 0 2.9 6.21 12.228 12.228 0 0 0 7.759 2.279q4.527 0 6.94-1.847a6 6 0 0 0 2.413-5.034 5.889 5.889 0 0 0-2.234-4.929q-2.235-1.747-8.098-3.445zm30.023-20.7v7.8h6.017v4.259h-6.017v20.012a4.473 4.473 0 0 0 .8 2.908 3.385 3.385 0 0 0 2.74.969 13.341 13.341 0 0 0 2.621-.357V0A16.069 16.069 0 0 1 422 .6a6.862 6.862 0 0 1-5.57-2.234 9.6 9.6 0 0 1-1.876-6.344v-19.99h-5.868v-4.259h5.868v-7.8zM452.407 0a11.575 11.575 0 0 1-.774-3.4 12.3 12.3 0 0 1-9.175 4 11.376 11.376 0 0 1-7.819-2.7 8.721 8.721 0 0 1-3.053-6.836 9.111 9.111 0 0 1 3.827-7.819q3.827-2.785 10.767-2.785h5.361v-2.532a6.189 6.189 0 0 0-1.728-4.6 6.943 6.943 0 0 0-5.093-1.713 8.035 8.035 0 0 0-4.944 1.489 4.388 4.388 0 0 0-2 3.6h-5.54a7.6 7.6 0 0 1 1.713-4.661 11.689 11.689 0 0 1 4.646-3.559 15.632 15.632 0 0 1 6.448-1.311q5.57 0 8.727 2.785a10.046 10.046 0 0 1 3.276 7.67v14.836a18.135 18.135 0 0 0 1.132 7.059V0zm-9.144-4.2a9.684 9.684 0 0 0 4.915-1.34 8.107 8.107 0 0 0 3.366-3.485v-6.612h-4.319q-10.127 0-10.127 5.927a5.016 5.016 0 0 0 1.728 4.051 6.64 6.64 0 0 0 4.437 1.459zm29.9-35.832v7.8h6.017v4.259h-6.017v20.016a4.473 4.473 0 0 0 .8 2.908 3.385 3.385 0 0 0 2.74.969 13.341 13.341 0 0 0 2.621-.357V0a16.069 16.069 0 0 1-4.224.6 6.862 6.862 0 0 1-5.57-2.234 9.6 9.6 0 0 1-1.876-6.344v-19.99h-5.868v-4.259h5.868v-7.8zm32.351 36.845Q502.3.6 496.072.6q-5.153 0-7.848-2.993t-2.724-8.866v-20.969h5.51v20.82q0 7.327 5.957 7.327 6.314 0 8.4-4.706v-23.441h5.51V0h-5.242zm32.5-5.361a4.057 4.057 0 0 0-1.683-3.47 16.2 16.2 0 0 0-5.868-2.13 27.742 27.742 0 0 1-6.642-2.145 9.45 9.45 0 0 1-3.634-2.979 7.125 7.125 0 0 1-1.177-4.11 8.36 8.36 0 0 1 3.351-6.7 13.086 13.086 0 0 1 8.563-2.74 13.466 13.466 0 0 1 8.891 2.83 8.987 8.987 0 0 1 3.41 7.238h-5.54a4.975 4.975 0 0 0-1.921-3.9 7.2 7.2 0 0 0-4.84-1.638 7.533 7.533 0 0 0-4.706 1.311 4.125 4.125 0 0 0-1.7 3.425 3.342 3.342 0 0 0 1.579 3.008 19.423 19.423 0 0 0 5.7 1.936 29.72 29.72 0 0 1 6.687 2.2 9.754 9.754 0 0 1 3.8 3.083 7.58 7.58 0 0 1 1.236 4.393 8.248 8.248 0 0 1-3.455 6.925A14.493 14.493 0 0 1 531.1.6a16.229 16.229 0 0 1-6.851-1.37 11.142 11.142 0 0 1-4.662-3.83 9.225 9.225 0 0 1-1.687-5.318h5.51a5.7 5.7 0 0 0 2.219 4.393A8.608 8.608 0 0 0 531.1-3.9a8.886 8.886 0 0 0 5.019-1.266 3.89 3.89 0 0 0 1.89-3.382zm36.04-34.819 14.173 35.385L602.4-43.367h7.417V0H604.1v-16.888l.536-18.229L590.4 0h-4.378l-14.207-35.027.566 18.139V0h-5.719v-43.367zM617.6-16.412a19.036 19.036 0 0 1 1.862-8.519 13.887 13.887 0 0 1 5.183-5.838 14.108 14.108 0 0 1 7.58-2.055 13.591 13.591 0 0 1 10.648 4.557q4.066 4.557 4.066 12.123v.387a19.2 19.2 0 0 1-1.8 8.444 13.683 13.683 0 0 1-5.153 5.823A14.27 14.27 0 0 1 632.279.6a13.557 13.557 0 0 1-10.618-4.557Q617.6-8.519 617.6-16.024zm5.54.655a13.787 13.787 0 0 0 2.487 8.608 7.959 7.959 0 0 0 6.652 3.249 7.911 7.911 0 0 0 6.672-3.291q2.472-3.291 2.472-9.219a13.763 13.763 0 0 0-2.517-8.59 8 8 0 0 0-6.686-3.3 7.912 7.912 0 0 0-6.583 3.247q-2.502 3.253-2.502 9.297zm35.921-16.471.179 4.051a11.744 11.744 0 0 1 9.65-4.646q10.216 0 10.306 11.527V0h-5.51v-21.326q-.03-3.485-1.594-5.153a6.386 6.386 0 0 0-4.87-1.668 7.953 7.953 0 0 0-4.706 1.43 9.708 9.708 0 0 0-3.157 3.753V0h-5.51v-32.228zM693.488 0h-5.51v-32.228h5.51zm-5.957-40.776a3.289 3.289 0 0 1 .819-2.264 3.075 3.075 0 0 1 2.427-.923 3.123 3.123 0 0 1 2.442.923 3.255 3.255 0 0 1 .834 2.264 3.147 3.147 0 0 1-.834 2.234 3.18 3.18 0 0 1-2.442.894 3.131 3.131 0 0 1-2.427-.894 3.18 3.18 0 0 1-.819-2.234zm22.25.745v7.8h6.019v4.259h-6.02v20.015a4.473 4.473 0 0 0 .8 2.908 3.385 3.385 0 0 0 2.74.969 13.341 13.341 0 0 0 2.621-.357V0a16.069 16.069 0 0 1-4.225.6 6.862 6.862 0 0 1-5.57-2.234 9.6 9.6 0 0 1-1.876-6.344v-19.99h-5.87v-4.259h5.868v-7.8zm10.4 23.62a19.036 19.036 0 0 1 1.862-8.519 13.887 13.887 0 0 1 5.183-5.838 14.108 14.108 0 0 1 7.58-2.055 13.591 13.591 0 0 1 10.648 4.557q4.066 4.557 4.066 12.123v.387a19.2 19.2 0 0 1-1.8 8.444 13.683 13.683 0 0 1-5.153 5.823A14.27 14.27 0 0 1 734.859.6a13.557 13.557 0 0 1-10.618-4.557q-4.066-4.557-4.066-12.063zm5.54.655a13.787 13.787 0 0 0 2.479 8.608 7.959 7.959 0 0 0 6.659 3.248 7.911 7.911 0 0 0 6.672-3.291Q744-10.484 744-16.412A13.763 13.763 0 0 0 741.487-25a8 8 0 0 0-6.687-3.3 7.912 7.912 0 0 0-6.583 3.247q-2.502 3.253-2.502 9.297zM772-27.283a16.513 16.513 0 0 0-2.71-.208q-5.421 0-7.357 4.617V0h-5.51v-32.228h5.361l.089 3.723a8.58 8.58 0 0 1 7.685-4.319 5.629 5.629 0 0 1 2.442.417zM783.052 0h-5.51v-32.228h5.51zm-5.957-40.776a3.289 3.289 0 0 1 .819-2.264 3.075 3.075 0 0 1 2.427-.923 3.123 3.123 0 0 1 2.442.923 3.255 3.255 0 0 1 .834 2.264 3.147 3.147 0 0 1-.834 2.234 3.18 3.18 0 0 1-2.442.894 3.131 3.131 0 0 1-2.427-.894 3.18 3.18 0 0 1-.819-2.234zm19.986 8.548.179 4.051a11.744 11.744 0 0 1 9.65-4.646q10.216 0 10.306 11.527V0h-5.51v-21.326q-.03-3.485-1.594-5.153a6.386 6.386 0 0 0-4.87-1.668 7.953 7.953 0 0 0-4.706 1.43 9.708 9.708 0 0 0-3.157 3.753V0h-5.51v-32.228zm27.134 15.846q0-7.536 3.485-11.989a11.145 11.145 0 0 1 9.233-4.453 11.086 11.086 0 0 1 9.2 4.17l.268-3.574h5.034V-.774q0 6.255-3.708 9.859t-9.963 3.6a16.575 16.575 0 0 1-6.821-1.489 11.742 11.742 0 0 1-5.093-4.081l2.859-3.306a10.775 10.775 0 0 0 8.667 4.378 8.443 8.443 0 0 0 6.27-2.264 8.652 8.652 0 0 0 2.254-6.37v-2.77A11.325 11.325 0 0 1 836.874.6a11.008 11.008 0 0 1-9.159-4.557q-3.5-4.562-3.5-12.425zm5.54.625q0 5.451 2.234 8.563a7.258 7.258 0 0 0 6.255 3.113 8.072 8.072 0 0 0 7.656-4.735V-23.53a8.166 8.166 0 0 0-7.6-4.617 7.324 7.324 0 0 0-6.285 3.127q-2.26 3.128-2.26 9.264z" transform="translate(84.966 133.963)" style="fill:url(#1qune990pa)"/>
    <path data-name="패스 553" d="M38.363 0h-5.748L10.782-33.419V0H5.034v-43.367h5.749L32.674-9.8v-33.567h5.689zm35.028-32.049a10.071 10.071 0 0 1-1.713 5.778 11.653 11.653 0 0 1-4.632 3.961 12.43 12.43 0 0 1 5.376 4.259 10.718 10.718 0 0 1 1.978 6.345 11.332 11.332 0 0 1-3.8 8.965Q66.808.6 60.613.6 54.358.6 50.59-2.755a11.385 11.385 0 0 1-3.768-8.95 11.038 11.038 0 0 1 1.921-6.344 11.956 11.956 0 0 1 5.317-4.289A11.365 11.365 0 0 1 49.5-26.3a10.214 10.214 0 0 1-1.668-5.749 11.21 11.21 0 0 1 3.515-8.7 13.184 13.184 0 0 1 9.263-3.217 13.2 13.2 0 0 1 9.248 3.217 11.186 11.186 0 0 1 3.533 8.7zm-4.5 20.224a7.993 7.993 0 0 0-2.308-5.927 8.186 8.186 0 0 0-6.031-2.293 8.043 8.043 0 0 0-5.972 2.264 8.084 8.084 0 0 0-2.249 5.957 7.7 7.7 0 0 0 2.189 5.808A8.4 8.4 0 0 0 60.613-3.9a8.378 8.378 0 0 0 6.076-2.13 7.68 7.68 0 0 0 2.204-5.795zm-8.28-27.611a7.11 7.11 0 0 0-5.257 2.01 7.385 7.385 0 0 0-2.01 5.466 7.35 7.35 0 0 0 1.981 5.346 7.03 7.03 0 0 0 5.287 2.04 7.03 7.03 0 0 0 5.287-2.04 7.35 7.35 0 0 0 1.981-5.346 7.353 7.353 0 0 0-2.055-5.391 7.01 7.01 0 0 0-5.212-2.085zm70.621 19.152a26.827 26.827 0 0 1-2.145 11.125 16.244 16.244 0 0 1-6.076 7.253A16.717 16.717 0 0 1 113.839.6a16.575 16.575 0 0 1-9.084-2.517A16.632 16.632 0 0 1 98.6-9.1a25.74 25.74 0 0 1-2.249-10.8v-3.127a26.508 26.508 0 0 1 2.174-11.05 16.574 16.574 0 0 1 6.151-7.342 16.5 16.5 0 0 1 9.1-2.547 16.811 16.811 0 0 1 9.189 2.517 16.214 16.214 0 0 1 6.121 7.3 26.957 26.957 0 0 1 2.145 11.125zm-5.689-2.8q0-7.714-3.1-11.84a10.217 10.217 0 0 0-8.667-4.125 10.107 10.107 0 0 0-8.533 4.125q-3.113 4.125-3.2 11.452v3.187q0 7.476 3.142 11.75a10.15 10.15 0 0 0 8.653 4.274 10.109 10.109 0 0 0 8.579-4.039q3.038-4.036 3.127-11.572zm40.627 7.327q0 7.357-3.366 11.854A10.787 10.787 0 0 1 153.691.6a11.819 11.819 0 0 1-9.233-3.723v15.514h-5.51v-44.619h5.034l.268 3.574a11.351 11.351 0 0 1 9.353-4.17 10.989 10.989 0 0 1 9.189 4.378q3.381 4.378 3.381 12.182zm-5.51-.625q0-5.451-2.323-8.608a7.484 7.484 0 0 0-6.374-3.157 8.1 8.1 0 0 0-7.506 4.438v15.4a8.116 8.116 0 0 0 7.566 4.409 7.449 7.449 0 0 0 6.3-3.142q2.338-3.145 2.338-9.34zM186.544.6a14.081 14.081 0 0 1-10.663-4.3q-4.11-4.3-4.11-11.512v-1.013A19.339 19.339 0 0 1 173.6-24.8a14.289 14.289 0 0 1 5.123-5.9 12.88 12.88 0 0 1 7.134-2.13q6.285 0 9.77 4.14t3.485 11.854v2.293h-21.831a11.456 11.456 0 0 0 2.785 7.7 8.754 8.754 0 0 0 6.776 2.943 9.6 9.6 0 0 0 4.944-1.191 12.423 12.423 0 0 0 3.544-3.157l3.37 2.619Q194.646.6 186.544.6zm-.685-28.9a7.35 7.35 0 0 0-5.6 2.427 11.8 11.8 0 0 0-2.8 6.806H193.6v-.417a10.5 10.5 0 0 0-2.264-6.508 6.92 6.92 0 0 0-5.477-2.308zm35.206 1.013a16.513 16.513 0 0 0-2.71-.208q-5.421 0-7.357 4.617V0h-5.51v-32.228h5.361l.089 3.723a8.58 8.58 0 0 1 7.685-4.319 5.629 5.629 0 0 1 2.442.417zM244.834 0a11.575 11.575 0 0 1-.774-3.4 12.3 12.3 0 0 1-9.174 4 11.376 11.376 0 0 1-7.819-2.7 8.721 8.721 0 0 1-3.053-6.836 9.111 9.111 0 0 1 3.827-7.819q3.827-2.785 10.767-2.785h5.361v-2.532a6.189 6.189 0 0 0-1.728-4.6 6.943 6.943 0 0 0-5.093-1.713 8.035 8.035 0 0 0-4.944 1.489 4.388 4.388 0 0 0-2 3.6h-5.54a7.6 7.6 0 0 1 1.713-4.661 11.689 11.689 0 0 1 4.646-3.559 15.632 15.632 0 0 1 6.448-1.311q5.57 0 8.727 2.785a10.046 10.046 0 0 1 3.276 7.67v14.836a18.135 18.135 0 0 0 1.132 7.059V0zm-9.144-4.2a9.684 9.684 0 0 0 4.91-1.34 8.107 8.107 0 0 0 3.366-3.485v-6.612h-4.319q-10.127 0-10.127 5.927a5.016 5.016 0 0 0 1.728 4.051A6.64 6.64 0 0 0 235.69-4.2zm29.9-35.832v7.8h6.017v4.259h-6.017v20.016a4.473 4.473 0 0 0 .8 2.908 3.385 3.385 0 0 0 2.74.969 13.341 13.341 0 0 0 2.621-.357V0a16.069 16.069 0 0 1-4.221.6 6.862 6.862 0 0 1-5.57-2.234 9.6 9.6 0 0 1-1.876-6.344v-19.99h-5.868v-4.259h5.868v-7.8zM284.031 0h-5.51v-32.228h5.51zm-5.957-40.776a3.289 3.289 0 0 1 .819-2.264 3.075 3.075 0 0 1 2.427-.923 3.123 3.123 0 0 1 2.442.923 3.254 3.254 0 0 1 .834 2.264 3.147 3.147 0 0 1-.834 2.234 3.18 3.18 0 0 1-2.442.894 3.131 3.131 0 0 1-2.427-.894 3.18 3.18 0 0 1-.819-2.234zm13.314 24.364a19.035 19.035 0 0 1 1.862-8.519 13.887 13.887 0 0 1 5.183-5.838 14.108 14.108 0 0 1 7.58-2.055 13.591 13.591 0 0 1 10.648 4.557q4.066 4.557 4.066 12.123v.387a19.2 19.2 0 0 1-1.8 8.444 13.683 13.683 0 0 1-5.153 5.823A14.27 14.27 0 0 1 306.072.6a13.557 13.557 0 0 1-10.618-4.557q-4.066-4.557-4.066-12.063zm5.54.655a13.787 13.787 0 0 0 2.487 8.608 7.959 7.959 0 0 0 6.657 3.249 7.911 7.911 0 0 0 6.672-3.291q2.472-3.291 2.472-9.219A13.763 13.763 0 0 0 312.7-25a8 8 0 0 0-6.687-3.291 7.913 7.913 0 0 0-6.583 3.247q-2.502 3.244-2.502 9.288zm35.921-16.471.179 4.051a11.744 11.744 0 0 1 9.65-4.646q10.216 0 10.306 11.527V0h-5.51v-21.326q-.03-3.485-1.594-5.153a6.386 6.386 0 0 0-4.87-1.668 7.953 7.953 0 0 0-4.706 1.43 9.708 9.708 0 0 0-3.157 3.753V0h-5.51v-32.228zm57.188 12.9q-7.357-2.115-10.708-5.2a9.931 9.931 0 0 1-3.351-7.61 10.49 10.49 0 0 1 4.1-8.474q4.1-3.351 10.648-3.351a17.767 17.767 0 0 1 7.968 1.728 13.1 13.1 0 0 1 5.421 4.766 12.186 12.186 0 0 1 1.921 6.642h-5.749a7.929 7.929 0 0 0-2.5-6.2q-2.5-2.257-7.059-2.257a10.416 10.416 0 0 0-6.6 1.865 6.221 6.221 0 0 0-2.368 5.177 5.6 5.6 0 0 0 2.249 4.491q2.249 1.835 7.655 3.357a35.517 35.517 0 0 1 8.459 3.354 12.837 12.837 0 0 1 4.527 4.274 10.909 10.909 0 0 1 1.474 5.749 10.133 10.133 0 0 1-4.11 8.444Q397.9.6 391.02.6a20.384 20.384 0 0 1-8.34-1.713 14.035 14.035 0 0 1-5.972-4.691 11.448 11.448 0 0 1-2.1-6.761h5.749a7.469 7.469 0 0 0 2.9 6.21 12.228 12.228 0 0 0 7.759 2.279q4.527 0 6.94-1.847a6 6 0 0 0 2.413-5.034 5.889 5.889 0 0 0-2.234-4.929q-2.235-1.747-8.098-3.445zm30.023-20.7v7.8h6.017v4.259h-6.017v20.012a4.473 4.473 0 0 0 .8 2.908 3.385 3.385 0 0 0 2.74.969 13.341 13.341 0 0 0 2.621-.357V0A16.069 16.069 0 0 1 422 .6a6.862 6.862 0 0 1-5.57-2.234 9.6 9.6 0 0 1-1.876-6.344v-19.99h-5.868v-4.259h5.868v-7.8zM452.407 0a11.575 11.575 0 0 1-.774-3.4 12.3 12.3 0 0 1-9.175 4 11.376 11.376 0 0 1-7.819-2.7 8.721 8.721 0 0 1-3.053-6.836 9.111 9.111 0 0 1 3.827-7.819q3.827-2.785 10.767-2.785h5.361v-2.532a6.189 6.189 0 0 0-1.728-4.6 6.943 6.943 0 0 0-5.093-1.713 8.035 8.035 0 0 0-4.944 1.489 4.388 4.388 0 0 0-2 3.6h-5.54a7.6 7.6 0 0 1 1.713-4.661 11.689 11.689 0 0 1 4.646-3.559 15.632 15.632 0 0 1 6.448-1.311q5.57 0 8.727 2.785a10.046 10.046 0 0 1 3.276 7.67v14.836a18.135 18.135 0 0 0 1.132 7.059V0zm-9.144-4.2a9.684 9.684 0 0 0 4.915-1.34 8.107 8.107 0 0 0 3.366-3.485v-6.612h-4.319q-10.127 0-10.127 5.927a5.016 5.016 0 0 0 1.728 4.051 6.64 6.64 0 0 0 4.437 1.459zm29.9-35.832v7.8h6.017v4.259h-6.017v20.016a4.473 4.473 0 0 0 .8 2.908 3.385 3.385 0 0 0 2.74.969 13.341 13.341 0 0 0 2.621-.357V0a16.069 16.069 0 0 1-4.224.6 6.862 6.862 0 0 1-5.57-2.234 9.6 9.6 0 0 1-1.876-6.344v-19.99h-5.868v-4.259h5.868v-7.8zm32.351 36.845Q502.3.6 496.072.6q-5.153 0-7.848-2.993t-2.724-8.866v-20.969h5.51v20.82q0 7.327 5.957 7.327 6.314 0 8.4-4.706v-23.441h5.51V0h-5.242zm32.5-5.361a4.057 4.057 0 0 0-1.683-3.47 16.2 16.2 0 0 0-5.868-2.13 27.742 27.742 0 0 1-6.642-2.145 9.45 9.45 0 0 1-3.634-2.979 7.125 7.125 0 0 1-1.177-4.11 8.36 8.36 0 0 1 3.351-6.7 13.086 13.086 0 0 1 8.563-2.74 13.466 13.466 0 0 1 8.891 2.83 8.987 8.987 0 0 1 3.41 7.238h-5.54a4.975 4.975 0 0 0-1.921-3.9 7.2 7.2 0 0 0-4.84-1.638 7.533 7.533 0 0 0-4.706 1.311 4.125 4.125 0 0 0-1.7 3.425 3.342 3.342 0 0 0 1.579 3.008 19.423 19.423 0 0 0 5.7 1.936 29.72 29.72 0 0 1 6.687 2.2 9.754 9.754 0 0 1 3.8 3.083 7.58 7.58 0 0 1 1.236 4.393 8.248 8.248 0 0 1-3.455 6.925A14.493 14.493 0 0 1 531.1.6a16.229 16.229 0 0 1-6.851-1.37 11.142 11.142 0 0 1-4.662-3.83 9.225 9.225 0 0 1-1.687-5.318h5.51a5.7 5.7 0 0 0 2.219 4.393A8.608 8.608 0 0 0 531.1-3.9a8.886 8.886 0 0 0 5.019-1.266 3.89 3.89 0 0 0 1.89-3.382zm36.04-34.819 14.173 35.385L602.4-43.367h7.417V0H604.1v-16.888l.536-18.229L590.4 0h-4.378l-14.207-35.027.566 18.139V0h-5.719v-43.367zM617.6-16.412a19.036 19.036 0 0 1 1.862-8.519 13.887 13.887 0 0 1 5.183-5.838 14.108 14.108 0 0 1 7.58-2.055 13.591 13.591 0 0 1 10.648 4.557q4.066 4.557 4.066 12.123v.387a19.2 19.2 0 0 1-1.8 8.444 13.683 13.683 0 0 1-5.153 5.823A14.27 14.27 0 0 1 632.279.6a13.557 13.557 0 0 1-10.618-4.557Q617.6-8.519 617.6-16.024zm5.54.655a13.787 13.787 0 0 0 2.487 8.608 7.959 7.959 0 0 0 6.652 3.249 7.911 7.911 0 0 0 6.672-3.291q2.472-3.291 2.472-9.219a13.763 13.763 0 0 0-2.517-8.59 8 8 0 0 0-6.686-3.3 7.912 7.912 0 0 0-6.583 3.247q-2.502 3.253-2.502 9.297zm35.921-16.471.179 4.051a11.744 11.744 0 0 1 9.65-4.646q10.216 0 10.306 11.527V0h-5.51v-21.326q-.03-3.485-1.594-5.153a6.386 6.386 0 0 0-4.87-1.668 7.953 7.953 0 0 0-4.706 1.43 9.708 9.708 0 0 0-3.157 3.753V0h-5.51v-32.228zM693.488 0h-5.51v-32.228h5.51zm-5.957-40.776a3.289 3.289 0 0 1 .819-2.264 3.075 3.075 0 0 1 2.427-.923 3.123 3.123 0 0 1 2.442.923 3.255 3.255 0 0 1 .834 2.264 3.147 3.147 0 0 1-.834 2.234 3.18 3.18 0 0 1-2.442.894 3.131 3.131 0 0 1-2.427-.894 3.18 3.18 0 0 1-.819-2.234zm22.25.745v7.8h6.019v4.259h-6.02v20.015a4.473 4.473 0 0 0 .8 2.908 3.385 3.385 0 0 0 2.74.969 13.341 13.341 0 0 0 2.621-.357V0a16.069 16.069 0 0 1-4.225.6 6.862 6.862 0 0 1-5.57-2.234 9.6 9.6 0 0 1-1.876-6.344v-19.99h-5.87v-4.259h5.868v-7.8zm10.4 23.62a19.036 19.036 0 0 1 1.862-8.519 13.887 13.887 0 0 1 5.183-5.838 14.108 14.108 0 0 1 7.58-2.055 13.591 13.591 0 0 1 10.648 4.557q4.066 4.557 4.066 12.123v.387a19.2 19.2 0 0 1-1.8 8.444 13.683 13.683 0 0 1-5.153 5.823A14.27 14.27 0 0 1 734.859.6a13.557 13.557 0 0 1-10.618-4.557q-4.066-4.557-4.066-12.063zm5.54.655a13.787 13.787 0 0 0 2.479 8.608 7.959 7.959 0 0 0 6.659 3.248 7.911 7.911 0 0 0 6.672-3.291Q744-10.484 744-16.412A13.763 13.763 0 0 0 741.487-25a8 8 0 0 0-6.687-3.3 7.912 7.912 0 0 0-6.583 3.247q-2.502 3.253-2.502 9.297zM772-27.283a16.513 16.513 0 0 0-2.71-.208q-5.421 0-7.357 4.617V0h-5.51v-32.228h5.361l.089 3.723a8.58 8.58 0 0 1 7.685-4.319 5.629 5.629 0 0 1 2.442.417zM783.052 0h-5.51v-32.228h5.51zm-5.957-40.776a3.289 3.289 0 0 1 .819-2.264 3.075 3.075 0 0 1 2.427-.923 3.123 3.123 0 0 1 2.442.923 3.255 3.255 0 0 1 .834 2.264 3.147 3.147 0 0 1-.834 2.234 3.18 3.18 0 0 1-2.442.894 3.131 3.131 0 0 1-2.427-.894 3.18 3.18 0 0 1-.819-2.234zm19.986 8.548.179 4.051a11.744 11.744 0 0 1 9.65-4.646q10.216 0 10.306 11.527V0h-5.51v-21.326q-.03-3.485-1.594-5.153a6.386 6.386 0 0 0-4.87-1.668 7.953 7.953 0 0 0-4.706 1.43 9.708 9.708 0 0 0-3.157 3.753V0h-5.51v-32.228zm27.134 15.846q0-7.536 3.485-11.989a11.145 11.145 0 0 1 9.233-4.453 11.086 11.086 0 0 1 9.2 4.17l.268-3.574h5.034V-.774q0 6.255-3.708 9.859t-9.963 3.6a16.575 16.575 0 0 1-6.821-1.489 11.742 11.742 0 0 1-5.093-4.081l2.859-3.306a10.775 10.775 0 0 0 8.667 4.378 8.443 8.443 0 0 0 6.27-2.264 8.652 8.652 0 0 0 2.254-6.37v-2.77A11.325 11.325 0 0 1 836.874.6a11.008 11.008 0 0 1-9.159-4.557q-3.5-4.562-3.5-12.425zm5.54.625q0 5.451 2.234 8.563a7.258 7.258 0 0 0 6.255 3.113 8.072 8.072 0 0 0 7.656-4.735V-23.53a8.166 8.166 0 0 0-7.6-4.617 7.324 7.324 0 0 0-6.285 3.127q-2.26 3.128-2.26 9.264z" transform="translate(84.966 133.963)" style="fill:url(#1qune990pa)"/>
</svg>
