<svg xmlns="http://www.w3.org/2000/svg" width="169" height="168" viewBox="0 0 169 168">
    <path d="M0 0h168v168H0z"/>
    <g data-name="bg_pattern" style="opacity:.4">
        <g data-name="그룹 1207">
            <path data-name="사각형 303" transform="rotate(-90 91.898 74.568)" style="fill:#103e62" d="M0 0h166.466v.584H0z"/>
            <path data-name="사각형 304" transform="rotate(-90 100.21 66.256)" style="fill:#103e62" d="M0 0h166.466v.584H0z"/>
            <path data-name="사각형 305" transform="rotate(-90 108.521 57.945)" style="fill:#103e62" d="M0 0h166.466v.584H0z"/>
            <path data-name="사각형 306" transform="rotate(-90 116.832 49.634)" style="fill:#103e62" d="M0 0h166.466v.584H0z"/>
            <path data-name="사각형 307" transform="rotate(-90 124.997 41.47)" style="fill:#103e62" d="M0 0h166.466v1.174H0z"/>
            <path data-name="사각형 308" transform="rotate(-90 133.455 33.011)" style="fill:#103e62" d="M0 0h166.466v.584H0z"/>
            <path data-name="사각형 309" transform="rotate(-90 141.766 24.7)" style="fill:#103e62" d="M0 0h166.466v.584H0z"/>
            <path data-name="사각형 310" transform="rotate(-90 150.079 16.387)" style="fill:#103e62" d="M0 0h166.466v.585H0z"/>
            <path data-name="사각형 311" transform="rotate(-90 158.39 8.076)" style="fill:#103e62" d="M0 0h166.466v.584H0z"/>
            <path data-name="사각형 312" transform="rotate(-90 166.233 .233)" style="fill:#103e62" d="M0 0h166.466v2.932H0z"/>
            <path data-name="사각형 908" transform="rotate(-90 83.767 82.699)" style="fill:#103e62" d="M0 0h166.466v2.932H0z"/>
            <path data-name="사각형 599" transform="rotate(-90 8.959 7.959)" style="fill:#103e62" d="M0 0h.584v167.932H0z"/>
            <path data-name="사각형 600" transform="rotate(-90 17.27 16.27)" style="fill:#103e62" d="M0 0h.585v167.932H0z"/>
            <path data-name="사각형 601" transform="rotate(-90 25.58 24.58)" style="fill:#103e62" d="M0 0h.584v167.932H0z"/>
            <path data-name="사각형 602" transform="rotate(-90 33.893 32.892)" style="fill:#103e62" d="M0 0h.584v167.932H0z"/>
            <path data-name="사각형 603" transform="rotate(-90 42.352 41.352)" style="fill:#103e62" d="M0 0h1.168v167.932H0z"/>
            <path data-name="사각형 604" transform="rotate(-90 50.514 49.514)" style="fill:#103e62" d="M0 0h.584v167.932H0z"/>
            <path data-name="사각형 605" transform="rotate(-90 58.826 57.826)" style="fill:#103e62" d="M0 0h.584v167.932H0z"/>
            <path data-name="사각형 606" transform="rotate(-90 67.139 66.138)" style="fill:#103e62" d="M0 0h.584v167.932H0z"/>
            <path data-name="사각형 607" transform="rotate(-90 75.449 74.448)" style="fill:#103e62" d="M0 0h.585v167.932H0z"/>
            <path data-name="사각형 608" transform="rotate(-90 84.466 83.466)" style="fill:#103e62" d="M0 0h2.932v167.932H0z"/>
            <path data-name="사각형 909" transform="rotate(-90 1.966 .966)" style="fill:#103e62" d="M0 0h2.932v167.932H0z"/>
        </g>
        <g data-name="그룹 539">
            <path data-name="사각형 750" transform="translate(166 157)" style="fill:#094c85" d="M0 0h3v11H0z"/>
            <path data-name="사각형 751" transform="rotate(-90 163 5)" style="fill:#094c85" d="M0 0h3v11H0z"/>
        </g>
        <g data-name="그룹 1392">
            <path data-name="사각형 750" style="fill:#094c85" d="M0 0h3v11H0z" transform="translate(1 157)"/>
            <path data-name="사각형 751" transform="rotate(-90 84.5 83.5)" style="fill:#094c85" d="M0 0h3v11H0z"/>
        </g>
        <g data-name="그룹 1393">
            <path data-name="사각형 750" style="fill:#094c85" d="M0 0h3v11H0z" transform="translate(1)"/>
            <path data-name="사각형 751" transform="rotate(90 6 6)" style="fill:#094c85" d="M0 0h3v11H0z"/>
        </g>
        <g data-name="그룹 1394">
            <path data-name="사각형 750" transform="translate(166)" style="fill:#094c85" d="M0 0h3v11H0z"/>
            <path data-name="사각형 751" transform="rotate(90 84.5 84.5)" style="fill:#094c85" d="M0 0h3v11H0z"/>
        </g>
    </g>
</svg>
