<svg id="icon_temperature_yellow" xmlns="http://www.w3.org/2000/svg" width="152" height="152" viewBox="0 0 152 152">
  <defs>
    <style>
      .cls-1, .cls-2 {
        fill: #fbffc5;
      }

      .cls-1 {
        opacity: 0;
      }
    </style>
  </defs>
  <rect id="사각형_884" data-name="사각형 884" class="cls-1" width="152" height="152"/>
  <path id="패스_269" data-name="패스 269" class="cls-2" d="M4492.186,1647.712H4463.12a2.13,2.13,0,0,0-1.468.58l-19.293,18.395v-38.769a8.314,8.314,0,0,0-16.61,0v54.6l-21.621,20.615h-24.053a1.982,1.982,0,1,0,0,3.959h24.914a2.131,2.131,0,0,0,1.468-.58l19.292-18.395v16.869q-.533.253-1.048.537a18.4,18.4,0,0,0-6.058,5.354,17.139,17.139,0,0,0-3.273,10.07c0,9.823,8.381,17.815,18.685,17.815s18.686-7.991,18.686-17.815a17.076,17.076,0,0,0-2.519-8.933q-.354-.58-.755-1.138a18.465,18.465,0,0,0-7.106-5.891v-32.7l21.621-20.615h28.206a1.982,1.982,0,1,0,0-3.959Zm-62.284,75.219a5.945,5.945,0,1,1,6.229-5.938A6.092,6.092,0,0,1,4429.9,1722.931Zm8.3-52.286-8.3,7.918v-50.646a4.157,4.157,0,0,1,8.3,0Z" transform="translate(-4359.999 -1603)"/>
</svg>
