<svg xmlns="http://www.w3.org/2000/svg" width="152" height="152" viewBox="0 0 152 152">
    <g data-name="그룹 489">
        <path data-name="빼기 5" d="M34.344 97.083A34.3 34.3 0 0 1 0 62.756c0-4.324 1.805-10.314 5.366-17.8a189.573 189.573 0 0 1 11.806-20.688C25.625 11.156 34.258.11 34.344 0l.02.024c.906 1.163 9.087 11.733 17.152 24.243a189.573 189.573 0 0 1 11.807 20.685c3.561 7.489 5.366 13.479 5.366 17.8a34.312 34.312 0 0 1-34.345 34.331zm-3.2-47.372c-3.447 0-10.064.29-15.644 2.233C8.861 54.258 5.493 58.2 5.493 63.654a28.85 28.85 0 0 0 57.7 0c0-5.456-3.367-9.4-10.008-11.709C47.6 50 40.989 49.712 37.542 49.712c-1.931 0-3.187.088-3.2.089s-1.242-.09-3.195-.09z" style="fill:#77d6e6" transform="translate(42 27)"/>
    </g>
</svg>
