<svg xmlns="http://www.w3.org/2000/svg" width="195.538" height="85.394" viewBox="0 0 195.538 85.394">
    <g data-name="그룹 1337" transform="translate(-50 -827.139)">
        <g data-name="그룹 1335">
            <rect data-name="사각형 827" width="20.9" height="3.065" rx=".59" transform="translate(72.409 871.068)" style="fill:#92839a"/>
        </g>
        <g data-name="그룹 1336">
            <path data-name="패스 482" d="M138.274 845.581v24.927c-.942-2.6-2.91-5.937-2.91-12.464s1.968-9.863 2.91-12.463z" style="opacity:.7;fill:#3b4c71"/>
            <path data-name="패스 483" d="M138.274 836.48v9.1c-.942 2.6-2.91 5.936-2.91 12.463s1.968 9.863 2.91 12.464v38.263H62.393v-72.29zm-62.767 64.693a.984.984 0 0 0 .983.984h14.262a.984.984 0 0 0 .983-.984v-57.157a.983.983 0 0 0-.983-.983H76.49a.983.983 0 0 0-.983.983z" style="fill:#85728c"/>
        </g>
        <path data-name="패스 484" d="M136.954 846.774a23.843 23.843 0 0 0 1.32-4.295h.491a.787.787 0 0 1 .787.787 11.1 11.1 0 0 1-1.143 4.108 26.342 26.342 0 0 0 0 21.341 11.089 11.089 0 0 1 1.143 4.107.787.787 0 0 1-.787.787h-.491a23.836 23.836 0 0 0-1.32-4.294 27.908 27.908 0 0 1 0-22.541z" style="fill:#463f6a"/>
        <path data-name="패스 485" d="M74.327 838.176h-2.091a.984.984 0 0 0-.983.984v69.611h3.074z" style="fill:#414d83"/>
        <path data-name="패스 486" d="M95.4 838.176H74.2a.984.984 0 0 0-.983.984v69.611h23.166V839.16a.985.985 0 0 0-.983-.984zm-3.664 63a.984.984 0 0 1-.983.984H76.49a.984.984 0 0 1-.983-.984v-57.16a.983.983 0 0 1 .983-.983h14.262a.983.983 0 0 1 .983.983z" style="fill:#4e5d90"/>
        <path data-name="패스 487" d="M94.284 839.75H75.311a.984.984 0 0 0-.984.984v68.037h20.94v-68.037a.984.984 0 0 0-.983-.984zm-2.549 61.423a.984.984 0 0 1-.983.984H76.49a.984.984 0 0 1-.983-.984v-57.157a.983.983 0 0 1 .983-.983h14.262a.983.983 0 0 1 .983.983z" style="fill:#a897a8"/>
        <rect data-name="사각형 828" width="16.229" height="59.124" rx=".984" transform="translate(75.507 843.033)" style="opacity:.7;fill:#3b4c71"/>
        <path data-name="패스 488" d="M90.752 843.033h-.664a.984.984 0 0 1 .984.983v57.157a.985.985 0 0 1-.984.984h.664a.984.984 0 0 0 .983-.984v-57.157a.983.983 0 0 0-.983-.983z" style="fill:#92839a"/>
        <path data-name="패스 489" d="M94.284 839.75H94.1v69.021h1.171v-68.037a.984.984 0 0 0-.987-.984z" style="fill:#414d83"/>
    </g>
    <path data-name="패스 490" d="M136.68 846.774a23.884 23.884 0 0 0 1.594-4.295h.408a.832.832 0 0 1 .87.787 10.286 10.286 0 0 1-1.263 4.108 24.048 24.048 0 0 0 0 21.341 10.277 10.277 0 0 1 1.263 4.107.831.831 0 0 1-.87.787h-.408a23.878 23.878 0 0 0-1.594-4.294 25.49 25.49 0 0 1 0-22.541z" style="fill:#eeecf0" transform="translate(-50 -827.139)"/>
    <g data-name="그룹 1341" transform="translate(-50 -827.139)">
        <rect data-name="사각형 829" width="115.633" height="3.762" rx=".984" transform="translate(50 908.771)" style="fill:#9e8299"/>
        <rect data-name="사각형 830" width="100.683" height="3.762" rx=".984" transform="translate(50 832.718)" style="fill:#6f87b7"/>
        <path data-name="패스 491" d="M89.965 872.035c-5.126 0-9.334-1.421-12.171-4.109a14.248 14.248 0 0 1 0-19.764c2.837-2.688 7.045-4.109 12.171-4.109h48.309v-7.573H62.393v72.291h75.881v-36.736z" style="fill:#fcbd45"/>
        <path data-name="사각형 831" transform="translate(62.393 899.575)" style="fill:#c6bbc6" d="M0 0h75.881v9.196H0z"/>
        <g data-name="그룹 1338">
            <path data-name="사각형 832" transform="translate(62.393 886.149)" style="fill:#eeecf0" d="M0 0h75.881v4.475H0z"/>
            <path data-name="사각형 833" transform="translate(62.393 895.099)" style="fill:#eeecf0" d="M0 0h75.881v4.475H0z"/>
        </g>
        <g data-name="그룹 1340" style="opacity:.7">
            <path data-name="패스 492" d="M89.965 844.053c-5.126 0-9.334 1.421-12.171 4.109a14.248 14.248 0 0 0 0 19.764c2.837 2.688 7.045 4.109 12.171 4.109H105.5v-5.524c0-2.694 1.922-4.885 4.284-4.885h13.619c2.362 0 4.284 2.191 4.284 4.885v5.524h10.582v-27.982z" style="fill:#65859e"/>
            <g data-name="그룹 1339">
                <path data-name="패스 493" d="m104.864 844.053-25.282 25.282a18.784 18.784 0 0 0 10.383 2.7h2.4l27.982-27.982z" style="fill:#759cb1"/>
                <path data-name="패스 494" d="M138.274 859.227v-12.86l-15.259 15.259h.393c2.362 0 4.284 2.191 4.284 4.885v3.3z" style="fill:#759cb1"/>
                <path data-name="패스 495" d="M92.216 844.053 74.3 861.967a12.544 12.544 0 0 0 2.758 5.2l23.111-23.112z" style="fill:#759cb1"/>
                <path data-name="패스 496" d="M138.274 864.759 131 872.035h7.276z" style="fill:#759cb1"/>
            </g>
        </g>
        <path data-name="패스 497" d="M105.364 872.035h-2.754a.59.59 0 0 0 .59-.59v-4.934c0-3.567 2.623-6.459 5.858-6.459h13.619c3.235 0 5.858 2.892 5.858 6.459v4.934a.59.59 0 0 0 .59.59h-2.754a.59.59 0 0 0 .59-.59v-4.934c0-2.694-1.922-4.885-4.284-4.885h-13.619c-2.363 0-4.284 2.191-4.284 4.885v4.934a.59.59 0 0 0 .59.59z" style="fill:#d5d1da"/>
        <path data-name="패스 498" d="M138.437 872.035h-8.581a.59.59 0 0 1-.59-.59v-4.934c0-3.567-2.623-6.459-5.858-6.459h-13.619c-3.235 0-5.858 2.892-5.858 6.459v4.934a.59.59 0 0 1-.59.59H89.965c-5.126 0-9.334-1.421-12.171-4.109a14.248 14.248 0 0 1 0-19.764c2.837-2.688 7.045-4.109 12.171-4.109h48.472a.809.809 0 0 0 .817-.709.788.788 0 0 0-.784-.865H89.965c-5.536 0-10.119 1.571-13.254 4.541a15.817 15.817 0 0 0 0 22.049c3.135 2.97 7.718 4.54 13.254 4.54h48.505a.788.788 0 0 0 .784-.864.81.81 0 0 0-.817-.71zm-32.342 0a.59.59 0 0 1-.59-.59v-4.934c0-2.694 1.922-4.885 4.284-4.885h13.619c2.362 0 4.284 2.191 4.284 4.885v4.934a.59.59 0 0 1-.59.59z" style="fill:#eeecf0"/>
        <path data-name="패스 499" d="M128.479 877.346h-23.761a.787.787 0 0 1-.787-.786v-2.951h25.335v2.951a.786.786 0 0 1-.787.786z" style="fill:#ded4db;mix-blend-mode:multiply;isolation:isolate"/>
        <path data-name="패스 500" d="M130.881 873.609h-26.163a.787.787 0 0 1-.787-.787.788.788 0 0 1 .787-.787h26.163a.788.788 0 0 1 .787.787.787.787 0 0 1-.787.787z" style="fill:#d5d1da"/>
        <path data-name="사각형 834" transform="translate(62.393 836.48)" style="fill:#ded4db;mix-blend-mode:multiply;isolation:isolate" d="M0 0h75.881v4.033H0z"/>
    </g>
    <g data-name="그룹 1342" transform="translate(-50 -827.139)">
        <path data-name="패스 501" d="M130.257 834.574a.428.428 0 0 1-.381-.388l-.153-1.727 1.5.158-.511 1.658a.428.428 0 0 1-.455.299z" style="fill:#dad1d9"/>
        <rect data-name="사각형 835" width="2.307" height="2.729" rx=".295" transform="translate(124.025 833.234)" style="fill:#886883"/>
        <rect data-name="사각형 836" width=".639" height="2.729" rx=".295" transform="translate(124.025 833.234)" style="fill:#7d5b77"/>
        <path data-name="패스 502" d="M125.18 835.723a.186.186 0 0 0 .233.179l5-1.321a.487.487 0 0 0 .32-.489.466.466 0 0 0-.382-.5l-4.977-.345a.185.185 0 0 0-.2.185z" style="fill:#c6bbc6"/>
        <path data-name="패스 503" d="m127.355 831.08.351-3.317a.7.7 0 0 1 .767-.62l4.554.481a.7.7 0 0 1 .621.767l-.351 3.316z" style="fill:#dad1d9"/>
        <path data-name="패스 504" d="m132.592 832.762-4.768-.5.238-2.249a.59.59 0 0 1 .649-.525l3.594.38a.59.59 0 0 1 .525.649z" style="fill:#b9acba"/>
        <path data-name="패스 505" d="m127.526 829.467-.32 3.023a.3.3 0 0 0 .263.324.294.294 0 0 0 .324-.262l.269-2.543a.59.59 0 0 1 .649-.525l3.594.38a.59.59 0 0 1 .525.649l-.269 2.543a.3.3 0 0 0 .263.324.294.294 0 0 0 .324-.262l.32-3.023a.7.7 0 0 0-.621-.768l-4.554-.481a.7.7 0 0 0-.767.621z" style="fill:#e9e2e7"/>
        <path data-name="패스 506" d="M131.166 831.124a1.225 1.225 0 1 1-1.089-1.347 1.225 1.225 0 0 1 1.089 1.347z" style="fill:#5b3d55"/>
        <path data-name="패스 507" d="M132.655 830.436a.354.354 0 1 1-.316-.389.356.356 0 0 1 .316.389z" style="fill:#d32739"/>
        <path data-name="패스 508" d="M129.664 834.511a.427.427 0 0 1-.381-.387l-.153-1.728 1.5.159-.511 1.657a.427.427 0 0 1-.455.299z" style="fill:#e9e2e7"/>
        <path data-name="패스 509" d="M130.053 830a1 1 0 1 0 .89 1.1 1 1 0 0 0-.89-1.1zm-.171 1.621a.629.629 0 1 1 .692-.56.63.63 0 0 1-.692.56z" style="fill:#775a70"/>
        <path data-name="패스 510" d="M130.014 830.369a.629.629 0 1 0 .56.692.63.63 0 0 0-.56-.692zm-.1.968a.344.344 0 1 1 .378-.306.344.344 0 0 1-.38.306z" style="fill:#4a3897"/>
        <path data-name="패스 511" d="M129.984 830.653a.344.344 0 1 0 .306.378.344.344 0 0 0-.306-.378z" style="fill:#4334c4"/>
        <path data-name="패스 512" d="M129.944 831.033a.143.143 0 1 1 .158-.127.144.144 0 0 1-.158.127z" style="fill:#9e87eb"/>
    </g>
    <g data-name="그룹 1343" transform="translate(-50 -827.139)">
        <rect data-name="사각형 837" width="3.048" height="7.879" rx=".373" transform="translate(64.694 864.998)" style="fill:#aca0af"/>
        <path data-name="패스 513" d="M65.9 865h1.119v-19.184a1.482 1.482 0 0 0-1.481-1.481h-4.9v1.119h4.9a.363.363 0 0 1 .362.362z" style="fill:#9f90a1"/>
        <rect data-name="사각형 838" width="9.978" height="30.244" rx=".865" transform="translate(56.506 843.145)" style="fill:#4b3757"/>
        <rect data-name="사각형 839" width="9.978" height="30.244" rx=".865" transform="translate(55.387 843.145)" style="fill:#5c4b6c"/>
        <rect data-name="사각형 840" width="5.416" height="7.739" rx=".649" transform="translate(57.555 846.659)" style="fill:#4b3757"/>
        <path data-name="패스 514" d="M58.038 847.1h2.225c1.325 0 2.4 1.534 2.4 3.427s-1.074 3.428-2.4 3.428h-2.225z" style="fill:#6a5a7a"/>
        <path data-name="패스 515" d="M55.639 850.528c0 1.893 1.074 3.428 2.4 3.428s2.4-1.535 2.4-3.428-1.074-3.427-2.4-3.427-2.4 1.534-2.4 3.427z" style="fill:#4b3757"/>
        <path data-name="패스 516" d="M59.333 847.642a4.324 4.324 0 0 1 0 5.772 3.3 3.3 0 0 1 0-5.772z" style="fill:#e44452"/>
        <rect data-name="사각형 841" width="5.416" height="7.739" rx=".649" transform="translate(57.555 854.398)" style="fill:#4b3757"/>
        <path data-name="패스 517" d="M58.038 854.84h2.225c1.325 0 2.4 1.534 2.4 3.427s-1.074 3.428-2.4 3.428h-2.225z" style="fill:#6a5a7a"/>
        <path data-name="패스 518" d="M55.639 858.267c0 1.893 1.074 3.428 2.4 3.428s2.4-1.535 2.4-3.428-1.074-3.427-2.4-3.427-2.4 1.534-2.4 3.427z" style="fill:#4b3757"/>
        <path data-name="패스 519" d="M59.333 855.381a4.324 4.324 0 0 1 0 5.772 3.3 3.3 0 0 1 0-5.772z" style="fill:#ffbe27"/>
        <rect data-name="사각형 842" width="5.416" height="7.739" rx=".649" transform="translate(57.555 862.136)" style="fill:#4b3757"/>
        <path data-name="패스 520" d="M58.038 862.578h2.225c1.325 0 2.4 1.535 2.4 3.428s-1.074 3.427-2.4 3.427h-2.225z" style="fill:#6a5a7a"/>
        <path data-name="패스 521" d="M55.639 866.006c0 1.893 1.074 3.427 2.4 3.427s2.4-1.534 2.4-3.427-1.074-3.428-2.4-3.428-2.4 1.535-2.4 3.428z" style="fill:#4b3757"/>
        <path data-name="패스 522" d="M59.333 863.12a4.324 4.324 0 0 1 0 5.772 3.3 3.3 0 0 1 0-5.772z" style="fill:#8fbb68"/>
    </g>
    <g data-name="그룹 1344" transform="translate(-50 -827.139)">
        <path data-name="패스 523" d="M149.926 869.5h-8.759a.373.373 0 0 0-.373.373v.069h9.132z" style="fill:#7a93c2"/>
        <path data-name="패스 524" d="M149.926 869.945h-9.132c-.225 0-.425.207-.5.517l-.321 1.3a3.536 3.536 0 0 0-.1.852v36.161h10.057z" style="fill:#d1c8d1"/>
        <path data-name="패스 525" d="M149.926 869.945h-9.132c-.225 0-.425.207-.5.517l-.321 1.3a3.485 3.485 0 0 0-.076.412h10.031z" style="fill:#c2b5c1"/>
        <path data-name="사각형 843" transform="translate(139.869 875.92)" style="fill:#809ecc" d="M0 0h8.716v32.851H0z"/>
        <path data-name="패스 526" d="M156.739 869.945h-7.186a.607.607 0 0 0-.526.517l-.335 1.3a3.4 3.4 0 0 0-.107.852v36.161h9.122V872.61a3.4 3.4 0 0 0-.107-.852l-.336-1.3a.606.606 0 0 0-.525-.513z" style="fill:#c2b5c1"/>
        <path data-name="사각형 844" transform="translate(148.585 875.92)" style="fill:#7a93c2" d="M0 0h9.122v32.851H0z"/>
        <rect data-name="사각형 845" width="7.631" height="26.359" rx=".829" transform="translate(149.33 879.592)" style="fill:#6f87b7"/>
        <path data-name="패스 527" d="M156.366 869.5h-6.44a.373.373 0 0 0-.373.373v.069h7.186v-.069a.373.373 0 0 0-.373-.373z" style="fill:#6f87b7"/>
        <path data-name="패스 528" d="M157.679 872.17a3.3 3.3 0 0 0-.079-.412l-.336-1.3a.606.606 0 0 0-.525-.517h-7.186a.607.607 0 0 0-.526.517l-.335 1.3a3.124 3.124 0 0 0-.079.412z" style="fill:#b5a5b3"/>
        <path data-name="패스 529" d="M146.952 873.141a.548.548 0 0 1 .357.14l.642.542a1.115 1.115 0 0 1 .338.844v4.793a1.115 1.115 0 0 1-.338.844l-.642.542a.548.548 0 0 1-.357.14h-7.785c-.385 0-.7-.441-.7-.985v-5.875c0-.544.311-.985.7-.985z" style="fill:#4b3757"/>
        <path data-name="패스 530" d="m149.539 873.823-.643-.542a.544.544 0 0 0-.356-.14h-1.588a.548.548 0 0 1 .357.14l.642.542a1.115 1.115 0 0 1 .338.844v4.793a1.115 1.115 0 0 1-.338.844l-.642.542a.548.548 0 0 1-.357.14h1.588a.544.544 0 0 0 .356-.14l.643-.542a1.115 1.115 0 0 0 .338-.844v-4.793a1.115 1.115 0 0 0-.338-.844z" style="fill:#3c284a"/>
        <path data-name="패스 531" d="M145.936 877.693v-1.257a.661.661 0 0 1 .212-.513l.933-.753h-7.348l-.934.753a.663.663 0 0 0-.211.513v1.257a.664.664 0 0 0 .211.512l.934.752h7.348l-.933-.752a.661.661 0 0 1-.212-.512z" style="fill:#5c4b6c"/>
        <path data-name="패스 532" d="M147.081 875.17v3.787l-.933-.752a.661.661 0 0 1-.212-.512v-1.257a.661.661 0 0 1 .212-.513z" style="fill:#817390"/>
        <path data-name="패스 533" d="M244.993 879.117H149.5a.629.629 0 0 1-.629-.63v-3.159a.629.629 0 0 1 .629-.629h95.492a.545.545 0 0 1 .545.545v3.328a.545.545 0 0 1-.544.545z" style="fill:#e2dfe5"/>
        <rect data-name="사각형 846" width="4.972" height="1.918" rx=".496" transform="translate(234.641 875.92)" style="fill:#d32739"/>
        <rect data-name="사각형 847" width="4.972" height="1.918" rx=".496" transform="translate(224.526 875.92)" style="fill:#d32739"/>
        <rect data-name="사각형 848" width="4.972" height="1.918" rx=".496" transform="translate(214.411 875.92)" style="fill:#d32739"/>
        <rect data-name="사각형 849" width="4.972" height="1.918" rx=".496" transform="translate(204.296 875.92)" style="fill:#d32739"/>
        <rect data-name="사각형 850" width="4.972" height="1.918" rx=".496" transform="translate(194.181 875.92)" style="fill:#d32739"/>
        <rect data-name="사각형 851" width="4.972" height="1.918" rx=".496" transform="translate(184.066 875.92)" style="fill:#d32739"/>
        <rect data-name="사각형 852" width="4.972" height="1.918" rx=".496" transform="translate(173.951 875.92)" style="fill:#d32739"/>
        <rect data-name="사각형 853" width="4.972" height="1.918" rx=".496" transform="translate(163.836 875.92)" style="fill:#d32739"/>
        <rect data-name="사각형 854" width="4.972" height="1.918" rx=".496" transform="translate(153.721 875.92)" style="fill:#d32739"/>
        <path data-name="패스 534" d="M156.3 870.381h.417c.736 0 1.332.843 1.332 1.884s-.6 1.883-1.332 1.883h-.417c.736 0 1.332-.842 1.332-1.883s-.6-1.884-1.332-1.884z" style="fill:#d1c8d1"/>
        <ellipse data-name="타원 393" cx="1.332" cy="1.884" rx="1.332" ry="1.884" transform="translate(154.964 870.381)" style="fill:#f1edf0"/>
        <path data-name="패스 535" d="M157.325 872.265a1.251 1.251 0 1 1-1.238-1.426 1.342 1.342 0 0 1 1.238 1.426z" style="fill:#d32739"/>
        <path data-name="패스 536" d="M157.118 874.06h-.341a.259.259 0 0 1-.13-.035 1.123 1.123 0 0 0-.49-.166.212.212 0 0 0-.223.2v.639h1.184z" style="fill:#b6a7b5"/>
        <path data-name="패스 537" d="M196.922 870.381h.417c.736 0 1.332.843 1.332 1.884s-.6 1.883-1.332 1.883h-.417c.736 0 1.332-.842 1.332-1.883s-.596-1.884-1.332-1.884z" style="fill:#d1c8d1"/>
        <ellipse data-name="타원 394" cx="1.332" cy="1.884" rx="1.332" ry="1.884" transform="translate(195.59 870.381)" style="fill:#f1edf0"/>
        <path data-name="패스 538" d="M197.951 872.265a1.251 1.251 0 1 1-1.238-1.426 1.342 1.342 0 0 1 1.238 1.426z" style="fill:#d32739"/>
        <path data-name="패스 539" d="M197.744 874.06h-.344a.259.259 0 0 1-.13-.035 1.118 1.118 0 0 0-.49-.166.212.212 0 0 0-.223.2v.639h1.184z" style="fill:#b6a7b5"/>
        <path data-name="패스 540" d="M237.317 870.381h.417c.736 0 1.332.843 1.332 1.884s-.6 1.883-1.332 1.883h-.417c.736 0 1.332-.842 1.332-1.883s-.596-1.884-1.332-1.884z" style="fill:#d1c8d1"/>
        <ellipse data-name="타원 395" cx="1.332" cy="1.884" rx="1.332" ry="1.884" transform="translate(235.985 870.381)" style="fill:#f1edf0"/>
        <path data-name="패스 541" d="M238.346 872.265a1.251 1.251 0 1 1-1.239-1.426 1.342 1.342 0 0 1 1.239 1.426z" style="fill:#d32739"/>
        <path data-name="패스 542" d="M238.139 874.06h-.339a.256.256 0 0 1-.13-.035 1.123 1.123 0 0 0-.49-.166.212.212 0 0 0-.223.2v.639h1.184z" style="fill:#b6a7b5"/>
    </g>
</svg>
