<svg xmlns="http://www.w3.org/2000/svg" width="152" height="152" viewBox="0 0 152 152">
    <g data-name="그룹 480">
        <path data-name="패스 273" d="M980.014 430.913H852.49a2.64 2.64 0 0 0 0 5.281h127.524a2.64 2.64 0 0 0 0-5.281z" transform="translate(-839.85 -312.306)" style="fill:#77d6e6"/>
        <path data-name="패스 274" d="M879.4 425.664a2.64 2.64 0 1 0 0 5.279h72.336a2.64 2.64 0 1 0 0-5.279z" transform="translate(-824.456 -315.309)" style="fill:#77d6e6"/>
        <path data-name="패스 275" d="M853.908 425.363h51.964a2.64 2.64 0 1 0 0-5.279h-51.964a2.64 2.64 0 1 0 0 5.279z" transform="translate(-839.039 -318.502)" style="fill:#77d6e6"/>
    </g>
</svg>
