<svg xmlns="http://www.w3.org/2000/svg" width="152" height="152" viewBox="0 0 152 152">
    <path data-name="패스 230" d="M2900.2 2183.536h-108.092a2.648 2.648 0 0 1 0-5.282H2900.2c6.773 0 12.283-5.924 12.283-13.2s-5.51-13.2-12.283-13.2-12.283 5.923-12.283 13.2a2.463 2.463 0 1 1-4.913 0c0-10.194 7.714-18.486 17.2-18.486s17.2 8.292 17.2 18.486-7.725 18.482-17.204 18.482zm-22.109-29.05c0-10.194-7.714-18.486-17.2-18.486s-17.2 8.292-17.2 18.486a2.463 2.463 0 1 0 4.913 0c0-7.281 5.51-13.2 12.282-13.2s12.283 5.924 12.283 13.2-5.51 13.2-12.283 13.2h-58.957a2.648 2.648 0 0 0 0 5.282h58.957c9.488.005 17.201-8.288 17.201-18.482zm19.652 52.818c0-10.194-7.714-18.486-17.2-18.486h-68.783a2.648 2.648 0 0 0 0 5.282h68.784c6.772 0 12.282 5.924 12.282 13.2s-5.51 13.2-12.282 13.2-12.283-5.924-12.283-13.2a2.463 2.463 0 1 0-4.913 0c0 10.194 7.714 18.486 17.2 18.486s17.192-8.286 17.192-18.486zm-113-26.409a2.554 2.554 0 0 0-2.457-2.641h-9.826a2.648 2.648 0 0 0 0 5.282h9.826a2.554 2.554 0 0 0 2.452-2.636zm9.826-10.563a2.554 2.554 0 0 0-2.457-2.641h-4.913a2.648 2.648 0 0 0 0 5.282h4.913a2.554 2.554 0 0 0 2.452-2.641zm9.826 21.127a2.554 2.554 0 0 0-2.456-2.641h-4.839a2.648 2.648 0 0 0 0 5.282h4.836a2.554 2.554 0 0 0 2.455-2.641z" transform="translate(-2768 -2105)" style="fill:#77d6e6"/>
</svg>
