<svg xmlns="http://www.w3.org/2000/svg" width="152" height="152" viewBox="0 0 152 152">
    <g data-name="그룹 471">
        <path data-name="패스 261" d="m493.661 181.917-9.766 9.765a2.666 2.666 0 1 0 3.771 3.771l9.768-9.765a2.667 2.667 0 0 0-3.772-3.771z" transform="translate(-406.634 -64.209)" style="fill:#77d6e6;stroke:#031e13"/>
        <path data-name="패스 262" d="m471.914 181.917-9.769 9.765a2.666 2.666 0 1 0 3.771 3.771l9.769-9.765a2.666 2.666 0 0 0-3.771-3.771z" transform="translate(-419.419 -64.209)" style="fill:#77d6e6;stroke:#031e13"/>
        <path data-name="패스 264" d="M512.621 171.485a2.666 2.666 0 0 0-3.771 0l-9.765 9.766a2.666 2.666 0 1 0 3.771 3.771l9.765-9.766a2.666 2.666 0 0 0 0-3.771z" transform="translate(-397.707 -70.339)" style="fill:#77d6e6;stroke:#031e13"/>
        <path data-name="패스 265" d="M490.358 171.672a2.666 2.666 0 0 0-3.771 0l-9.766 9.766a2.666 2.666 0 1 0 3.771 3.771l9.766-9.766a2.666 2.666 0 0 0 0-3.771z" transform="translate(-410.793 -70.229)" style="fill:#77d6e6;stroke:#031e13"/>
        <path data-name="패스 266" d="M468.093 171.859a2.666 2.666 0 0 0-3.771 0l-9.765 9.766a2.666 2.666 0 1 0 3.771 3.771l9.765-9.766a2.663 2.663 0 0 0 0-3.771z" transform="translate(-423.878 -70.119)" style="fill:#77d6e6;stroke:#031e13"/>
        <path data-name="Icon ionic-ios-cloud-outline" d="M65.711 13.139a27.85 27.85 0 0 1 27.677 24.824l.274 2.533a2.979 2.979 0 0 0 2.438 2.623l2.51.456a14.248 14.248 0 0 1 8.374 5.042 15.228 15.228 0 0 1 3.468 9.606 15.755 15.755 0 0 1-4.31 10.677 14 14 0 0 1-10.062 4.474H20.74a13.759 13.759 0 0 1-10.016-4.495A15.713 15.713 0 0 1 6.411 58.2 16.269 16.269 0 0 1 9.4 48.869a14.77 14.77 0 0 1 7.689-5.727l2.35-.753a2.989 2.989 0 0 0 2.076-2.784l.046-2.464a11.114 11.114 0 0 1 3.08-7.393 9.41 9.41 0 0 1 6.822-3.057 9.908 9.908 0 0 1 3.719.73l2.533 1.027a2.976 2.976 0 0 0 3.585-1.072l1.552-2.236a27.763 27.763 0 0 1 22.862-12m0-6.389a34.176 34.176 0 0 0-28.158 14.761 16.173 16.173 0 0 0-6.138-1.212c-8.921 0-16.154 7.849-16.291 16.747A22.288 22.288 0 0 0 0 58.2c0 11.455 9.286 21.563 20.74 21.563H96.1c11.454 0 20.74-10.108 20.74-21.562 0-10.2-7.37-19.189-17.09-20.923A34.264 34.264 0 0 0 65.711 6.75z" transform="translate(18 13.25)" style="fill:#77d6e6;stroke:#031e13"/>
    </g>
</svg>
