<svg xmlns="http://www.w3.org/2000/svg" width="152" height="152" viewBox="0 0 152 152">
  <defs>
    <style>
      .cls-1 {
        fill: red;
        opacity: 0;
      }

      .cls-2 {
        fill: #ffcccb;
      }
    </style>
  </defs>
  <g id="icon_wind_red" transform="translate(0.324)">
    <rect id="사각형_885" data-name="사각형 885" class="cls-1" width="152" height="152" transform="translate(-0.324)"/>
    <path id="패스_230" data-name="패스 230" class="cls-2" d="M2900.2,2183.536H2792.108a2.648,2.648,0,0,1,0-5.282H2900.2c6.773,0,12.283-5.924,12.283-13.2s-5.51-13.2-12.283-13.2-12.283,5.923-12.283,13.2a2.463,2.463,0,1,1-4.913,0c0-10.194,7.714-18.486,17.2-18.486s17.2,8.292,17.2,18.486S2909.679,2183.536,2900.2,2183.536Zm-22.109-29.05c0-10.194-7.714-18.486-17.2-18.486s-17.2,8.292-17.2,18.486a2.463,2.463,0,1,0,4.913,0c0-7.281,5.51-13.2,12.282-13.2s12.283,5.924,12.283,13.2-5.51,13.2-12.283,13.2h-58.957a2.648,2.648,0,0,0,0,5.282h58.957C2870.374,2172.973,2878.087,2164.68,2878.087,2154.486Zm19.652,52.818c0-10.194-7.714-18.486-17.2-18.486H2811.76a2.648,2.648,0,0,0,0,5.282h68.784c6.772,0,12.282,5.924,12.282,13.2s-5.51,13.2-12.282,13.2-12.283-5.924-12.283-13.2a2.463,2.463,0,1,0-4.913,0c0,10.194,7.714,18.486,17.2,18.486S2897.74,2217.5,2897.74,2207.3Zm-113-26.409a2.554,2.554,0,0,0-2.457-2.641h-9.826a2.648,2.648,0,0,0,0,5.282h9.826A2.554,2.554,0,0,0,2784.738,2180.9Zm9.826-10.563a2.554,2.554,0,0,0-2.457-2.641h-4.913a2.648,2.648,0,0,0,0,5.282h4.913A2.554,2.554,0,0,0,2794.564,2170.332Zm9.826,21.127a2.554,2.554,0,0,0-2.456-2.641H2797.1a2.648,2.648,0,0,0,0,5.282h4.836A2.554,2.554,0,0,0,2804.391,2191.459Z" transform="translate(-2768 -2105)"/>
  </g>
</svg>
