<svg xmlns="http://www.w3.org/2000/svg" width="94" height="94" viewBox="0 0 94 94">
    <g transform="translate(-2929 -526)">
        <g data-name="타원 14" transform="translate(2936 533)" style="stroke:#fddb00;stroke-width:4px;fill:#010809">
            <circle cx="40" cy="40" r="40" style="stroke:none"/>
            <circle cx="40" cy="40" r="42" style="fill:none"/>
        </g>
        <path data-name="패스 26" d="M48.391 31c0 15.927-10.833 28.838-24.2 28.838S0 46.927 0 31z" transform="translate(2951.657 538)" style="fill:#fddb00"/>
        <path data-name="빼기 7" d="M9689-9799.951h-57v-7h57v7zm-2.5-5a1.5 1.5 0 0 0-1.5 1.5 1.5 1.5 0 0 0 1.5 1.5 1.5 1.5 0 0 0 1.5-1.5 1.5 1.5 0 0 0-1.5-1.499z" transform="translate(-6684.5 10365.951)" style="fill:#fddb00"/>
        <circle data-name="타원 52" cx="10.5" cy="10.5" r="10.5" transform="translate(2965.5 572)" style="fill:#010809"/>
        <path data-name="패스 350" d="M5.5 0A5.5 5.5 0 1 1 0 5.5 5.5 5.5 0 0 1 5.5 0z" transform="translate(2970.5 577)" style="fill:#fddb00"/>
    </g>
</svg>
