<svg xmlns="http://www.w3.org/2000/svg" width="152" height="152" viewBox="0 0 152 152">
    <g data-name="그룹 495">
        <g data-name="그룹 469">
            <path data-name="패스 248" d="M715.369 315.438H821.8a2.218 2.218 0 0 0 0-4.436H715.369a2.218 2.218 0 1 0 0 4.436z" transform="translate(-696.151 -203.17)" style="fill:#77d6e6"/>
            <path data-name="패스 249" d="M731.955 300.574a2.217 2.217 0 1 0 0 4.434h76.9a2.217 2.217 0 1 0 0-4.434z" transform="translate(-690.841 -206.508)" style="fill:#77d6e6"/>
            <path data-name="패스 250" d="M822.666 292.363a2.216 2.216 0 0 0-2.218-2.218H719.59a2.217 2.217 0 1 0 0 4.434h100.858a2.216 2.216 0 0 0 2.218-2.216z" transform="translate(-694.8 -209.847)" style="fill:#77d6e6"/>
            <path data-name="패스 251" d="M741.167 281.937a2.216 2.216 0 0 0 2.218 2.218h69.446a2.218 2.218 0 0 0 0-4.436h-69.446a2.217 2.217 0 0 0-2.218 2.218z" transform="translate(-687.182 -213.185)" style="fill:#77d6e6"/>
            <path data-name="패스 252" d="M715.369 273.725h53.216a2.217 2.217 0 0 0 0-4.434h-53.216a2.217 2.217 0 1 0 0 4.434z" transform="translate(-696.151 -216.523)" style="fill:#77d6e6"/>
            <path data-name="패스 253" d="M715.369 263.3h92.047a2.217 2.217 0 0 0 0-4.434h-92.047a2.217 2.217 0 1 0 0 4.434z" transform="translate(-696.151 -219.862)" style="fill:#77d6e6"/>
        </g>
        <g data-name="Icon ionic-ios-eye">
            <g data-name="패스 254" style="fill:#77d6e6">
                <path d="M28.714 45.432c-3.182 0-6.121-.478-8.986-1.462-2.57-.883-5.013-2.153-7.47-3.885C7.737 36.9 3.874 32.633.138 28.505l-.001-.002-.003-.002a5.368 5.368 0 0 1 .012-7.206l.01-.011.01-.01c5.292-5.775 9.441-9.513 13.453-12.12 4.949-3.216 9.887-4.779 15.095-4.779 13.198 0 22.746 9.716 28.78 17.029a5.347 5.347 0 0 1 1.237 3.566 5.372 5.372 0 0 1-1.405 3.477c-2.877 3.151-6.818 7.468-11.55 10.894-2.613 1.892-5.158 3.304-7.78 4.316-3.049 1.178-6.172 1.775-9.282 1.775zm.02-27.67c-.11 0-.223.002-.335.007-3.645.166-6.63 3.151-6.796 6.797v.006a7.062 7.062 0 0 0 1.962 5.254 7.092 7.092 0 0 0 5.511 2.212c3.645-.165 6.63-3.151 6.796-6.797v-.006a7.062 7.062 0 0 0-1.961-5.254 7.092 7.092 0 0 0-5.177-2.22z" style="stroke:none" transform="translate(80.7 44.444)"/>
                <path d="M28.714 7.875c-9.507 0-17.005 5.984-25.969 15.763a1.87 1.87 0 0 0-.011 2.52c7.674 8.478 14.439 15.774 25.98 15.774 11.4 0 19.95-9.188 26.028-15.846a1.855 1.855 0 0 0 .06-2.448C48.604 16.13 40.031 7.875 28.713 7.875m.027 27.67c-6.043 0-10.922-5.047-10.634-11.138.248-5.463 4.67-9.886 10.134-10.134 6.268-.284 11.424 4.872 11.128 11.127-.248 5.464-4.671 9.886-10.135 10.135-.164.007-.33.01-.493.01M28.714.876c14.68 0 25 10.449 31.486 18.308 2.802 3.351 2.69 8.364-.29 11.625-6.188 6.777-16.547 18.124-31.196 18.124-14.807 0-23.5-9.604-31.17-18.077a8.863 8.863 0 0 1 .003-11.904C7.507 8.084 16.597.875 28.714.875z" style="fill:#0c171c;stroke:none" transform="translate(80.7 44.444)"/>
            </g>
            <g data-name="패스 255" style="fill:#77d6e6">
                <path d="M20.992 32.132c-.254 0-.511-.01-.765-.029h-.007a11.068 11.068 0 0 1-6.971-3.216 11.068 11.068 0 0 1-3.216-6.972v-.007c-.117-1.56.106-3.099.662-4.574a11.27 11.27 0 0 1 2.303-3.705C15.14 11.323 18.08 10 21.068 10c2.9 0 5.8 1.285 7.957 3.527 2.08 2.16 3.212 4.958 3.108 7.675-.101 2.649-1.29 5.355-3.263 7.425-2.153 2.26-4.951 3.505-7.878 3.505z" style="stroke:none" transform="translate(88.371 48.279)"/>
                <path d="M21.067 13.5c-4.035 0-7.875 3.713-7.544 8.148.284 3.701 3.264 6.681 6.965 6.965 4.435.331 8.003-3.766 8.148-7.545.145-3.778-3.533-7.568-7.569-7.568m0-7c3.847 0 7.667 1.676 10.48 4.6 2.736 2.842 4.224 6.573 4.084 10.236-.297 7.75-7.001 14.296-14.64 14.296l-1.024-.039c-7.114-.545-12.88-6.31-13.424-13.41-.296-3.972 1.122-7.952 3.89-10.935C13.233 8.231 17.11 6.5 21.067 6.5z" style="fill:#0c171c;stroke:none" transform="translate(88.371 48.279)"/>
            </g>
        </g>
    </g>
</svg>
