<svg xmlns="http://www.w3.org/2000/svg" width="110" height="110" viewBox="0 0 110 110">
    <g transform="translate(4 4)">
        <g data-name="타원 13" style="stroke:#fff;stroke-width:4px;fill:#010809">
            <circle cx="51" cy="51" r="51" style="stroke:none"/>
            <circle cx="51" cy="51" r="53" style="fill:none"/>
        </g>
        <path data-name="다각형 44" d="M8.5 0 17 15H0z" transform="rotate(90 4.5 47.5)" style="fill:#010809"/>
        <circle data-name="타원 380" cx="14.775" cy="14.775" r="14.775" transform="translate(23.879 33.736)" style="fill:#fff"/>
        <g data-name="합치기 32" style="fill:#fff">
            <path d="M46.269 35.6H8.359a11.285 11.285 0 0 1-8.032-3.326A11.285 11.285 0 0 1-3 24.242c0-.463.028-.926.084-1.384A14.234 14.234 0 0 1-3 21.316c0-1.934.387-3.813 1.151-5.582a14.223 14.223 0 0 1 3.125-4.54C4.016 8.51 7.656 7.03 11.523 7.03a14.58 14.58 0 0 1 7.428 2.01C21.953 1.92 29.217-3 37.556-3c2.692 0 5.305.504 7.768 1.499A20.067 20.067 0 0 1 51.7 2.605a19.21 19.21 0 0 1 4.33 6.136 18.55 18.55 0 0 1 1.598 7.56c0 1.511-.181 3.01-.54 4.467.359 1.118.54 2.282.54 3.474 0 3.034-1.181 5.886-3.326 8.032a11.284 11.284 0 0 1-8.032 3.327z" style="stroke:none" transform="translate(28.372 42.998)"/>
            <path d="M46.269 32.6a8.359 8.359 0 0 0 7.667-11.692c.45-1.461.691-3.007.691-4.607 0-9.003-7.642-16.3-17.07-16.3-8.744 0-15.952 6.276-16.953 14.368a11.592 11.592 0 0 0-9.081-4.338C5.159 10.031 0 15.084 0 21.316c0 .532.037 1.054.11 1.566a8.359 8.359 0 0 0 8.25 9.719h37.909m0 6H8.359C.442 38.6-6 32.159-6 24.24c0-.472.023-.938.068-1.398A17.188 17.188 0 0 1-6 21.316c0-9.53 7.86-17.285 17.523-17.285 2.11 0 4.162.367 6.079 1.064C21.623-1.584 29.112-6 37.556-6 50.278-6 60.627 4.005 60.627 16.3c0 1.476-.15 2.942-.445 4.378a14.33 14.33 0 0 1 .445 3.563c0 7.917-6.44 14.359-14.358 14.359z" style="fill:#010809;stroke:none" transform="translate(28.372 42.998)"/>
        </g>
        <path data-name="사각형 295" transform="translate(35.5 22.938)" style="fill:#fff" d="M0 0h3v6H0z"/>
        <path data-name="사각형 296" transform="rotate(-49.98 43.474 -3.12)" style="fill:#fff" d="M0 0h3v6H0z"/>
        <path data-name="사각형 298" transform="rotate(-94 29.58 17.763)" style="fill:#fff" d="M0 0h3v6H0z"/>
        <path data-name="사각형 297" transform="scale(-1) rotate(51 10.712 -72.088)" style="fill:#fff" d="M0 0h3v6H0z"/>
    </g>
</svg>
