<svg xmlns="http://www.w3.org/2000/svg" width="166.637" height="138" viewBox="0 0 166.637 138">
    <g data-name="그룹 1348" transform="translate(12.393 61.947)">
        <g data-name="그룹 1346" transform="translate(10.016 34.588)">
            <rect data-name="사각형 855" width="20.9" height="3.065" rx=".59" style="fill:#92839a"/>
        </g>
        <g data-name="그룹 1347">
            <path data-name="패스 543" d="M138.274 733.013v24.927c-.942-2.6-2.91-5.937-2.91-12.464s1.968-9.863 2.91-12.463z" transform="translate(-62.393 -723.912)" style="opacity:.7;fill:#3b4c71"/>
            <path data-name="패스 544" d="M138.274 723.912v9.1c-.942 2.6-2.91 5.937-2.91 12.463s1.968 9.863 2.91 12.464V796.2H62.393v-72.288zM75.507 788.6a.984.984 0 0 0 .983.984h14.262a.984.984 0 0 0 .983-.984v-57.152a.983.983 0 0 0-.983-.983H76.49a.983.983 0 0 0-.983.983z" transform="translate(-62.393 -723.912)" style="fill:#85728c"/>
            <path data-name="패스 545" d="M136.954 734.206a23.86 23.86 0 0 0 1.32-4.294h.491a.786.786 0 0 1 .787.786 11.1 11.1 0 0 1-1.143 4.108 26.341 26.341 0 0 0 0 21.341 11.1 11.1 0 0 1 1.143 4.107.787.787 0 0 1-.787.787h-.491a23.86 23.86 0 0 0-1.32-4.294 27.908 27.908 0 0 1 0-22.541z" transform="translate(-62.393 -723.912)" style="fill:#463f6a"/>
            <path data-name="패스 546" d="M136.68 734.206a23.905 23.905 0 0 0 1.594-4.294h.408a.831.831 0 0 1 .87.786 10.286 10.286 0 0 1-1.263 4.108 24.048 24.048 0 0 0 0 21.341 10.282 10.282 0 0 1 1.263 4.107.831.831 0 0 1-.87.787h-.408a23.905 23.905 0 0 0-1.594-4.294 25.49 25.49 0 0 1 0-22.541z" transform="translate(-62.393 -723.912)" style="fill:#a897a8"/>
        </g>
        <path data-name="패스 547" d="M74.327 725.609h-2.091a.983.983 0 0 0-.983.983V796.2h3.074z" transform="translate(-62.393 -723.912)" style="fill:#414d83"/>
        <path data-name="패스 548" d="M95.4 725.609H74.2a.983.983 0 0 0-.983.983V796.2h23.166v-69.608a.984.984 0 0 0-.983-.983zm-3.664 63a.984.984 0 0 1-.983.984H76.49a.984.984 0 0 1-.983-.984v-57.161a.983.983 0 0 1 .983-.983h14.262a.983.983 0 0 1 .983.983z" transform="translate(-62.393 -723.912)" style="fill:#4e5d90"/>
        <path data-name="패스 549" d="M94.284 727.182H75.311a.984.984 0 0 0-.984.984V796.2h20.94v-68.034a.984.984 0 0 0-.983-.984zM91.735 788.6a.984.984 0 0 1-.983.984H76.49a.984.984 0 0 1-.983-.984v-57.152a.983.983 0 0 1 .983-.983h14.262a.983.983 0 0 1 .983.983z" transform="translate(-62.393 -723.912)" style="fill:#a897a8"/>
        <rect data-name="사각형 856" width="16.229" height="59.124" rx=".984" transform="translate(13.114 6.553)" style="opacity:.7;fill:#3b4c71"/>
        <path data-name="패스 550" d="M90.752 730.465h-.664a.984.984 0 0 1 .984.983V788.6a.985.985 0 0 1-.984.984h.664a.984.984 0 0 0 .983-.984v-57.152a.983.983 0 0 0-.983-.983z" transform="translate(-62.393 -723.912)" style="fill:#92839a"/>
        <path data-name="패스 551" d="M94.284 727.182H94.1V796.2h1.171v-68.034a.984.984 0 0 0-.987-.984z" transform="translate(-62.393 -723.912)" style="fill:#414d83"/>
    </g>
    <g data-name="그룹 1352" transform="translate(0 58.184)">
        <rect data-name="사각형 857" width="115.633" height="3.762" rx=".984" transform="translate(0 76.053)" style="fill:#9e8299"/>
        <rect data-name="사각형 858" width="100.683" height="3.762" rx=".984" style="fill:#6f87b7"/>
        <path data-name="패스 552" d="M89.965 759.467c-5.126 0-9.334-1.42-12.171-4.108a14.249 14.249 0 0 1 0-19.765c2.837-2.688 7.045-4.109 12.171-4.109h48.309v-7.573H62.393V796.2h75.881v-36.733z" transform="translate(-50 -720.15)" style="fill:#fcbd45"/>
        <path data-name="사각형 859" transform="translate(12.393 66.857)" style="fill:#c6bbc6" d="M0 0h75.881v9.196H0z"/>
        <g data-name="그룹 1349">
            <path data-name="사각형 860" transform="translate(12.393 62.382)" style="fill:#eeecf0" d="M0 0h75.881v4.475H0z"/>
            <path data-name="사각형 861" style="fill:#eeecf0" d="M0 0h75.881v4.475H0z" transform="translate(12.393 53.432)"/>
        </g>
        <g data-name="그룹 1351" style="opacity:.7">
            <path data-name="패스 553" d="M89.965 731.485c-5.126 0-9.334 1.421-12.171 4.109a14.249 14.249 0 0 0 0 19.765c2.837 2.688 7.045 4.108 12.171 4.108H105.5v-5.524c0-2.694 1.922-4.885 4.284-4.885h13.619c2.362 0 4.284 2.191 4.284 4.885v5.524h10.582v-27.982z" transform="translate(-50 -720.15)" style="fill:#65859e"/>
            <g data-name="그룹 1350">
                <path data-name="패스 554" d="m104.864 731.485-25.282 25.283a18.792 18.792 0 0 0 10.383 2.7h2.4l27.982-27.982z" transform="translate(-50 -720.15)" style="fill:#759cb1"/>
                <path data-name="패스 555" d="M138.274 746.659V733.8l-15.259 15.259h.393c2.362 0 4.284 2.191 4.284 4.885v3.3z" transform="translate(-50 -720.15)" style="fill:#759cb1"/>
                <path data-name="패스 556" d="M92.216 731.485 74.3 749.4a12.544 12.544 0 0 0 2.758 5.2l23.111-23.112z" transform="translate(-50 -720.15)" style="fill:#759cb1"/>
                <path data-name="패스 557" d="M138.274 752.191 131 759.467h7.276z" transform="translate(-50 -720.15)" style="fill:#759cb1"/>
            </g>
        </g>
        <path data-name="패스 558" d="M105.364 759.467h-2.754a.59.59 0 0 0 .59-.59v-4.934c0-3.567 2.623-6.459 5.858-6.459h13.619c3.235 0 5.858 2.892 5.858 6.459v4.934a.59.59 0 0 0 .59.59h-2.754a.59.59 0 0 0 .59-.59v-4.934c0-2.694-1.922-4.885-4.284-4.885h-13.619c-2.363 0-4.284 2.191-4.284 4.885v4.934a.59.59 0 0 0 .59.59z" transform="translate(-50 -720.15)" style="fill:#d5d1da"/>
        <path data-name="패스 559" d="M138.437 759.467h-8.581a.59.59 0 0 1-.59-.59v-4.934c0-3.567-2.623-6.459-5.858-6.459h-13.619c-3.235 0-5.858 2.892-5.858 6.459v4.934a.59.59 0 0 1-.59.59H89.965c-5.126 0-9.334-1.42-12.171-4.108a14.249 14.249 0 0 1 0-19.765c2.837-2.688 7.045-4.109 12.171-4.109h48.472a.809.809 0 0 0 .817-.709.788.788 0 0 0-.784-.864H89.965c-5.536 0-10.119 1.57-13.254 4.54a15.817 15.817 0 0 0 0 22.049c3.135 2.97 7.718 4.54 13.254 4.54h48.505a.788.788 0 0 0 .784-.864.81.81 0 0 0-.817-.71zm-32.342 0a.59.59 0 0 1-.59-.59v-4.934c0-2.694 1.922-4.885 4.284-4.885h13.619c2.362 0 4.284 2.191 4.284 4.885v4.934a.59.59 0 0 1-.59.59z" transform="translate(-50 -720.15)" style="fill:#eeecf0"/>
        <path data-name="패스 560" d="M128.479 764.779h-23.761a.788.788 0 0 1-.787-.787v-2.951h25.335v2.951a.787.787 0 0 1-.787.787z" transform="translate(-50 -720.15)" style="fill:#ded4db;mix-blend-mode:multiply;isolation:isolate"/>
        <path data-name="패스 561" d="M130.881 761.041h-26.163a.787.787 0 0 1-.787-.787.788.788 0 0 1 .787-.787h26.163a.788.788 0 0 1 .787.787.787.787 0 0 1-.787.787z" transform="translate(-50 -720.15)" style="fill:#d5d1da"/>
        <path data-name="사각형 862" transform="translate(12.393 3.762)" style="fill:#ded4db;mix-blend-mode:multiply;isolation:isolate" d="M0 0h75.881v4.033H0z"/>
    </g>
    <g data-name="그룹 1353" transform="translate(74.025 52.903)">
        <path data-name="패스 562" d="M130.257 722.006a.427.427 0 0 1-.381-.387l-.153-1.728 1.5.158-.511 1.658a.428.428 0 0 1-.455.299z" transform="translate(-124.025 -714.571)" style="fill:#dad1d9"/>
        <rect data-name="사각형 863" width="2.307" height="2.729" rx=".295" transform="translate(0 6.095)" style="fill:#886883"/>
        <rect data-name="사각형 864" width=".639" height="2.729" rx=".295" transform="translate(0 6.095)" style="fill:#7d5b77"/>
        <path data-name="패스 563" d="M125.18 723.155a.185.185 0 0 0 .233.179l5-1.321a.487.487 0 0 0 .32-.489.466.466 0 0 0-.382-.5l-4.977-.345a.185.185 0 0 0-.2.185z" transform="translate(-124.025 -714.571)" style="fill:#c6bbc6"/>
        <path data-name="패스 564" d="m127.355 718.512.351-3.317a.7.7 0 0 1 .767-.62l4.554.481a.7.7 0 0 1 .621.767l-.351 3.317z" transform="translate(-124.025 -714.571)" style="fill:#dad1d9"/>
        <path data-name="패스 565" d="m132.592 720.194-4.768-.5.238-2.25a.59.59 0 0 1 .649-.525l3.594.38a.591.591 0 0 1 .525.649z" transform="translate(-124.025 -714.571)" style="fill:#b9acba"/>
        <path data-name="패스 566" d="m127.526 716.9-.32 3.023a.3.3 0 0 0 .263.324.294.294 0 0 0 .324-.262l.269-2.543a.59.59 0 0 1 .649-.525l3.594.38a.591.591 0 0 1 .525.649l-.269 2.543a.3.3 0 0 0 .263.324.294.294 0 0 0 .324-.262l.32-3.023a.7.7 0 0 0-.621-.767l-4.554-.481a.7.7 0 0 0-.767.62z" transform="translate(-124.025 -714.571)" style="fill:#e9e2e7"/>
        <path data-name="패스 567" d="M131.166 718.556a1.225 1.225 0 1 1-1.089-1.347 1.225 1.225 0 0 1 1.089 1.347z" transform="translate(-124.025 -714.571)" style="fill:#5b3d55"/>
        <path data-name="패스 568" d="M132.655 717.868a.354.354 0 1 1-.316-.389.356.356 0 0 1 .316.389z" transform="translate(-124.025 -714.571)" style="fill:#d32739"/>
        <path data-name="패스 569" d="M129.664 721.943a.427.427 0 0 1-.381-.387l-.153-1.728 1.5.159-.511 1.657a.427.427 0 0 1-.455.299z" transform="translate(-124.025 -714.571)" style="fill:#e9e2e7"/>
        <path data-name="패스 570" d="M130.053 717.432a1 1 0 1 0 .89 1.1 1 1 0 0 0-.89-1.1zm-.171 1.622a.63.63 0 1 1 .692-.561.631.631 0 0 1-.692.561z" transform="translate(-124.025 -714.571)" style="fill:#775a70"/>
        <path data-name="패스 571" d="M130.014 717.8a.63.63 0 1 0 .56.692.63.63 0 0 0-.56-.692zm-.1.968a.344.344 0 1 1 .378-.306.344.344 0 0 1-.38.307z" transform="translate(-124.025 -714.571)" style="fill:#4a3897"/>
        <path data-name="패스 572" d="M129.984 718.085a.344.344 0 1 0 .306.378.344.344 0 0 0-.306-.378z" transform="translate(-124.025 -714.571)" style="fill:#4334c4"/>
        <path data-name="패스 573" d="M129.944 718.465a.143.143 0 1 1 .158-.127.144.144 0 0 1-.158.127z" transform="translate(-124.025 -714.571)" style="fill:#9e87eb"/>
    </g>
    <g data-name="그룹 1354" transform="translate(5.387 68.794)">
        <rect data-name="사각형 865" width="3.048" height="7.879" rx=".373" transform="translate(9.307 21.854)" style="fill:#aca0af"/>
        <path data-name="패스 574" d="M65.9 752.431h1.119v-19.183a1.482 1.482 0 0 0-1.481-1.481h-4.9v1.119h4.9a.363.363 0 0 1 .362.362z" transform="translate(-55.387 -730.577)" style="fill:#9f90a1"/>
        <rect data-name="사각형 866" width="9.978" height="30.244" rx=".865" transform="translate(1.12)" style="fill:#4b3757"/>
        <rect data-name="사각형 867" width="9.978" height="30.244" rx=".865" style="fill:#5c4b6c"/>
        <rect data-name="사각형 868" width="5.416" height="7.739" rx=".649" transform="translate(2.169 3.514)" style="fill:#4b3757"/>
        <path data-name="패스 575" d="M58.038 734.533h2.225c1.325 0 2.4 1.534 2.4 3.427s-1.074 3.428-2.4 3.428h-2.225z" transform="translate(-55.387 -730.577)" style="fill:#6a5a7a"/>
        <path data-name="패스 576" d="M55.639 737.96c0 1.893 1.074 3.428 2.4 3.428s2.4-1.535 2.4-3.428-1.074-3.427-2.4-3.427-2.4 1.534-2.4 3.427z" transform="translate(-55.387 -730.577)" style="fill:#4b3757"/>
        <path data-name="패스 577" d="M59.333 735.075a4.323 4.323 0 0 1 0 5.771 3.3 3.3 0 0 1 0-5.771z" transform="translate(-55.387 -730.577)" style="fill:#e44452"/>
        <rect data-name="사각형 869" width="5.416" height="7.739" rx=".649" transform="translate(2.169 11.253)" style="fill:#4b3757"/>
        <path data-name="패스 578" d="M58.038 742.272h2.225c1.325 0 2.4 1.534 2.4 3.427s-1.074 3.428-2.4 3.428h-2.225z" transform="translate(-55.387 -730.577)" style="fill:#6a5a7a"/>
        <path data-name="패스 579" d="M55.639 745.7c0 1.893 1.074 3.428 2.4 3.428s2.4-1.535 2.4-3.428-1.074-3.427-2.4-3.427-2.4 1.533-2.4 3.427z" transform="translate(-55.387 -730.577)" style="fill:#4b3757"/>
        <path data-name="패스 580" d="M59.333 742.814a4.323 4.323 0 0 1 0 5.771 3.3 3.3 0 0 1 0-5.771z" transform="translate(-55.387 -730.577)" style="fill:#ffbe27"/>
        <rect data-name="사각형 870" width="5.416" height="7.739" rx=".649" transform="translate(2.169 18.992)" style="fill:#4b3757"/>
        <path data-name="패스 581" d="M58.038 750.011h2.225c1.325 0 2.4 1.534 2.4 3.427s-1.074 3.428-2.4 3.428h-2.225z" transform="translate(-55.387 -730.577)" style="fill:#6a5a7a"/>
        <path data-name="패스 582" d="M55.639 753.438c0 1.893 1.074 3.428 2.4 3.428s2.4-1.535 2.4-3.428-1.074-3.427-2.4-3.427-2.4 1.534-2.4 3.427z" transform="translate(-55.387 -730.577)" style="fill:#4b3757"/>
        <path data-name="패스 583" d="M59.333 750.552a4.324 4.324 0 0 1 0 5.772 3.3 3.3 0 0 1 0-5.772z" transform="translate(-55.387 -730.577)" style="fill:#8fbb68"/>
    </g>
    <g data-name="그룹 1355" transform="translate(88.12)">
        <path data-name="패스 584" d="M149.926 756.935h-8.759a.373.373 0 0 0-.373.373v.069h9.132z" transform="translate(-138.12 -661.82)" style="fill:#7a93c2"/>
        <path data-name="패스 585" d="M149.926 757.377h-9.132c-.225 0-.425.207-.5.518l-.321 1.295a3.536 3.536 0 0 0-.1.852V796.2h10.057z" transform="translate(-138.12 -661.965)" style="fill:#d1c8d1"/>
        <path data-name="패스 586" d="M149.926 757.377h-9.132c-.225 0-.425.207-.5.518l-.321 1.295a3.459 3.459 0 0 0-.076.413h10.031z" transform="translate(-138.12 -661.826)" style="fill:#c2b5c1"/>
        <path data-name="사각형 871" transform="translate(1.749 101.387)" style="fill:#809ecc" d="M0 0h8.716v32.851H0z"/>
        <path data-name="패스 587" d="M156.739 757.377h-7.186a.608.608 0 0 0-.526.518l-.335 1.295a3.4 3.4 0 0 0-.107.852V796.2h9.122v-36.158a3.4 3.4 0 0 0-.107-.852l-.336-1.295a.606.606 0 0 0-.525-.518z" transform="translate(-138.12 -661.965)" style="fill:#c2b5c1"/>
        <path data-name="사각형 872" transform="translate(10.465 101.387)" style="fill:#7a93c2" d="M0 0h9.122v32.851H0z"/>
        <rect data-name="사각형 873" width="7.631" height="26.359" rx=".829" transform="translate(11.211 105.059)" style="fill:#6f87b7"/>
        <path data-name="패스 588" d="M156.366 756.935h-6.44a.373.373 0 0 0-.373.373v.069h7.186v-.069a.373.373 0 0 0-.373-.373z" transform="translate(-138.12 -661.82)" style="fill:#6f87b7"/>
        <path data-name="패스 589" d="M157.679 759.6a3.276 3.276 0 0 0-.079-.413l-.336-1.295a.606.606 0 0 0-.525-.518h-7.186a.608.608 0 0 0-.526.518l-.335 1.295a3.1 3.1 0 0 0-.079.413z" transform="translate(-138.12 -661.826)" style="fill:#b5a5b3"/>
        <path data-name="패스 590" d="m207.811 665.586-.265.014-.216 3.494.3.084a1.181 1.181 0 0 0 1.3-.53 2.242 2.242 0 0 0-.08-2.57 1.219 1.219 0 0 0-1.039-.492z" transform="translate(-138.12 -661.462)" style="fill:#d1c8d1"/>
        <path data-name="패스 591" d="M206.6 666.154a1.13 1.13 0 0 1 1.9-.073 2.177 2.177 0 0 1 .077 2.495 1.13 1.13 0 0 1-1.9.073 2.175 2.175 0 0 1-.077-2.495z" transform="translate(-138.12 -661.462)" style="fill:#f1edf0"/>
        <path data-name="패스 592" d="M207.466 665.926c.707.007 1.135.679 1.127 1.472s-.449 1.406-1.156 1.4a1.445 1.445 0 0 1 .029-2.87z" transform="translate(-138.12 -661.462)" style="fill:#d32739"/>
        <path data-name="패스 593" d="M208.8 668.122a.614.614 0 0 0-.527.235.465.465 0 0 0-.1.456l.331.552.715-1.009-.075-.125z" transform="translate(-138.12 -661.462)" style="fill:#b6a7b5"/>
        <path data-name="패스 594" d="m179.237 705.912-.265.014-.216 3.495.3.083a1.178 1.178 0 0 0 1.3-.529 2.242 2.242 0 0 0-.08-2.57 1.216 1.216 0 0 0-1.039-.493z" transform="translate(-138.12 -661.632)" style="fill:#d1c8d1"/>
        <path data-name="패스 595" d="M178.022 706.48a1.13 1.13 0 0 1 1.9-.073A2.175 2.175 0 0 1 180 708.9a1.13 1.13 0 0 1-1.9.073 2.175 2.175 0 0 1-.078-2.493z" transform="translate(-138.12 -661.632)" style="fill:#f1edf0"/>
        <path data-name="패스 596" d="M178.892 706.253c.707.007 1.135.679 1.127 1.471s-.449 1.406-1.156 1.4a1.445 1.445 0 0 1 .029-2.87z" transform="translate(-138.12 -661.633)" style="fill:#d32739"/>
        <path data-name="패스 597" d="M180.23 708.449a.611.611 0 0 0-.527.235.467.467 0 0 0-.1.455l.332.552.714-1.008-.075-.126z" transform="translate(-138.12 -661.639)" style="fill:#b6a7b5"/>
        <path data-name="패스 598" d="m146.564 757.045-1.571.054-3.141 14.276 1.613-.061a.43.43 0 0 0 .062 0h.009a.444.444 0 0 0 .29-.191l5.729-8.087a.814.814 0 0 0 .136-.392l.1-.914a1.355 1.355 0 0 0-.229-.885l-2.411-3.457a.664.664 0 0 0-.587-.343z" transform="translate(-138.12 -661.861)" style="fill:#3c284a"/>
        <path data-name="패스 599" d="M143.992 757.429a.448.448 0 0 1 .277-.19l.644-.134a.648.648 0 0 1 .62.334l2.411 3.456a1.358 1.358 0 0 1 .229.885l-.1.915a.824.824 0 0 1-.136.392l-5.73 8.087c-.222.313-.624.25-.9-.142l-2.956-4.238a1.206 1.206 0 0 1-.092-1.278z" transform="translate(-138.12 -661.861)" style="fill:#4b3757"/>
        <path data-name="패스 600" d="m216.5 665.056-67.411 95.137a.59.59 0 0 1-.955.011l-1.787-2.4a.588.588 0 0 1-.008-.693l67.666-95.5a.349.349 0 0 1 .566-.007l1.919 2.582a.74.74 0 0 1 .01.87z" transform="translate(-138.12 -661.462)" style="fill:#e2dfe5"/>
        <path data-name="패스 601" d="m211.8 669.481-3 4.239a.3.3 0 0 1-.523-.01l-.554-.745a.655.655 0 0 1-.02-.721l3-4.24a.3.3 0 0 1 .523.011l.554.745a.655.655 0 0 1 .02.721z" transform="translate(-138.12 -661.462)" style="fill:#d32739"/>
        <path data-name="패스 602" d="m204.639 679.588-3 4.239a.3.3 0 0 1-.524-.01l-.554-.745a.655.655 0 0 1-.02-.721l3-4.24a.3.3 0 0 1 .524.011l.553.745a.655.655 0 0 1 .021.721z" transform="translate(-138.12 -661.462)" style="fill:#d32739"/>
        <path data-name="패스 603" d="m197.477 689.7-3 4.24a.3.3 0 0 1-.523-.011l-.554-.745a.655.655 0 0 1-.02-.721l3-4.239a.3.3 0 0 1 .523.01l.554.745a.655.655 0 0 1 .02.721z" transform="translate(-138.12 -661.566)" style="fill:#d32739"/>
        <path data-name="패스 604" d="m190.316 699.8-3 4.24a.3.3 0 0 1-.523-.011l-.554-.745a.655.655 0 0 1-.02-.721l3-4.239a.305.305 0 0 1 .524.01l.553.745a.657.657 0 0 1 .02.721z" transform="translate(-138.12 -661.605)" style="fill:#d32739"/>
        <path data-name="패스 605" d="m183.154 709.909-3 4.24a.3.3 0 0 1-.523-.011l-.554-.745a.653.653 0 0 1-.02-.72l3-4.24a.3.3 0 0 1 .523.011l.554.745a.653.653 0 0 1 .02.72z" transform="translate(-138.12 -661.645)" style="fill:#d32739"/>
        <path data-name="패스 606" d="m175.992 720.016-3 4.24a.3.3 0 0 1-.523-.011l-.554-.744a.655.655 0 0 1-.02-.721l3-4.24a.3.3 0 0 1 .523.011l.554.745a.653.653 0 0 1 .02.72z" transform="translate(-138.12 -661.684)" style="fill:#d32739"/>
        <path data-name="패스 607" d="m168.831 730.124-3 4.239a.3.3 0 0 1-.524-.01l-.553-.745a.655.655 0 0 1-.021-.721l3-4.24a.3.3 0 0 1 .524.011l.554.745a.655.655 0 0 1 .02.721z" transform="translate(-138.12 -661.724)" style="fill:#d32739"/>
        <path data-name="패스 608" d="m161.669 740.231-3 4.239a.3.3 0 0 1-.523-.01l-.554-.745a.655.655 0 0 1-.02-.721l3-4.24a.3.3 0 0 1 .523.011l.554.745a.655.655 0 0 1 .02.721z" transform="translate(-138.12 -661.763)" style="fill:#d32739"/>
        <path data-name="패스 609" d="m154.508 750.338-3 4.239a.3.3 0 0 1-.524-.01l-.553-.745a.653.653 0 0 1-.021-.721l3-4.239a.3.3 0 0 1 .524.01l.554.745a.655.655 0 0 1 .02.721z" transform="translate(-138.12 -661.803)" style="fill:#d32739"/>
        <path data-name="패스 610" d="m150.444 746.548-.265.014-.216 3.495.3.083a1.179 1.179 0 0 0 1.3-.529 2.243 2.243 0 0 0-.08-2.571 1.218 1.218 0 0 0-1.039-.492z" transform="translate(-138.12 -661.788)" style="fill:#d1c8d1"/>
        <path data-name="패스 611" d="M149.229 747.116a1.13 1.13 0 0 1 1.9-.073 2.177 2.177 0 0 1 .078 2.495 1.13 1.13 0 0 1-1.9.073 2.175 2.175 0 0 1-.078-2.495z" transform="translate(-138.12 -661.788)" style="fill:#f1edf0"/>
        <path data-name="패스 612" d="M150.1 746.889c.707.007 1.135.679 1.127 1.471s-.449 1.406-1.156 1.4a1.445 1.445 0 0 1 .029-2.87z" transform="translate(-138.12 -661.788)" style="fill:#d32739"/>
        <path data-name="패스 613" d="M151.437 749.085a.611.611 0 0 0-.527.235.467.467 0 0 0-.1.455l.332.552.714-1.008-.075-.126z" transform="translate(-138.12 -661.792)" style="fill:#b6a7b5"/>
        <path data-name="패스 614" d="m144.66 759.44-5.253 7.414a.416.416 0 0 0-.008.486l.568.813a1.121 1.121 0 0 0 .593.432l.977.3 5.253-7.413-1.715-2.459z" transform="translate(-138.12 -661.855)" style="fill:#5c4b6c"/>
        <path data-name="패스 615" d="m145.075 759.012 1.715 2.459-.977-.3a1.128 1.128 0 0 1-.594-.432l-.567-.814a.414.414 0 0 1 .044-.527z" transform="translate(-138.12 -661.833)" style="fill:#817390"/>
    </g>
</svg>
