<svg xmlns="http://www.w3.org/2000/svg" width="2729" height="1896.604" viewBox="0 0 2729 1896.604">
    <defs>
        <radialGradient id="6q4qd1ugqa" cx=".5" cy=".5" r="1.82" gradientUnits="objectBoundingBox">
            <stop offset="0" stop-color="#141414" stop-opacity=".561"/>
            <stop offset=".628" stop-color="#058ea7" stop-opacity=".678"/>
            <stop offset="1" stop-color="#07181c" stop-opacity=".259"/>
        </radialGradient>
    </defs>
    <path d="m200.251 1895.08 13.675-86.438-20.374-116.185-48.389-76.578 35.656 60.734v36.968h-35.656l-35.654-36.968 15.279 52.812L17.828 1637 0 1615.879v-97.7s58.574-182.2 58.574-190.123 12.733-63.373 12.733-63.373 48.389-63.373 53.481-76.578 20.374-66.012 20.374-66.012l48.389-113.546 20.374-63.375v-58.091l15.28-15.841 15.282-21.124s-2.548-36.97 0-23.765 25.467-79.22 28.015-87.139 28.015-23.766 28.015-23.766V686.4l30.561-29.046 71.307-87.141 168.085-169 78.948-44.888L796 151.891 864.227 2.073l-81.409.062s-216.39 171.4-216.39 177.577-58.041-39.15-58.041-39.15l-5.367-43.273 5.368-73.15 2.562-22.828 1306.184-.4L2728.747 0l.253 1896.6z" style="opacity:.9;fill:url(#6q4qd1ugqa)"/>
</svg>
