<svg xmlns="http://www.w3.org/2000/svg" width="7757.173" height="1867.792" viewBox="0 0 7757.173 1867.792">
    <path d="M-3450.007-9931h-89.722v-.166c.16-3.655.989-23.54 1.593-56.161.59-32.52 1.04-84.076-.163-145.026-1.36-68.667-4.5-135.215-9.345-197.8-2.871-37.188-6.379-73.341-10.429-107.455-4.445-37.512-9.66-73.571-15.5-107.175a367.888 367.888 0 0 0-12.591-50.686 373.493 373.493 0 0 0-18.755-46.59 397.345 397.345 0 0 0-23.968-42.61 433.979 433.979 0 0 0-28.219-38.746c-35.4-43.465-81.168-83.368-136.042-118.6a774.655 774.655 0 0 0-68.431-39.058 824.387 824.387 0 0 0-58.432-26.774c-17.533-7.221-31.819-12.358-40.715-15.4-9.626-3.294-15.257-4.928-15.282-4.933v-100.607h.03c1.143-.06 7.358-.418 17.476-1.73a453.769 453.769 0 0 0 46.812-8.747 531.075 531.075 0 0 0 67.6-21.1 532.629 532.629 0 0 0 79.855-38.79 276.15 276.15 0 0 0 30.852-21.125 286.452 286.452 0 0 0 26.937-24.213 307.375 307.375 0 0 0 23.3-26.688 341.1 341.1 0 0 0 19.931-28.548c21.613-34.517 38.851-75.065 51.236-120.517 4.854-17.8 8.972-36.456 12.241-55.453a623.49 623.49 0 0 0 6.115-45.692c2.507-26.022 2.366-42.3 2.363-42.453v-334.948h114.21v390.036c-.041.427-.4 4.363-.509 11.335a295.067 295.067 0 0 0 1.24 30.763 347.311 347.311 0 0 0 7.119 45.217 348.566 348.566 0 0 0 17.147 54.724 336.946 336.946 0 0 0 80.939 118.169 369.886 369.886 0 0 0 32.972 27.749 406.229 406.229 0 0 0 39.1 25.8 464.282 464.282 0 0 0 45.749 23.221 545.189 545.189 0 0 0 52.915 20.029 738 738 0 0 0 61.78 16.923c19.789 4.508 40.2 8.29 60.679 11.24 19.441 2.8 39.318 4.9 59.08 6.242a842.576 842.576 0 0 0 56.978 1.928c23.4 0 47.388-.979 71.291-2.911a933.48 933.48 0 0 0 65.565-7.675 960.866 960.866 0 0 0 109.283-23.285c14.124-3.887 28.049-8.07 41.387-12.438a781.47 781.47 0 0 0 31-10.849c16.872-6.32 26.129-10.551 26.206-10.586h.006l.035-.014c.117-.042 12.6-4.465 31.631-10.292 18.488-5.653 48.087-14.178 84.1-22.674 40.617-9.579 81.041-17.209 120.15-22.676 23.232-3.247 46.268-5.762 68.469-7.474 24.355-1.881 48.356-2.834 71.339-2.834 16.791 0 33.414.515 49.408 1.527 16.78 1.066 33.312 2.722 49.135 4.922 16.653 2.317 32.873 5.279 48.209 8.807a475.669 475.669 0 0 1 46.635 13.188c79.348 27.042 146.263 46.616 198.886 58.177 19.526 4.291 36.908 7.427 51.662 9.318a225.189 225.189 0 0 0 27.681 2.111c6.984 0 9.839-.667 9.854-.675h931.445c.337.034 8.413.859 23.565 1.7 14.133.777 37.244 1.7 67.081 1.7 33.11 0 67.878-1.107 103.337-3.293 44.205-2.725 89.643-7.144 135.05-13.136a2120.185 2120.185 0 0 0 344.35-75.348 2731.403 2731.403 0 0 1 61.392-18.1c19.9-5.6 39.453-10.822 58.1-15.525a1839.42 1839.42 0 0 1 55.088-13c17.86-3.911 35.473-7.452 52.35-10.523a1291.717 1291.717 0 0 1 49.9-8.1c16.054-2.274 32.109-4.2 47.721-5.724 15.464-1.5 30.882-2.647 45.824-3.4a883.541 883.541 0 0 1 44.206-1.119c18.43 0 36.945.615 55.032 1.827a800.958 800.958 0 0 1 53.418 5.415 813.195 813.195 0 0 1 52.394 8.9c17.043 3.469 34.53 7.6 51.974 12.268a1101.652 1101.652 0 0 1 105.077 34.225c33.833 12.793 70.006 27.979 110.586 46.428 80.937 36.791 179.149 63.6 291.906 79.669 44.135 6.293 90.624 10.931 138.174 13.786a1918.625 1918.625 0 0 0 114.66 3.429c32.8 0 59.344-.872 75.839-1.6 17.084-.763 27.615-1.572 28.055-1.605H3780.29v84.5l-2035.369 4.055c-1.576-.014-162.31-1.444-331.446-3.62-99.838-1.285-183.583-2.579-248.91-3.846-81.671-1.585-134.612-3.133-157.35-4.6-13.237-.854-25.763-1.97-38.294-3.409a739.576 739.576 0 0 1-41.2-5.919 988.376 988.376 0 0 1-97.9-22.449c-38.546-10.73-81.027-24.39-129.872-41.759-25.187-8.954-52.5-19.065-81.17-30.051-29.238-11.2-60.95-23.717-94.255-37.2-79.715-32.268-171.922-48.628-274.059-48.628a1052.757 1052.757 0 0 0-124.161 7.6c-33.806 4.033-68 9.656-101.632 16.715-29.911 6.278-53.84 12.555-68.647 16.716-15.349 4.313-24.233 7.271-25.195 7.594h-.023c-.629.222-15.673 5.512-40.489 13.407-23.465 7.467-60.923 18.929-106.117 31.135-50.8 13.72-100.814 25.563-148.655 35.2-28.409 5.724-56.357 10.724-83.068 14.861-29.376 4.55-57.99 8.169-85.048 10.758-51.552 4.932-145.125 8.612-278.122 10.939-110.084 1.926-244.667 2.9-400.013 2.9-124.972 0-260.762-.66-382.357-1.862-101.536-1-178.832-2.252-196.921-3.184a335.6 335.6 0 0 1-65.576-10.027c-20.59-5.144-40.833-11.835-62.264-18.919l-.043-.015c-18.292-6.046-37.206-12.3-58.738-18.449a2281.496 2281.496 0 0 1-12.62-3.663l-.114-.033h-.019c-27.367-8-68.724-20.08-120.176-30.222-28.311-5.579-56.609-9.937-84.11-12.952a912.168 912.168 0 0 0-46.628-3.913 855.703 855.703 0 0 0-49.133-1.434c-19.5 0-39.029.7-58.031 2.093-20.256 1.479-40.483 3.778-60.118 6.834-20.809 3.235-41.539 7.41-61.616 12.408-21.168 5.271-42.2 11.6-62.524 18.82-50.122 17.806-96.347 33.063-137.392 45.347-33.9 10.146-64.571 18.359-91.168 24.412-20.329 4.626-38.13 7.964-52.907 9.921a179.36 179.36 0 0 1-22.608 1.875c-1.669 0-2.424-.064-2.429-.065 2.07 2.688 19.746 7.148 52.539 13.256 28.368 5.282 67.923 11.747 114.39 18.7 85.895 12.844 184.522 25.706 234.514 30.585 26.524 2.588 58.7 3.9 95.647 3.9 47.22 0 100.161-2.182 153.1-6.311 54.1-4.219 106.339-10.34 151.078-17.7 28.994-4.771 65.094-9.051 107.3-12.721 33.754-2.936 71.478-5.49 112.124-7.593 69.356-3.587 123.551-4.614 124.09-4.625h1040.998c.32-.01 32.507-1 76.368-1 60.212 0 143.851 1.849 200.371 10.653 25.532 3.978 72.843 10.6 129.8 18.182a17318.47 17318.47 0 0 0 201.487 25.58c80.124 9.694 151.256 17.705 211.42 23.812 70.914 7.2 124.611 11.528 159.6 12.874 5.581.215 11.276.437 17.3.672l1.722.067c66.811 2.606 158.311 6.177 255.328 6.177 33.426 0 65.774-.431 96.144-1.279 33.819-.946 66.319-2.443 96.6-4.451 33.129-2.2 64.6-5.071 93.539-8.544 31.279-3.753 60.54-8.314 86.971-13.559 24.175-4.8 54.9-9.612 91.321-14.314 33.126-4.275 71.691-8.552 114.624-12.711 72.361-7.009 158.3-13.817 255.42-20.237 86.436-5.715 165.937-10.059 217.409-12.7 55.86-2.863 91.566-4.385 91.911-4.4l2035.369.77v83.545H2173.206c-5.273.029-53.607.32-125.924 1.3-70.562.949-179.511 2.763-297.831 6.011-132.808 3.639-250.339 8.321-349.327 13.914-58.558 3.312-111.168 6.984-156.37 10.918-49.574 4.319-91.337 9.058-124.127 14.086-63.752 9.786-126.418 18.205-186.257 25.024-50.509 5.755-100.139 10.485-147.513 14.063-37.368 2.821-74.306 4.979-109.786 6.416-29.051 1.177-52.291 1.7-73.077 2.082-2.642.053-6.02.08-10.041.08-25.161 0-67.95-1.141-117.4-3.13-58.184-2.338-122.237-5.712-185.235-9.757-116.227-7.466-283.463-20.739-420.131-41.577-60-9.145-112.635-16.429-160.918-22.268-43.241-5.229-82.232-9.2-119.2-12.135-68.925-5.472-118.973-6.429-171.96-7.441H-582.1l-3.227-.062-12.173-.236c-11.775-.242-32.647-.359-63.809-.359-72.625 0-186.778.635-318.956 1.371h-.485l-.889.006-1.335.006H-984.298l-63.628.353c-155.171.845-332.815 1.747-477.232 1.747-118.191 0-200.321-.58-251.082-1.773-14.122-.33-27.64-.5-40.179-.5-92.175 0-138.234 8.677-191.566 18.726h-.014l-.036.006-.056.012-.042.006h-.032l-.119.024c-28.565 5.38-58.1 10.943-98.213 15.957-45.792 5.73-97.417 9.65-157.824 11.983-19.258.74-39.236 1.116-59.38 1.116h-.154c-31.174 0-63.983-.9-97.515-2.674-30.572-1.622-62.278-4-94.237-7.056-53.994-5.164-109.973-12.369-166.384-21.415-50.279-8.06-91.478-16.094-117.186-21.415-27.43-5.677-43.611-9.563-44.286-9.727l-.036-.009c-.018-.007-5.056-1.422-14.329-3.577-8.294-1.924-21.67-4.816-38.29-7.673a788.24 788.24 0 0 0-57.928-7.734c-24.3-2.334-48.528-3.518-72.02-3.518-55.48 0-107.434 6.519-154.418 19.372-13.5 3.693-26.766 7.966-39.425 12.7a416.067 416.067 0 0 0-38.684 16.7 385.473 385.473 0 0 0-37.4 21.137 367.1 367.1 0 0 0-35.59 26.007 175.557 175.557 0 0 0-17.082 16.3 214.066 214.066 0 0 0-15.612 19.191c-4.887 6.745-9.664 14.1-14.2 21.855-4.426 7.572-8.746 15.745-12.842 24.293a468.029 468.029 0 0 0-21.874 55.018c-6.279 19-12.064 39.9-17.2 62.1-17.717 76.736-28.412 172.123-31.787 283.51-1.328 43.647-1.513 90.014-.551 137.81.771 38.3 2.267 77.367 4.447 116.129 3.662 65.084 8.221 109.608 8.265 110.028v.021zm-98.141-781.772c3.145 4.683 7.37 12.888 12.558 24.385 4.181 9.276 8.946 20.581 14.163 33.6 8.289 20.674 15.555 40.335 16.356 42.508l.012.034v.012l.006.015c.958-7.763 3.468-18.078 7.459-30.662 3.2-10.107 7.338-21.622 12.288-34.228 7.856-20.011 15.19-36.26 16.58-39.313l.008-.016a160.759 160.759 0 0 1-24.826 4.427 227.252 227.252 0 0 1-23.345 1.155 241.328 241.328 0 0 1-31.26-1.922zm25.857-406.73a163.084 163.084 0 0 0-32.551 3.28 160.913 160.913 0 0 0-30.322 9.411 161.2 161.2 0 0 0-27.432 14.891 162.662 162.662 0 0 0-23.9 19.719 162.573 162.573 0 0 0-19.727 23.9 161.541 161.541 0 0 0-14.891 27.432 160.732 160.732 0 0 0-9.411 30.316 162.7 162.7 0 0 0-3.275 32.553 162.626 162.626 0 0 0 3.281 32.549 160.857 160.857 0 0 0 9.411 30.315 161.65 161.65 0 0 0 14.891 27.433 162.549 162.549 0 0 0 19.727 23.9 162.48 162.48 0 0 0 23.9 19.724 160.994 160.994 0 0 0 27.432 14.889 160.277 160.277 0 0 0 30.322 9.41 162.838 162.838 0 0 0 32.551 3.281 162.885 162.885 0 0 0 32.543-3.281 160.557 160.557 0 0 0 30.312-9.41 161.732 161.732 0 0 0 27.435-14.889 162.743 162.743 0 0 0 23.9-19.724 163.1 163.1 0 0 0 19.73-23.9 161.829 161.829 0 0 0 14.883-27.433 160.3 160.3 0 0 0 9.407-30.315 162.474 162.474 0 0 0 3.275-32.549 162.486 162.486 0 0 0-3.281-32.548 160.423 160.423 0 0 0-9.407-30.316 161.931 161.931 0 0 0-14.883-27.432 162.876 162.876 0 0 0-19.73-23.9 162.68 162.68 0 0 0-23.9-19.719 161 161 0 0 0-27.435-14.891 160.573 160.573 0 0 0-30.312-9.411 163.133 163.133 0 0 0-32.543-3.283zm244.262 124.5v.018a203.978 203.978 0 0 1 2.673 24.912 233.849 233.849 0 0 1-.062 25.693 188.167 188.167 0 0 1-4.024 29.653l.071-.024c2.685-.875 27.062-8.78 55.805-16.8 17.727-4.948 33.591-8.961 47.15-11.928 16.95-3.71 30.334-5.786 39.782-6.171l-.089-.018c-3.07-.713-30.859-7.2-60.788-15.581-18.632-5.215-34.572-10.161-47.378-14.7-16.017-5.688-27.168-10.752-33.14-15.052zm-490.391 4.227a534.65 534.65 0 0 1-51.862 16.792c-13.162 3.571-22.444 5.639-24.171 6.017h-.012c4.039 1.156 10.629 4.333 19.585 9.443 7.17 4.094 15.848 9.422 25.794 15.836 14.839 9.568 28.258 18.824 32.018 21.433l.059.044a98.034 98.034 0 0 1-3.547-21.8 209.571 209.571 0 0 1-.115-22.7c.6-13.353 2.08-23.888 2.247-25.045v-.021zm227.608-264.1v.009l-.077.2c-4.229 11.277-18.173 48.307-20.073 51.352h.077c3.529-.489 21.7-2.932 32.842-2.932a27.175 27.175 0 0 1 7.811.776v-.007a.023.023 0 0 1-.009-.015v-.018l-.006-.006-.011-.023-.01-.021-.023-.048c-2.134-4.6-6.289-13.626-10.142-22.371-4.672-10.6-10.263-23.875-10.37-26.89zm7321.976 336.974h-.874v-10.46h.874v10.461z" transform="translate(3976.009 11798.788)" style="fill:#2c5c68"/>
</svg>
