<svg xmlns="http://www.w3.org/2000/svg" width="7516.354" height="1895.677" viewBox="0 0 7516.354 1895.677">
    <g data-name="그룹 1464">
        <path data-name="패스 640" d="M-24485.43 17605.133s48.525-281.125 187.928-373.73 189.529-113.551 468.709-116.105 404.764 75.84 648.98 78.977c179.643-1.4 293.086-38.2 454.066-55.908 231.594-25.473 889.787-11.516 1175.438-3.906 39.6 1.055 131.668 53.947 295.973 59.943s172.225-20.855 300.332-34.062 1075.838-.229 1102.107-1.9c206.01-13.131 2406.947-.473 2486.217-.012" transform="translate(24881.801 -16325.381)" style="stroke:#275460;stroke-width:80px;fill:none"/>
        <path data-name="패스 728" d="M-24485.43 17605.133s48.525-281.125 187.928-373.73 189.529-113.551 468.709-116.105 404.764 75.84 648.98 78.977c179.643-1.4 293.086-38.2 454.066-55.908 231.594-25.473 889.787-11.516 1175.438-3.906 39.6 1.055 131.668 53.947 295.973 59.943s172.225-20.855 300.332-34.062 1075.838-.229 1102.107-1.9c206.01-13.131 2406.947-.473 2486.217-.012" transform="translate(24881.801 -16325.381)" style="stroke:#052027;stroke-width:4px;stroke-dasharray:40;fill:none"/>
    </g>
    <g data-name="그룹 1463">
        <path data-name="패스 639" d="m-24021 18155.057.613-620.156s-2.852-176.469-97.77-301.574c-58.469-77.064-110.914-144.467-171.51-184.98-37.727-25.223-78.639-40.01-126.135-40.164" transform="translate(24416.801 -16259.418)" style="stroke:#275460;stroke-width:80px;fill:none"/>
        <path data-name="패스 688" d="m-24020.43 18141.951.039-607.051s-2.852-176.469-97.77-301.574-175.326-218.8-299.012-219.2" transform="translate(24417.287 -16259.418)" style="stroke:#052027;stroke-width:4px;stroke-dasharray:40;fill:none"/>
    </g>
    <g data-name="그룹 1461">
        <path data-name="패스 637" d="M-23962.461 17287.008c.01 9.711 11.043 305.717-20.148 407.607s-59.266 129.965-117.49 188.189-171.451 133.273-261.037 133.354" transform="translate(24361.218 -17286.966)" style="stroke:#275460;stroke-width:80px;fill:none"/>
        <path data-name="패스 689" d="M-23961.977 17324.234c-.2 9.809 10.559 268.49-20.633 370.381s-59.266 129.965-117.49 188.189-171.055 129.7-261.037 133.354" transform="translate(24361.218 -17286.966)" style="stroke:#052027;stroke-width:4px;stroke-dasharray:40;fill:none"/>
    </g>
    <g data-name="그룹 1460">
        <path data-name="패스 638" d="M-24482.164 17277.43v222.5c0 73.346 30.887 173.99 30.887 173.99s49.73 116.615 121.074 169.918c45.232 33.793 82.141 66.389 189.107 86.127 62.041 11.447 147.307 18.586 271.1 19.215 338.225 1.717 442.186-100.7 687.137-103.85 219.438-4.064 296.2 52.547 457.182 70.254 231.594 25.471 889.787 11.514 1175.438 3.9 35.48-.945 177.506-61.691 301.361-58.422s178.861 40.725 286.018 62.518 1110.188 32.637 1110.188 32.637h2486.43" transform="translate(24881.801 -17239.959)" style="stroke:#275460;stroke-width:80px;fill:none"/>
        <path data-name="패스 727" d="M-24482.164 17277.43v222.5c0 73.346 30.887 173.99 30.887 173.99s49.73 116.615 121.074 169.918 121.98 103.625 460.205 105.342 442.186-100.7 687.137-103.85c219.438-4.064 296.2 52.547 457.182 70.254 231.594 25.471 889.787 11.514 1175.438 3.9 35.48-.945 177.506-61.691 301.361-58.422s178.861 40.725 286.018 62.518 1110.188 32.637 1110.188 32.637h2486.43" transform="translate(24881.801 -17239.959)" style="stroke:#052027;stroke-width:4px;stroke-dasharray:40;fill:none"/>
    </g>
    <g data-name="그룹 1462" transform="translate(186.822 546.047)">
        <circle data-name="타원 397" cx="212.486" cy="212.486" r="212.486" style="stroke:#275460;stroke-width:80px;fill:none"/>
        <circle data-name="타원 398" cx="212.486" cy="212.486" r="212.486" style="stroke:#052027;stroke-width:4px;stroke-dasharray:40;fill:none"/>
    </g>
</svg>
