<svg width="845" height="998" viewBox="0 0 845 998" fill="none" xmlns="http://www.w3.org/2000/svg">
    <mask id="nj5swzrr2a" style="mask-type:alpha" maskUnits="userSpaceOnUse" x="0" y="0" width="845" height="998">
        <path fill="#77D6E6" d="M0 0h845v998H0z"/>
    </mask>
    <g mask="url(#nj5swzrr2a)">
        <path fill-rule="evenodd" clip-rule="evenodd" d="M701.913-412v39.08l-26.106 105.842-27.737 146.551-11.421 13.027-8.158 151.435c-.544 40.166-2.285 131.245-4.895 174.233-.544 17.369-.326 54.061 4.895 61.877l8.158 4.885-1.631-13.027c-1.088-4.885 0-13.678 13.053-9.77l31 14.655c5.983 4.885 16.969 18.563 13.053 34.195l-19.579 74.904-3.264 16.283-21.21 42.337c-8.702 22.797-26.759 71.647-29.369 84.674l-6.527 3.256v21.169c-2.719 13.569-15.01 45.268-42.421 63.505l-27.738 26.053-163.16 122.126-9.79 14.655-21.21 11.398-4.895 11.399-21.211 17.912-55.475 92.815-50.579 83.045-21.211 43.966H-543V-412H701.913zm19.578 113.984c-1.305-27.356 4.895-52.65 8.159-61.877l424.22 11.398-22.85 11.399-4.89 11.398-16.32 8.142c-60.04 16.934-196.876 206.799-257.79 299.614L840.599 6.483l-45.685 74.904v11.398l-19.579 24.426-4.895 16.283-3.263 1.628-14.684 27.682-16.316 26.053-8.158 24.426c-7.832 16.934-16.316 12.484-19.58 8.141-10.442-14.329-46.772-14.655-63.632-13.026C660.47 158.896 666.562 87.9 667.649 58.59c1.305-57.317 10.334-169.347 14.685-218.197 3.916-28.659 21.21-74.904 29.369-94.444 10.442-19.54 10.876-37.452 9.788-43.965zM207.538 1038.85l34.264-60.247c5.438-7.599 19.905-25.402 34.263-35.824 5.983-4.342 18.601-14.003 21.211-17.912l9.79-16.283c1.088 4.342 4.895 13.353 11.421 14.655l14.684-8.142-13.052-11.398-4.895-3.257v-19.54c7.614-5.97 24.474-20.517 31-30.938 3.807-6.514 14.685-20.192 27.738-22.797 4.894-1.628 14.684-1.303 14.684 13.027l11.421-6.514 11.421-22.796c14.685-17.369 48.949-53.084 68.528-56.992 20.934-4.179 20.38 2.365 19.782 9.44-.101 1.197-.203 2.409-.203 3.586 0 6.514-20.667 85.217-31.001 123.754l-68.527 148.178H207.538z" fill="url(#5b7hxyp19b)"/>
    </g>
    <defs>
        <radialGradient id="5b7hxyp19b" cx="0" cy="0" r="1" gradientUnits="userSpaceOnUse" gradientTransform="matrix(-2315.24 0 0 -2310.61 305.434 314.24)">
            <stop stop-color="#141414" stop-opacity=".56"/>
            <stop offset=".58" stop-color="#058EA7" stop-opacity=".68"/>
            <stop offset="1" stop-color="#07181C" stop-opacity=".26"/>
        </radialGradient>
    </defs>
</svg>
