<svg width="16" height="16" viewBox="0 0 16 16" fill="none" xmlns="http://www.w3.org/2000/svg">
    <path fill-rule="evenodd" clip-rule="evenodd" d="M14.584 11.279a7.724 7.724 0 1 0-2.45 2.788L16 16l-1.416-4.721z" fill="#fff"/>
    <path fill-rule="evenodd" clip-rule="evenodd" d="M7.12 3.31a.5.5 0 0 0-.5.5v4.518a.5.5 0 0 0 .5.5h1.208a.5.5 0 0 0 .5-.5V3.81a.5.5 0 0 0-.5-.5H7.12zm0 6.621a.5.5 0 0 0-.5.5v1.207a.5.5 0 0 0 .5.5h1.208a.5.5 0 0 0 .5-.5V10.43a.5.5 0 0 0-.5-.5H7.12z" fill="#595959"/>
</svg>
