<svg width="32" height="32" viewBox="0 0 32 32" fill="none" xmlns="http://www.w3.org/2000/svg">
    <g clip-path="url(#muqan3a9ma)">
        <rect width="32" height="32" rx="16" fill="#00FF6F"/>
        <path fill="#00FF6F" stroke="#151C2B" d="M8.5 18.5h1v4h-1z"/>
        <mask id="hzzmqkracb" fill="#fff">
            <path fill-rule="evenodd" clip-rule="evenodd" d="M10.812 8.966a1 1 0 0 1 1.225-.707l11.59 3.106a1 1 0 0 1 .708 1.224l-1.553 5.796a1 1 0 0 1-1.225.707L9.966 15.986a1 1 0 0 1-.707-1.225l1.553-5.795zm14.23 4.848.966.259-1.035 3.864-.966-.26 1.035-3.863zm-9.4-3.554-2.898-.776-.26.966 2.899.776.258-.966z"/>
        </mask>
        <path fill-rule="evenodd" clip-rule="evenodd" d="M10.812 8.966a1 1 0 0 1 1.225-.707l11.59 3.106a1 1 0 0 1 .708 1.224l-1.553 5.796a1 1 0 0 1-1.225.707L9.966 15.986a1 1 0 0 1-.707-1.225l1.553-5.795zm14.23 4.848.966.259-1.035 3.864-.966-.26 1.035-3.863zm-9.4-3.554-2.898-.776-.26.966 2.899.776.258-.966z" fill="#151C2B"/>
        <path d="m10.812 8.966-.966-.259.966.259zm13.523 3.623.966.26-.966-.26zm-1.553 5.796-.966-.259.966.259zm-1.225.707-.259.966.259-.966zM9.966 15.986l.259-.966-.26.966zm-.707-1.225.966.26-.966-.26zm16.749-.688.966.259.259-.966-.966-.259-.26.966zm-.966-.259.259-.966-.966-.259-.26.966.967.26zm-.07 4.123-.258.966.966.258.258-.966-.965-.258zm-.966-.26-.965-.258-.26.966.967.259.258-.966zM12.744 9.485l.258-.966-.966-.26-.258.967.966.259zm2.897.776.966.259.26-.966-.967-.259-.259.966zm-3.156.19-.966-.26-.259.967.966.258.259-.965zm2.898.776-.26.966.967.259.259-.966-.966-.26zm-3.088-3.933a2 2 0 0 0-2.45 1.414l1.933.518.517-1.932zm11.591 3.106-11.59-3.106-.518 1.932 11.59 3.106.518-1.932zm1.415 2.45a2 2 0 0 0-1.415-2.45l-.517 1.932 1.932.517zm-1.553 5.795 1.553-5.796-1.932-.517-1.553 5.795 1.932.518zm-2.45 1.414a2 2 0 0 0 2.45-1.414l-1.932-.518-.518 1.932zm-11.59-3.106 11.59 3.106.518-1.932-11.591-3.106-.518 1.932zm-1.415-2.45a2 2 0 0 0 1.414 2.45l.518-1.932-1.932-.517zm1.553-5.795-1.553 5.796 1.932.517 1.553-5.795-1.932-.518zm16.42 4.4-.965-.259-.518 1.932.966.259.518-1.932zm-.328 5.088 1.036-3.863-1.932-.518-1.036 3.864 1.932.517zm-2.19.449.966.259.517-1.932-.966-.26-.517 1.933zm.328-5.089L23.04 17.42l1.931.518 1.036-3.864-1.932-.518zM12.485 10.45l2.898.776.517-1.932-2.898-.776-.517 1.931zm.966.258.258-.966-1.931-.517-.26.966 1.933.517zm2.19-.448-2.897-.776-.518 1.931 2.898.777.517-1.932zm-.966-.259-.258.966 1.932.518.258-.966L14.675 10z" fill="#151C2B" mask="url(#hzzmqkracb)"/>
        <path d="M14.5 16.5C14 17.667 12.2 20.2 9 21" stroke="#151C2B" stroke-width="2"/>
    </g>
    <defs>
        <clipPath id="muqan3a9ma">
            <path fill="#fff" d="M0 0h32v32H0z"/>
        </clipPath>
    </defs>
</svg>
