<svg width="32" height="32" viewBox="0 0 32 32" fill="none" xmlns="http://www.w3.org/2000/svg">
    <g clip-path="url(#r065o5oo4a)">
        <rect x=".75" y=".75" width="30.5" height="30.5" rx="15.25" fill="#010809" stroke="#00FF6F" stroke-width="1.5"/>
        <path fill="#00FF6F" d="M8 18h2v5H8z"/>
        <path fill-rule="evenodd" clip-rule="evenodd" d="M10.812 8.966a1 1 0 0 1 1.225-.707l11.59 3.106a1 1 0 0 1 .708 1.224l-1.553 5.796a1 1 0 0 1-1.225.707L9.966 15.986a1 1 0 0 1-.707-1.225l1.553-5.795zm14.23 4.848.966.259-1.035 3.864-.966-.26 1.035-3.863zm-9.4-3.554-2.898-.776-.26.966 2.899.776.258-.966z" fill="#00FF6F"/>
        <path d="M14.5 16.5C14 17.667 12.2 20.2 9 21" stroke="#00FF6F" stroke-width="2"/>
    </g>
    <defs>
        <clipPath id="r065o5oo4a">
            <path fill="#fff" d="M0 0h32v32H0z"/>
        </clipPath>
    </defs>
</svg>
