<svg width="32" height="32" viewBox="0 0 32 32" fill="none" xmlns="http://www.w3.org/2000/svg">
    <g clip-path="url(#v8u3nppmka)">
        <rect x=".75" y=".75" width="30.5" height="30.5" rx="15.25" fill="#010809" stroke="#fff" stroke-width="1.5"/>
        <path d="M13 8v1.5M8.75 10l.942 1.167M7.5 15H9M18 10l-1.13.986" stroke="#fff"/>
        <path fill-rule="evenodd" clip-rule="evenodd" d="M13.5 22h9a1.5 1.5 0 0 0 .362-2.956 4 4 0 1 0-7.834-1.523A2.5 2.5 0 1 0 13.5 22zM16.426 12.579a6.026 6.026 0 0 0-2.629 2.43 4.484 4.484 0 0 0-3.357 1.19 3.5 3.5 0 0 1 5.986-3.622z" fill="#fff"/>
    </g>
    <defs>
        <clipPath id="v8u3nppmka">
            <path fill="#fff" d="M0 0h32v32H0z"/>
        </clipPath>
    </defs>
</svg>
