<svg width="32" height="32" viewBox="0 0 32 32" fill="none" xmlns="http://www.w3.org/2000/svg">
    <g clip-path="url(#06my9o900a)">
        <path d="M13.86 7.91A3.25 3.25 0 1 1 17 12M23 20a3.25 3.25 0 1 1-3.14 4.091" stroke="#83DFE9" stroke-width="1.5" stroke-linecap="round"/>
        <path d="M10 11.25a.75.75 0 0 0 0 1.5v-1.5zm7 0h-7v1.5h7v-1.5zM8 19.25a.75.75 0 0 0 0 1.5v-1.5zm15 0H8v1.5h15v-1.5z" fill="#83DFE9"/>
        <path d="M7 12H6M6 20H5M23.378 11.28A3.75 3.75 0 1 1 27 16" stroke="#83DFE9" stroke-width="1.5" stroke-linecap="round"/>
        <path d="M8 15.25a.75.75 0 0 0 0 1.5v-1.5zm19 0H8v1.5h19v-1.5z" fill="#83DFE9"/>
        <path d="M5 16H2" stroke="#83DFE9" stroke-width="1.5" stroke-linecap="round"/>
    </g>
    <defs>
        <clipPath id="06my9o900a">
            <path fill="#fff" d="M0 0h32v32H0z"/>
        </clipPath>
    </defs>
</svg>
