<svg width="68" height="55" viewBox="0 0 68 55" fill="none" xmlns="http://www.w3.org/2000/svg">
    <g clip-path="url(#zysghhcs5a)">
        <mask id="xpccpjst4b" maskUnits="userSpaceOnUse" x="27" y="21.1" width="40" height="29" fill="#000">
            <path fill="#fff" d="M27 21.1h40v29H27z"/>
            <path fill-rule="evenodd" clip-rule="evenodd" d="M33.249 22.1h32.428c.178 0 .323.147.323.328v.598a.326.326 0 0 1-.323.328H33.249a.326.326 0 0 1-.324-.328v-.598c0-.181.145-.328.324-.328zm28.68 25.35h3.748c.178 0 .323.148.323.329v.598a.326.326 0 0 1-.323.328h-37.34a.326.326 0 0 1-.323-.328v-.598c0-.181.145-.328.323-.328h8.665V23.354h24.927v24.097z"/>
        </mask>
        <path fill-rule="evenodd" clip-rule="evenodd" d="M33.249 22.1h32.428c.178 0 .323.147.323.328v.598a.326.326 0 0 1-.323.328H33.249a.326.326 0 0 1-.324-.328v-.598c0-.181.145-.328.324-.328zm28.68 25.35h3.748c.178 0 .323.148.323.329v.598a.326.326 0 0 1-.323.328h-37.34a.326.326 0 0 1-.323-.328v-.598c0-.181.145-.328.323-.328h8.665V23.354h24.927v24.097z" fill="#FCBD45"/>
        <path d="M61.929 47.45v1h-1v-1h1zm-24.927 0h1v1h-1v-1zm0-24.096h-1v-1h1v1zm24.927 0v-1h1v1h-1zm3.748-.254H33.249v-2h32.428v2zM65 22.428c0 .357.29.672.677.672v-2c.744 0 1.323.608 1.323 1.328h-2zm0 .598v-.598h2v.598h-2zm.677-.672a.674.674 0 0 0-.677.672h2c0 .72-.579 1.328-1.323 1.328v-2zm-32.428 0h32.428v2H33.249v-2zm.676.672a.674.674 0 0 0-.676-.672v2a1.326 1.326 0 0 1-1.324-1.328h2zm0-.598v.598h-2v-.598h2zm-.676.672a.674.674 0 0 0 .676-.672h-2c0-.72.58-1.328 1.324-1.328v2zm32.428 25.35h-3.748v-2h3.748v2zM65 47.78c0 .357.29.672.677.672v-2c.744 0 1.323.608 1.323 1.328h-2zm0 .598v-.598h2v.598h-2zm.677-.672a.674.674 0 0 0-.677.672h2c0 .72-.579 1.328-1.323 1.328v-2zm-37.34 0h37.34v2h-37.34v-2zm.677.672a.674.674 0 0 0-.677-.672v2a1.326 1.326 0 0 1-1.323-1.328h2zm0-.598v.598h-2v-.598h2zm-.677.672a.674.674 0 0 0 .677-.672h-2c0-.72.579-1.328 1.323-1.328v2zm8.665 0h-8.665v-2h8.665v2zm1-25.097v24.097h-2V23.354h2zm23.927 1H37.002v-2h24.927v2zm-1 23.097V23.354h2v24.097h-2z" fill="#fff" mask="url(#xpccpjst4b)"/>
        <mask id="k5o1uquw1c" maskUnits="userSpaceOnUse" x="29.5" y="33.5" width="8" height="16" fill="#000">
            <path fill="#fff" d="M29.5 33.5h8v16h-8z"/>
            <path fill-rule="evenodd" clip-rule="evenodd" d="M33.198 34.5h2.877c.032 0 .064.013.087.036a.125.125 0 0 1 .035.088v.023H30.96v-.023a.124.124 0 0 1 .123-.124h2.115zm.122.148h2.877c.074 0 .14.07.165.172l.105.434a1.216 1.216 0 0 1 .033.284V47.59H30.642V35.536c0-.095.011-.19.035-.284l.11-.433a.203.203 0 0 1 .058-.115.198.198 0 0 1 .115-.056h2.36z"/>
        </mask>
        <path fill-rule="evenodd" clip-rule="evenodd" d="M33.198 34.5h2.877c.032 0 .064.013.087.036a.125.125 0 0 1 .035.088v.023H30.96v-.023a.124.124 0 0 1 .123-.124h2.115zm.122.148h2.877c.074 0 .14.07.165.172l.105.434a1.216 1.216 0 0 1 .033.284V47.59H30.642V35.536c0-.095.011-.19.035-.284l.11-.433a.203.203 0 0 1 .058-.115.198.198 0 0 1 .115-.056h2.36z" fill="#6F87B7"/>
        <path d="m36.162 34.536-.712.703.712-.703zm.035.111h1a1 1 0 0 1-1 1v-1zm-5.238 0v1a1 1 0 0 1-1-1h1zm.01-.07.925.378-.925-.378zm.026-.04-.711-.703.711.702zm.04-.028.387.922-.387-.922zm5.327.311-.972.237-.001-.005.973-.232zm.105.434-.971.237.971-.237zm.025.137.993-.12a1 1 0 0 1-.993 1.12v-1zm0 0-.993.118a1 1 0 0 1 .993-1.118v1zm.008.147h-1v-.005l1 .005zm0 12.053h1a1 1 0 0 1-1 1v-1zm-5.858 0v1a1 1 0 0 1-1-1h1zm0-12.055 1-.001v.001h-1zm.035-.284-.97-.245v-.001l.97.246zm.11-.433.99.144a1.003 1.003 0 0 1-.02.103l-.97-.247zm.058-.115.704.71-.704-.71zm.115-.056-.125-.992c.041-.005.083-.008.125-.008v1zm5.115.852h-2.877v-2h2.877v2zm-.625-.261a.878.878 0 0 0 .625.261v-2c.302 0 .589.122.798.334l-1.423 1.405zm-.253-.615c0 .228.09.45.253.615l1.423-1.405c.21.212.325.496.325.79h-2zm0 .023v-.023h2v.023h-2zm-1.877-1h2.877v2H33.32v-2zm0 2h-.122v-2h.122v2zm-.122 0h-2.239v-2h2.239v2zm-3.239-1v-.023h2v.023h-2zm0-.023c0-.146.029-.29.084-.426l1.851.757a.874.874 0 0 0 .065-.33h-2zm.084-.426c.055-.135.137-.259.24-.364l1.424 1.405a.875.875 0 0 0 .187-.284l-1.85-.757zm.24-.364a1.12 1.12 0 0 1 .365-.247l.774 1.844a.876.876 0 0 0 .285-.192l-1.423-1.405zm.365-.247a1.12 1.12 0 0 1 .434-.087v2a.878.878 0 0 0 .34-.069l-.774-1.844zm.434-.087h2.115v2h-2.115v-2zm2.115 0v2-2zm3 2.148H33.32v-2h2.877v2zm0 0v-2 2zm-.808-.596a.73.73 0 0 0 .185.333c.118.124.331.263.623.263v-2c.755 0 1.066.64 1.137.94l-1.945.464zm.107.438-.106-.433 1.943-.473.106.433-1.943.473zm.003.021a.18.18 0 0 0-.003-.02l1.943-.474c.02.083.036.168.046.254l-1.986.24zm.993-1.12v2-2zm-.992 1.142-.001-.024 1.986-.236c.01.09.015.18.015.27l-2-.01zm0 12.058V35.538h2V47.59h-2zm-1.862-1H36.5v2h-2.862v-2zm-.442 0h.442v2h-.442v-2zm-2.554 0h2.554v2h-2.554v-2zm1-11.055v12.055h-2V35.536h2zm.004-.038a.15.15 0 0 0-.004.037l-2 .003c0-.179.021-.357.065-.531l1.94.49zm.11-.432-.11.433-1.938-.493.11-.434 1.938.494zm-.207.348a.797.797 0 0 0 .228-.451l-1.98-.288c.038-.257.157-.496.344-.681l1.408 1.42zm-.465.226a.802.802 0 0 0 .465-.226l-1.408-1.42c.187-.185.43-.305.694-.338l.25 1.984zm2.114.008H30.96v-2h2.238v2zm0 0v-2 2zm.122 0h-.122v-2h.122v2z" fill="#fff" mask="url(#k5o1uquw1c)"/>
        <path d="M51.996 34.91h6.478c.107 0 .194.089.194.197v.629a.195.195 0 0 1-.194.196h-6.478a.195.195 0 0 1-.194-.196v-.629c0-.108.087-.196.194-.196z" fill="#92839A"/>
        <path opacity=".7" d="M37.03 26.415v8.309c.31-.867.956-1.979.956-4.155 0-2.175-.646-3.287-.956-4.154z" fill="#3B4C71"/>
        <path d="M37.03 23.381v3.034c.31.866.956 1.978.956 4.154s-.646 3.288-.956 4.155v12.754h24.928V23.381H37.03zm20.62 21.565a.33.33 0 0 1-.095.232.321.321 0 0 1-.228.096h-4.685a.32.32 0 0 1-.229-.096.33.33 0 0 1-.094-.232V25.893a.332.332 0 0 1 .199-.302.32.32 0 0 1 .123-.025h4.686a.32.32 0 0 1 .298.202c.016.04.025.082.025.125v19.053z" fill="#85728C"/>
        <path d="M37.464 26.813a8.036 8.036 0 0 1-.433-1.432h-.162a.257.257 0 0 0-.182.077.265.265 0 0 0-.076.185c.037.477.164.942.375 1.37a8.89 8.89 0 0 1 0 7.113 3.739 3.739 0 0 0-.375 1.37c0 .069.027.136.076.185.048.049.114.077.182.077h.162c.1-.49.245-.97.433-1.432a9.42 9.42 0 0 0 0-7.513z" fill="#463F6A"/>
        <path d="M58.037 23.947h.687a.32.32 0 0 1 .228.096.33.33 0 0 1 .095.232v23.203h-1.01V23.947z" fill="#414D83"/>
        <path d="M51.115 23.947h6.964a.32.32 0 0 1 .228.096.33.33 0 0 1 .095.232v23.203h-7.61V24.275a.33.33 0 0 1 .094-.232.32.32 0 0 1 .229-.096zm1.203 21c0 .087.034.17.095.231a.32.32 0 0 0 .228.097h4.686a.32.32 0 0 0 .228-.096.33.33 0 0 0 .095-.232V25.893a.333.333 0 0 0-.095-.231.324.324 0 0 0-.228-.096h-4.685a.318.318 0 0 0-.229.096.33.33 0 0 0-.094.231v19.054z" fill="#4E5D90"/>
        <path d="M51.481 24.471h6.233a.32.32 0 0 1 .228.096.33.33 0 0 1 .095.232v22.68h-6.879v-22.68a.33.33 0 0 1 .095-.232.321.321 0 0 1 .228-.096zm.837 20.475c0 .087.035.17.095.232a.32.32 0 0 0 .229.096h4.685a.32.32 0 0 0 .228-.096.33.33 0 0 0 .095-.232V25.893a.333.333 0 0 0-.095-.231.324.324 0 0 0-.228-.096h-4.685a.318.318 0 0 0-.229.096.328.328 0 0 0-.094.231v19.053z" fill="#A897A8"/>
        <path opacity=".7" d="M52.641 25.566h4.685c.179 0 .323.146.323.328v19.052a.326.326 0 0 1-.323.328h-4.685a.326.326 0 0 1-.323-.328V25.894c0-.181.145-.328.323-.328z" fill="#3B4C71"/>
        <path d="M52.642 25.566h.218a.321.321 0 0 0-.229.096.33.33 0 0 0-.094.231v19.053c0 .087.034.17.094.232.061.061.143.096.229.096h-.218a.32.32 0 0 1-.229-.096.33.33 0 0 1-.094-.232V25.893a.333.333 0 0 1 .094-.231.324.324 0 0 1 .229-.096z" fill="#92839A"/>
        <path d="M51.481 24.471h.06v23.007h-.384V24.8a.332.332 0 0 1 .2-.303.32.32 0 0 1 .124-.025z" fill="#414D83"/>
        <path d="M37.554 26.813a8.036 8.036 0 0 1-.524-1.432h-.134a.271.271 0 0 0-.196.071.28.28 0 0 0-.09.191c.042.481.184.948.415 1.37a8.113 8.113 0 0 1 0 7.113 3.463 3.463 0 0 0-.414 1.37.28.28 0 0 0 .089.19.27.27 0 0 0 .196.072h.134c.13-.493.305-.973.524-1.432a8.6 8.6 0 0 0 0-7.513z" fill="#EEECF0"/>
        <path d="M28.366 47.478h37.34c.178 0 .323.147.323.328v.598a.326.326 0 0 1-.323.328h-37.34a.326.326 0 0 1-.323-.328v-.598c0-.18.145-.328.323-.328z" fill="#9E8299"/>
        <path d="M33.277 22.127h32.429c.178 0 .323.147.323.328v.598a.326.326 0 0 1-.323.328H33.277a.326.326 0 0 1-.323-.328v-.598c0-.18.145-.328.323-.328z" fill="#6F87B7"/>
        <path d="M52.9 35.233c1.684 0 3.066-.474 3.998-1.37a4.787 4.787 0 0 0 1.309-3.294c0-1.228-.47-2.409-1.309-3.294-.932-.896-2.314-1.37-3.998-1.37H37.03v-2.524h24.928v24.097H37.03V35.233H52.9z" fill="#FCBD45"/>
        <path d="M37.03 44.413h24.928v3.065H37.03v-3.065z" fill="#C6BBC6"/>
        <path d="M37.03 39.938h24.928v1.491H37.03v-1.491zM37.03 42.92h24.928v1.493H37.03V42.92z" fill="#EEECF0"/>
        <g opacity=".7">
            <path d="M52.9 25.906c1.684 0 3.066.473 3.998 1.37a4.786 4.786 0 0 1 1.309 3.293c0 1.229-.469 2.41-1.309 3.294-.932.896-2.314 1.37-3.998 1.37h-5.103v-1.841c0-.898-.632-1.629-1.407-1.629h-4.474c-.776 0-1.408.73-1.408 1.629v1.841h-3.476v-9.327H52.9z" fill="#65859E"/>
            <path d="m48.005 25.906 8.305 8.427a6.101 6.101 0 0 1-3.41.9h-.789l-9.192-9.327h5.086zM37.03 30.964v-4.287l5.013 5.086h-.13c-.775 0-1.406.73-1.406 1.629v1.1l-3.477-3.528zM52.16 25.906l5.886 5.971a4.201 4.201 0 0 1-.906 1.733l-7.592-7.704h2.612zM37.03 32.808l2.39 2.425h-2.39v-2.425z" fill="#759CB1"/>
        </g>
        <path d="M47.841 35.233h.905c-.051 0-.1-.02-.137-.058a.198.198 0 0 1-.057-.139v-1.644c0-1.19-.861-2.153-1.924-2.153h-4.474c-1.063 0-1.924.964-1.924 2.153v1.644c0 .053-.02.102-.057.14a.192.192 0 0 1-.137.057h.904c-.05 0-.1-.02-.136-.058a.198.198 0 0 1-.057-.139v-1.644c0-.898.631-1.629 1.407-1.629h4.474c.776 0 1.407.73 1.407 1.629v1.644c0 .053-.02.102-.057.14a.192.192 0 0 1-.137.057z" fill="#D5D1DA"/>
        <path d="M36.977 35.233h2.819c.051 0 .1-.02.137-.058a.198.198 0 0 0 .057-.139v-1.644c0-1.19.861-2.153 1.924-2.153h4.474c1.063 0 1.924.964 1.924 2.153v1.644c0 .053.02.102.057.14a.192.192 0 0 0 .137.057H52.9c1.684 0 3.066-.474 3.998-1.37a4.787 4.787 0 0 0 1.309-3.294c0-1.228-.47-2.409-1.309-3.294-.932-.896-2.314-1.37-3.998-1.37H36.977a.264.264 0 0 1-.179-.065.271.271 0 0 1-.09-.17.267.267 0 0 1 .066-.203.261.261 0 0 1 .192-.086H52.9c1.819 0 3.324.524 4.354 1.514a5.313 5.313 0 0 1 1.47 3.675c0 1.372-.527 2.69-1.47 3.674-1.03.99-2.535 1.514-4.354 1.514H36.966a.254.254 0 0 1-.192-.087.265.265 0 0 1-.066-.201.271.271 0 0 1 .09-.17.264.264 0 0 1 .179-.067zm10.624 0a.191.191 0 0 0 .137-.058.199.199 0 0 0 .057-.139v-1.644c0-.898-.631-1.629-1.407-1.629h-4.474c-.776 0-1.407.73-1.407 1.629v1.644c0 .053.02.102.056.14a.192.192 0 0 0 .137.057h6.901z" fill="#EEECF0"/>
        <path d="M40.248 37.003h7.806a.256.256 0 0 0 .183-.076.264.264 0 0 0 .075-.186v-.983H39.99v.983a.265.265 0 0 0 .16.242c.03.014.065.02.098.02z" fill="#DED4DB" style="mix-blend-mode:multiply"/>
        <path d="M39.46 35.757h8.594a.257.257 0 0 0 .183-.077.263.263 0 0 0-.183-.447h-8.595a.257.257 0 0 0-.182.077.264.264 0 0 0 0 .37c.048.05.114.077.182.077z" fill="#D5D1DA"/>
        <path d="M37.03 23.381h24.928v1.345H37.03V23.38z" fill="#DED4DB" style="mix-blend-mode:multiply"/>
        <path d="M39.664 22.745a.14.14 0 0 0 .086-.042.143.143 0 0 0 .04-.087l.05-.575-.493.053.168.551a.139.139 0 0 0 .15.1z" fill="#DAD1D9"/>
        <path d="M41.05 22.3h.565c.053 0 .096.043.096.098v.713a.098.098 0 0 1-.096.098h-.565a.098.098 0 0 1-.096-.098v-.713c0-.055.043-.099.096-.099z" fill="#886883"/>
        <path d="M41.598 22.3h.017c.053 0 .096.043.096.098v.713a.098.098 0 0 1-.096.098h-.017a.098.098 0 0 1-.096-.098v-.713c0-.055.043-.099.096-.099z" fill="#7D5B77"/>
        <path d="M41.332 23.129a.062.062 0 0 1-.049.06.062.062 0 0 1-.028 0l-1.642-.44a.16.16 0 0 1-.08-.064.165.165 0 0 1-.025-.1.157.157 0 0 1 .03-.108.152.152 0 0 1 .095-.058l1.635-.115c.009-.001.017 0 .025.003a.062.062 0 0 1 .041.058l-.002.764z" fill="#C6BBC6"/>
        <path d="m40.618 21.581-.116-1.105a.235.235 0 0 0-.084-.156.228.228 0 0 0-.168-.051l-1.496.16a.229.229 0 0 0-.154.086.235.235 0 0 0-.05.17l.116 1.105 1.952-.209z" fill="#DAD1D9"/>
        <path d="m38.897 22.142 1.566-.167-.078-.75a.2.2 0 0 0-.07-.132.195.195 0 0 0-.143-.042l-1.18.126a.192.192 0 0 0-.166.14.198.198 0 0 0-.007.077l.078.748z" fill="#B9ACBA"/>
        <path d="m40.562 21.044.105 1.007a.099.099 0 0 1-.086.108.096.096 0 0 1-.096-.05.098.098 0 0 1-.011-.037l-.089-.848a.198.198 0 0 0-.137-.168.192.192 0 0 0-.076-.007l-1.18.127a.191.191 0 0 0-.13.072.198.198 0 0 0-.043.144l.088.848a.101.101 0 0 1-.021.072.095.095 0 0 1-.16-.014.1.1 0 0 1-.011-.037l-.106-1.008a.236.236 0 0 1 .05-.17.229.229 0 0 1 .154-.086l1.496-.16c.061-.007.121.012.169.05a.234.234 0 0 1 .084.157z" fill="#E9E2E7"/>
        <path d="M39.365 21.596a.41.41 0 0 0 .286.349.397.397 0 0 0 .427-.135.412.412 0 0 0-.125-.618.396.396 0 0 0-.5.104.412.412 0 0 0-.088.3z" fill="#5B3D55"/>
        <path d="M38.878 21.366a.117.117 0 0 0 .082.1.115.115 0 0 0 .123-.038.118.118 0 0 0-.036-.178.114.114 0 0 0-.144.03.119.119 0 0 0-.025.086z" fill="#D32739"/>
        <path d="M39.859 22.724a.14.14 0 0 0 .125-.129l.05-.575-.493.053.168.552c.01.031.03.058.057.076.028.019.06.027.093.023z" fill="#E9E2E7"/>
        <path d="M39.731 21.221a.324.324 0 0 1 .323.172.337.337 0 0 1-.033.369.328.328 0 0 1-.348.11.329.329 0 0 1-.234-.285.337.337 0 0 1 .17-.327.328.328 0 0 1 .122-.039zm.057.54a.206.206 0 0 0 .176-.149.212.212 0 0 0-.068-.222.206.206 0 0 0-.313.065.212.212 0 0 0 .053.26.205.205 0 0 0 .152.046z" fill="#775A70"/>
        <path d="M39.744 21.344a.204.204 0 0 1 .203.109.212.212 0 0 1-.02.231.207.207 0 0 1-.22.07.206.206 0 0 1-.147-.18.212.212 0 0 1 .045-.153.206.206 0 0 1 .139-.077zm.033.323a.112.112 0 0 0 .096-.082.116.116 0 0 0-.037-.121.113.113 0 0 0-.125-.012.114.114 0 0 0-.058.113.117.117 0 0 0 .041.077.113.113 0 0 0 .084.025h-.001z" fill="#4A3897"/>
        <path d="M39.755 21.439a.112.112 0 0 1 .11.059.115.115 0 0 1-.065.163.111.111 0 0 1-.12-.036.115.115 0 0 1-.001-.144.112.112 0 0 1 .076-.042z" fill="#4334C4"/>
        <path d="M39.767 21.564a.046.046 0 0 0 .025-.01.046.046 0 0 0 0-.072.046.046 0 0 0-.053-.006.047.047 0 0 0-.024.046.047.047 0 0 0 .052.041z" fill="#9E87EB"/>
        <path d="M60.323 32.887h.757c.067 0 .122.056.122.125v2.377a.123.123 0 0 1-.122.125h-.757a.123.123 0 0 1-.122-.125v-2.377c0-.069.055-.125.122-.125z" fill="#ACA0AF"/>
        <path d="M60.806 32.888h-.368v-6.395c0-.13.051-.256.143-.349a.483.483 0 0 1 .343-.144h1.61v.373h-1.61a.119.119 0 0 0-.084.035.122.122 0 0 0-.034.085v6.395z" fill="#9F90A1"/>
        <path d="M60.898 25.603h2.71c.156 0 .284.13.284.288v9.505c0 .16-.128.288-.285.288h-2.709a.286.286 0 0 1-.284-.288v-9.505c0-.159.127-.288.284-.288z" fill="#4B3757"/>
        <path d="M61.266 25.603h2.71c.156 0 .283.13.283.288v9.505c0 .16-.127.288-.284.288h-2.71a.286.286 0 0 1-.284-.288v-9.505c0-.159.128-.288.285-.288z" fill="#5C4B6C"/>
        <path d="M61.98 26.774h1.354c.117 0 .213.097.213.217v2.147c0 .12-.096.216-.213.216H61.98a.215.215 0 0 1-.213-.216V26.99c0-.12.095-.217.213-.217z" fill="#4B3757"/>
        <path d="M63.388 26.921h-.73c-.436 0-.79.512-.79 1.143 0 .63.354 1.142.79 1.142h.73v-2.285z" fill="#6A5A7A"/>
        <path d="M64.176 28.064c0 .631-.352 1.143-.788 1.143-.436 0-.788-.512-.788-1.143s.352-1.142.788-1.142c.436 0 .788.511.788 1.142z" fill="#4B3757"/>
        <path d="M62.963 27.102a1.453 1.453 0 0 0 0 1.924 1.112 1.112 0 0 0 0-1.924z" fill="#E44452"/>
        <path d="M61.98 29.354h1.354c.117 0 .213.097.213.216v2.147c0 .12-.096.217-.213.217H61.98a.215.215 0 0 1-.213-.217V29.57c0-.12.095-.216.213-.216z" fill="#4B3757"/>
        <path d="M63.388 29.501h-.73c-.436 0-.79.512-.79 1.143 0 .63.354 1.142.79 1.142h.73v-2.285z" fill="#6A5A7A"/>
        <path d="M64.176 30.644c0 .63-.352 1.142-.788 1.142-.436 0-.788-.511-.788-1.142 0-.631.352-1.143.788-1.143.436 0 .788.512.788 1.143z" fill="#4B3757"/>
        <path d="M62.963 29.682a1.454 1.454 0 0 0 0 1.924 1.112 1.112 0 0 0 0-1.924z" fill="#FFBE27"/>
        <path d="M61.98 31.933h1.354c.117 0 .213.097.213.217v2.147c0 .12-.096.216-.213.216H61.98a.215.215 0 0 1-.213-.216V32.15c0-.12.095-.217.213-.217z" fill="#4B3757"/>
        <path d="M63.388 32.08h-.73c-.436 0-.79.512-.79 1.143s.354 1.143.79 1.143h.73V32.08z" fill="#6A5A7A"/>
        <path d="M64.176 33.223c0 .631-.352 1.143-.788 1.143-.436 0-.788-.512-.788-1.143 0-.63.352-1.142.788-1.142.436 0 .788.511.788 1.142z" fill="#4B3757"/>
        <path d="M62.963 32.261a1.453 1.453 0 0 0 0 1.924c.17-.095.31-.234.408-.403a1.112 1.112 0 0 0-.408-1.52z" fill="#8FBB68"/>
        <path d="M33.203 34.388h2.877c.033 0 .064.013.087.036a.125.125 0 0 1 .036.088v.023h-3v-.147z" fill="#7A93C2"/>
        <path d="M33.203 34.536h3c.074 0 .14.07.164.172l.105.434c.023.093.034.188.033.284v12.053h-3.303V34.537z" fill="#D1C8D1"/>
        <path d="M33.203 34.536h3c.074 0 .14.07.164.172l.106.434c.01.045.019.09.025.137h-3.296l.001-.743z" fill="#C2B5C1"/>
        <path d="M33.644 36.528h2.863v10.95h-2.863v-10.95z" fill="#809ECC"/>
        <path d="M30.965 34.536h2.36a.199.199 0 0 1 .116.057.204.204 0 0 1 .057.115l.11.434c.024.093.036.188.036.284v12.053h-2.997V35.425c0-.096.012-.192.035-.284l.11-.434a.202.202 0 0 1 .173-.17z" fill="#C2B5C1"/>
        <path d="M30.647 36.528h2.997v10.95h-2.997v-10.95z" fill="#7A93C2"/>
        <path d="M31.165 37.752h1.962c.15 0 .272.124.272.276v8.234a.274.274 0 0 1-.272.276h-1.963a.274.274 0 0 1-.272-.276v-8.234c0-.152.122-.276.273-.276zM31.088 34.388h2.115c.033 0 .064.013.087.036a.125.125 0 0 1 .036.088v.023h-2.36v-.023a.125.125 0 0 1 .075-.114.122.122 0 0 1 .047-.01z" fill="#6F87B7"/>
        <path d="M30.656 35.278c.006-.046.015-.092.026-.137l.11-.434a.203.203 0 0 1 .058-.116.198.198 0 0 1 .115-.056h2.36a.199.199 0 0 1 .116.056.204.204 0 0 1 .057.116l.11.434c.012.045.02.09.026.137h-2.978z" fill="#B5A5B3"/>
        <path d="M34.18 35.602a.178.178 0 0 0-.117.046l-.211.181a.371.371 0 0 0-.111.281v1.598a.377.377 0 0 0 .11.281l.212.181c.032.03.074.046.117.047h2.557c.127 0 .23-.147.23-.329V35.93c0-.181-.102-.328-.23-.328H34.18z" fill="#4B3757"/>
        <path d="m33.33 35.829.212-.18a.177.177 0 0 1 .116-.047h.522a.178.178 0 0 0-.117.046l-.211.181a.374.374 0 0 0-.111.281v1.598a.377.377 0 0 0 .111.281l.21.181c.033.03.075.046.118.047h-.522a.177.177 0 0 1-.116-.047l-.212-.18a.372.372 0 0 1-.11-.282V36.11a.376.376 0 0 1 .11-.281z" fill="#3C284A"/>
        <path d="M34.514 37.12v-.42a.222.222 0 0 0-.07-.17l-.306-.252h2.413l.307.251a.22.22 0 0 1 .07.171v.42a.224.224 0 0 1-.07.17l-.307.25h-2.413l.306-.25a.223.223 0 0 0 .07-.17z" fill="#5C4B6C"/>
        <path d="M34.137 36.278v1.262l.307-.25a.221.221 0 0 0 .07-.17v-.42a.224.224 0 0 0-.07-.17l-.307-.252z" fill="#817390"/>
        <path d="M1.973 37.594h31.37a.205.205 0 0 0 .19-.13.213.213 0 0 0 .016-.08V36.33a.212.212 0 0 0-.06-.149.205.205 0 0 0-.146-.06H1.973a.178.178 0 0 0-.126.052.183.183 0 0 0-.053.129v1.11c0 .047.02.093.053.127a.178.178 0 0 0 .126.054z" fill="#E2DFE5"/>
        <path d="M3.904 36.528H5.21c.09 0 .163.074.163.165v.308a.164.164 0 0 1-.163.166H3.904A.164.164 0 0 1 3.74 37v-.308c0-.091.073-.165.163-.165zM7.226 36.528h1.308c.09 0 .163.074.163.165v.308a.164.164 0 0 1-.163.166H7.226A.164.164 0 0 1 7.063 37v-.308c0-.091.073-.165.163-.165zM10.55 36.528h1.307c.09 0 .163.074.163.165v.308a.164.164 0 0 1-.163.166h-1.308a.164.164 0 0 1-.163-.166v-.308c0-.091.073-.165.163-.165zM13.872 36.528h1.307c.09 0 .163.074.163.165v.308a.164.164 0 0 1-.163.166h-1.307a.164.164 0 0 1-.163-.166v-.308c0-.091.073-.165.163-.165zM17.195 36.528h1.307c.09 0 .163.074.163.165v.308a.164.164 0 0 1-.163.166h-1.307a.164.164 0 0 1-.163-.166v-.308c0-.091.073-.165.163-.165zM20.517 36.528h1.308c.09 0 .163.074.163.165v.308a.164.164 0 0 1-.163.166h-1.308a.164.164 0 0 1-.162-.166v-.308c0-.091.072-.165.162-.165zM23.84 36.528h1.308c.09 0 .163.074.163.165v.308a.164.164 0 0 1-.163.166H23.84a.164.164 0 0 1-.163-.166v-.308c0-.091.073-.165.163-.165zM27.163 36.528h1.307c.09 0 .163.074.163.165v.308a.164.164 0 0 1-.163.166h-1.307A.164.164 0 0 1 27 37v-.308c0-.091.073-.165.163-.165zM30.486 36.528h1.308c.09 0 .162.074.162.165v.308a.164.164 0 0 1-.162.166h-1.308a.164.164 0 0 1-.163-.166v-.308c0-.091.073-.165.163-.165z" fill="#D32739"/>
        <path d="M31.109 34.682h-.137c-.242 0-.438.28-.438.628 0 .347.197.627.438.627h.137c-.242 0-.438-.28-.438-.627s.197-.628.438-.628z" fill="#D1C8D1"/>
        <path d="M31.11 35.938c-.241 0-.437-.281-.437-.628s.196-.628.437-.628c.242 0 .438.28.438.628 0 .347-.196.628-.438.628z" fill="#F1EDF0"/>
        <path d="M30.773 35.31a.42.42 0 0 0 .29.341.406.406 0 0 0 .427-.126.419.419 0 0 0-.31-.69.438.438 0 0 0-.3.152.451.451 0 0 0-.107.323z" fill="#D32739"/>
        <path d="M30.84 35.908h.113c.015 0 .03-.004.042-.012a.366.366 0 0 1 .161-.055.07.07 0 0 1 .05.018c.014.012.023.03.024.049v.212h-.39v-.212z" fill="#B6A7B5"/>
        <path d="M17.765 34.682h-.137c-.242 0-.438.28-.438.628 0 .347.197.627.438.627h.137c-.242 0-.438-.28-.438-.627s.196-.628.438-.628z" fill="#D1C8D1"/>
        <path d="M17.765 35.938c-.242 0-.438-.281-.438-.628s.196-.628.438-.628c.241 0 .437.28.437.628 0 .347-.196.628-.437.628z" fill="#F1EDF0"/>
        <path d="M17.427 35.31a.42.42 0 0 0 .29.341.406.406 0 0 0 .427-.126.42.42 0 0 0-.31-.69.438.438 0 0 0-.3.152.451.451 0 0 0-.107.323z" fill="#D32739"/>
        <path d="M17.495 35.908h.113c.015 0 .03-.004.043-.012a.366.366 0 0 1 .16-.055.069.069 0 0 1 .05.018c.014.012.023.03.024.049v.212h-.39v-.212z" fill="#B6A7B5"/>
        <path d="M4.495 34.682h-.137c-.242 0-.438.28-.438.628 0 .347.197.627.438.627h.137c-.242 0-.438-.28-.438-.627s.196-.628.438-.628z" fill="#D1C8D1"/>
        <path d="M4.495 35.938c-.242 0-.438-.281-.438-.628s.196-.628.438-.628.438.28.438.628c0 .347-.196.628-.438.628z" fill="#F1EDF0"/>
        <path d="M4.157 35.31a.42.42 0 0 0 .29.341.405.405 0 0 0 .427-.126.42.42 0 0 0-.088-.624.406.406 0 0 0-.222-.067.438.438 0 0 0-.3.153.452.452 0 0 0-.107.323z" fill="#D32739"/>
        <path d="M4.225 35.908h.111c.015 0 .03-.004.043-.012a.366.366 0 0 1 .161-.055.069.069 0 0 1 .05.018c.014.012.022.03.023.049v.212h-.389l.001-.212z" fill="#B6A7B5"/>
    </g>
    <defs>
        <clipPath id="zysghhcs5a">
            <path fill="#fff" transform="matrix(-1 0 0 1 68 0)" d="M0 0h68v55H0z"/>
        </clipPath>
    </defs>
</svg>
