<svg width="32" height="32" viewBox="0 0 32 32" fill="none" xmlns="http://www.w3.org/2000/svg">
    <mask id="fnalkaph5a" fill="#fff">
        <path fill-rule="evenodd" clip-rule="evenodd" d="M26.078 11.69a7.724 7.724 0 0 0-14.81-3.902 3.862 3.862 0 0 0-6.226 3.99 3.864 3.864 0 0 0 .82 7.636h20.276a3.862 3.862 0 1 0 0-7.724h-.06z"/>
    </mask>
    <path d="m26.078 11.69-1.488-.186a1.5 1.5 0 0 0 1.488 1.686v-1.5zm-14.81-3.902-.976 1.14a1.5 1.5 0 0 0 2.363-.57l-1.388-.57zm-6.226 3.989.317 1.466a1.5 1.5 0 0 0 1.126-1.874l-1.443.408zm22.525.098c.047-.377.07-.762.07-1.15h-3c0 .264-.015.524-.047.779l2.977.371zm.07-1.15A9.224 9.224 0 0 0 18.415 1.5v3a6.224 6.224 0 0 1 6.224 6.224h3zM18.415 1.5A9.227 9.227 0 0 0 9.88 7.217l2.775 1.141A6.226 6.226 0 0 1 18.414 4.5v-3zm-6.172 5.148A5.347 5.347 0 0 0 8.76 5.362v3c.586 0 1.12.212 1.534.566l1.95-2.28zM8.76 5.362a5.362 5.362 0 0 0-5.362 5.362h3a2.362 2.362 0 0 1 2.362-2.362v-3zm-5.362 5.362c0 .504.07.995.201 1.461l2.887-.816a2.365 2.365 0 0 1-.088-.645h-3zm.103 4.828c0-1.13.796-2.079 1.859-2.309l-.634-2.932A5.364 5.364 0 0 0 .5 15.55h3zm2.362 2.362A2.362 2.362 0 0 1 3.5 15.552h-3c0 2.961 2.4 5.362 5.362 5.362v-3zm20.276 0H5.862v3h20.276v-3zm2.362-2.362a2.362 2.362 0 0 1-2.362 2.362v3c2.961 0 5.362-2.4 5.362-5.362h-3zm-2.362-2.362a2.362 2.362 0 0 1 2.362 2.362h3c0-2.962-2.4-5.362-5.362-5.362v3zm-.06 0h.06v-3h-.06v3z" fill="#FFCCCB" mask="url(#fnalkaph5a)"/>
    <path d="m9.536 22.232-2 2M11 27l-2 2M18 27l-2 2M17 22.232l-2 2M24 22.232l-2 2" stroke="#FFCCCB" stroke-width="1.5" stroke-linecap="round"/>
</svg>
