<svg width="66" height="53" viewBox="0 0 66 53" fill="none" xmlns="http://www.w3.org/2000/svg">
    <g clip-path="url(#q508szy3ka)">
        <mask id="ww4f2nyctb" maskUnits="userSpaceOnUse" x="5.35" y="20.22" width="39" height="28" fill="#000">
            <path fill="#fff" d="M5.35 20.22h39v28h-39z"/>
            <path fill-rule="evenodd" clip-rule="evenodd" d="M6.664 21.22h31.474c.174 0 .314.142.314.316v.576c0 .175-.14.316-.314.316H34.49V45.65h1.21V33.1h4.5a.5.5 0 0 1 .5.5v12.05h2.205c.173 0 .314.14.314.315v.576c0 .175-.14.317-.314.317H6.664a.315.315 0 0 1-.314-.316v-.577c0-.174.14-.316.314-.316H10.3v-23.22H6.664a.315.315 0 0 1-.314-.317v-.576c0-.175.14-.316.314-.316zm26.826 1.208H11.3v23.22h22.19v-23.22z"/>
        </mask>
        <path fill-rule="evenodd" clip-rule="evenodd" d="M6.664 21.22h31.474c.174 0 .314.142.314.316v.576c0 .175-.14.316-.314.316H34.49V45.65h1.21V33.1h4.5a.5.5 0 0 1 .5.5v12.05h2.205c.173 0 .314.14.314.315v.576c0 .175-.14.317-.314.317H6.664a.315.315 0 0 1-.314-.316v-.577c0-.174.14-.316.314-.316H10.3v-23.22H6.664a.315.315 0 0 1-.314-.317v-.576c0-.175.14-.316.314-.316zm26.826 1.208H11.3v23.22h22.19v-23.22z" fill="#FCBD45"/>
        <path d="M34.49 22.428v-1h-1v1h1zm0 23.221h-1v1h1v-1zm1.21 0v1h1v-1h-1zm0-12.549v-1h-1v1h1zm5 12.55h-1v1h1v-1zm-30.4 0v1h1v-1h-1zm0-23.222h1v-1h-1v1zm1 0v-1h-1v1h1zm22.19 0h1v-1h-1v1zM11.3 45.648h-1v1h1v-1zm22.19 0v1h1v-1h-1zm4.648-25.428H6.664v2h31.474v-2zm1.314 1.316c0-.72-.581-1.316-1.314-1.316v2a.685.685 0 0 1-.686-.684h2zm0 .576v-.576h-2v.576h2zm-1.314 1.316c.733 0 1.314-.596 1.314-1.316h-2c0-.37.3-.684.686-.684v2zm-3.648 0h3.648v-2H34.49v2zm1-.977v-.023h-2v.023h2zm0 .022v-.022h-2v.022h2zm0 .023v-.023h-2v.023h2zm0 .022v-.022h-2v.022h2zm0 .023v-.023h-2v.023h2zm0 .022v-.022h-2v.022h2zm0 .023v-.023h-2v.023h2zm0 .022v-.022h-2v.022h2zm0 .023v-.023h-2v.023h2zm0 .022v-.022h-2v.022h2zm0 .023v-.023h-2v.023h2zm0 .022v-.022h-2v.022h2zm0 .023v-.023h-2v.023h2zm0 .022v-.022h-2v.022h2zm0 .022v-.022h-2v.022h2zm0 .023v-.023h-2v.023h2zm0 .022v-.022h-2v.022h2zm0 .023v-.023h-2v.023h2zm0 .022v-.022h-2v.022h2zm0 .023v-.023h-2v.023h2zm0 .022v-.022h-2v.022h2zm0 .023V22.9h-2v.023h2zm0 .022v-.022h-2v.022h2zm0 .023v-.023h-2v.023h2zm0 .022v-.022h-2v.022h2zm0 .023v-.023h-2v.023h2zm0 .022v-.022h-2v.022h2zm0 .023v-.023h-2v.023h2zm0 .022v-.022h-2v.022h2zm0 .023v-.023h-2v.023h2zm0 .022v-.022h-2v.022h2zm0 .023v-.023h-2v.023h2zm0 .022v-.022h-2v.022h2zm0 .023v-.023h-2v.023h2zm0 .022v-.022h-2v.022h2zm0 .023v-.023h-2v.023h2zm0 .023v-.023h-2v.023h2zm0 .022v-.022h-2v.022h2zm0 .023v-.023h-2v.023h2zm0 .023v-.023h-2v.023h2zm0 .022v-.022h-2v.022h2zm0 .023v-.023h-2v.023h2zm0 .023v-.023h-2v.023h2zm0 .023v-.023h-2v.023h2zm0 .022v-.023h-2v.023h2zm0 .023v-.023h-2v.023h2zm0 .023v-.023h-2v.023h2zm0 .023v-.023h-2v.023h2zm0 .022v-.023h-2v.023h2zm0 .023v-.023h-2v.023h2zm0 .023v-.023h-2v.023h2zm0 .023v-.023h-2v.023h2zm0 .023v-.023h-2v.023h2zm0 .023v-.023h-2v.023h2zm0 .023v-.023h-2v.023h2zm0 .023v-.023h-2v.023h2zm0 .023v-.023h-2v.023h2zm0 .023v-.023h-2v.023h2zm0 .023v-.023h-2v.023h2zm0 .023v-.023h-2v.023h2zm0 .023v-.023h-2v.023h2zm0 .023v-.023h-2v.023h2zm0 .023v-.023h-2v.023h2zm0 .023v-.023h-2v.023h2zm0 .024v-.024h-2v.024h2zm0 .023v-.023h-2v.023h2zm0 .023v-.023h-2v.023h2zm0 .023v-.023h-2v.023h2zm0 .024v-.024h-2v.024h2zm0 .023v-.023h-2v.023h2zm0 .023v-.023h-2v.023h2zm0 .024v-.024h-2v.024h2zm0 .023v-.023h-2v.023h2zm0 .024v-.024h-2v.024h2zm0 .023v-.023h-2v.023h2zm0 .024v-.024h-2v.024h2zm0 .024v-.024h-2v.024h2zm0 .023v-.023h-2v.023h2zm0 .024v-.024h-2v.024h2zm0 .024v-.024h-2v.024h2zm0 .023v-.023h-2v.023h2zm0 .024v-.024h-2v.024h2zm0 .024v-.024h-2v.024h2zm0 .024v-.024h-2v.024h2zm0 .024v-.024h-2v.024h2zm0 .024v-.024h-2v.024h2zm0 .024v-.024h-2v.024h2zm0 .024v-.024h-2v.024h2zm0 .024v-.024h-2v.024h2zm0 .024v-.024h-2v.024h2zm0 .024v-.024h-2v.024h2zm0 .024v-.024h-2v.024h2zm0 .025v-.025h-2v.025h2zm0 .024v-.024h-2v.024h2zm0 .024v-.024h-2v.024h2zm0 .025v-.025h-2v.025h2zm0 .024v-.024h-2v.024h2zm0 .024v-.024h-2v.024h2zm0 .025v-.024h-2v.024h2zm0 .025v-.025h-2v.025h2zm0 .024v-.024h-2v.024h2zm0 .025v-.025h-2v.025h2zm0 .025v-.025h-2v.025h2zm0 .024v-.024h-2v.024h2zm0 .025v-.024h-2v.024h2zm0 .025v-.025h-2v.025h2zm0 .025v-.025h-2v.025h2zm0 .025v-.025h-2v.025h2zm0 .025v-.025h-2v.025h2zm0 .025v-.025h-2v.025h2zm0 .025v-.025h-2v.025h2zm0 .026v-.026h-2v.026h2zm0 .025v-.025h-2v.025h2zm0 .025v-.025h-2v.025h2zm0 .026v-.026h-2v.026h2zm0 .025v-.025h-2v.025h2zm0 .026v-.026h-2v.026h2zm0 .025v-.025h-2v.025h2zm0 .026v-.026h-2v.026h2zm0 .025v-.025h-2v.025h2zm0 .026v-.026h-2v.026h2zm0 .026v-.026h-2v.026h2zm0 .026v-.026h-2v.026h2zm0 .026v-.026h-2v.026h2zm0 .026v-.026h-2v.026h2zm0 .026v-.026h-2v.026h2zm0 .026v-.026h-2v.026h2zm0 .026v-.026h-2v.026h2zm0 .026v-.026h-2v.026h2zm0 .027v-.027h-2v.027h2zm0 .026V25.5h-2v.026h2zm0 .026v-.026h-2v.026h2zm0 .027v-.027h-2v.027h2zm0 .026v-.026h-2v.026h2zm0 .027v-.027h-2v.027h2zm0 .027v-.027h-2v.027h2zm0 .027v-.027h-2v.027h2zm0 .026v-.026h-2v.026h2zm0 .027v-.027h-2v.027h2zm0 .027v-.027h-2v.027h2zm0 .027v-.027h-2v.027h2zm0 .028v-.028h-2v.028h2zm0 .027v-.027h-2v.027h2zm0 .027v-.027h-2v.027h2zm0 .027v-.027h-2v.027h2zm0 .028v-.028h-2v.028h2zm0 .027v-.027h-2v.027h2zm0 .028v-.028h-2v.028h2zm0 .028v-.028h-2v.028h2zm0 .027v-.027h-2v.027h2zm0 .028v-.028h-2v.028h2zm0 .028v-.028h-2v.028h2zm0 .028v-.028h-2v.028h2zm0 .028v-.028h-2v.028h2zm0 .028v-.028h-2v.028h2zm0 .028v-.028h-2v.028h2zm0 .029v-.029h-2v.029h2zm0 .028v-.028h-2v.028h2zm0 .029v-.029h-2v.029h2zm0 .028v-.028h-2v.028h2zm0 .029v-.029h-2v.029h2zm0 .028v-.028h-2v.028h2zm0 .03v-.03h-2v.03h2zm0 .028v-.029h-2v.03h2zm0 .03v-.03h-2v.03h2zm0 .028v-.029h-2v.03h2zm0 .03v-.03h-2v.03h2zm0 .029v-.03h-2v.03h2zm0 .029v-.03h-2v.03h2zm0 .03v-.03h-2v.03h2zm0 .029v-.03h-2v.03h2zm0 .03v-.03h-2v.03h2zm0 .029v-.03h-2v.03h2zm0 .03v-.03h-2v.03h2zm0 .03v-.03h-2v.03h2zm0 .03v-.03h-2v.03h2zm0 .03v-.03h-2v.03h2zm0 .03v-.03h-2v.03h2zm0 .03v-.03h-2v.03h2zm0 .03v-.03h-2v.03h2zm0 .03v-.03h-2v.03h2zm0 .031v-.03h-2v.03h2zm0 .03v-.03h-2v.03h2zm0 .031v-.03h-2v.03h2zm0 .031v-.03h-2v.03h2zm0 .031v-.03h-2v.03h2zm0 .031v-.031h-2v.031h2zm0 .031v-.031h-2v.031h2zm0 .031v-.03h-2v.03h2zm0 .032v-.032h-2v.032h2zm0 .03v-.03h-2v.03h2zm0 .032v-.031h-2v.031h2zm0 .032v-.032h-2v.032h2zm0 .032v-.032h-2v.032h2zm0 .032v-.032h-2v.032h2zm0 .031v-.031h-2v.031h2zm0 .032v-.032h-2v.032h2zm0 .033v-.033h-2v.033h2zm0 .032v-.032h-2v.032h2zm0 .032v-.032h-2v.032h2zm0 .032v-.032h-2v.032h2zm0 .033v-.033h-2v.033h2zm0 .033v-.033h-2v.033h2zm0 .032v-.032h-2v.032h2zm0 .033v-.033h-2v.033h2zm0 .033v-.033h-2v.033h2zm0 .033v-.033h-2v.033h2zm0 .033v-.033h-2v.033h2zm0 .034V27.8h-2v.034h2zm0 .033v-.033h-2v.033h2zm0 .034v-.034h-2v.034h2zm0 .033V27.9h-2v.034h2zm0 .034v-.034h-2v.034h2zm0 .034v-.034h-2v.034h2zm0 .034v-.034h-2v.034h2zm0 .034v-.034h-2v.034h2zm0 .034v-.034h-2v.034h2zm0 .034v-.034h-2v.034h2zm0 .035v-.035h-2v.035h2zm0 .034v-.034h-2v.034h2zm0 .035v-.035h-2v.035h2zm0 .035v-.035h-2v.035h2zm0 .034v-.034h-2v.034h2zm0 .035v-.035h-2v.035h2zm0 .036v-.036h-2v.036h2zm0 .035v-.035h-2v.035h2zm0 .035v-.035h-2v.035h2zm0 .036v-.036h-2v.036h2zm0 .035v-.035h-2v.035h2zm0 .036v-.036h-2v.036h2zm0 .036v-.036h-2v.036h2zm0 .036v-.036h-2v.036h2zm0 .036v-.036h-2v.036h2zm0 .036v-.036h-2v.036h2zm0 .037v-.037h-2v.037h2zm0 .036v-.036h-2v.036h2zm0 .037v-.037h-2v.037h2zm0 .036v-.036h-2v.036h2zm0 .037v-.037h-2v.037h2zm0 .037v-.037h-2v.037h2zm0 .037v-.037h-2v.037h2zm0 .038v-.038h-2v.038h2zm0 .037v-.037h-2v.037h2zm0 .038v-.038h-2v.038h2zm0 .037v-.037h-2v.037h2zm0 .038v-.038h-2v.038h2zm0 .038v-.038h-2v.038h2zm0 .038v-.038h-2v.038h2zm0 .038v-.038h-2v.038h2zm0 .038v-.038h-2v.038h2zm0 .039V29.3h-2v.039h2zm0 .038v-.038h-2v.038h2zm0 .039v-.039h-2v.039h2zm0 .039v-.04h-2v.04h2zm0 .039v-.04h-2v.04h2zm0 .039v-.04h-2v.04h2zm0 .04v-.04h-2v.04h2zm0 .038v-.039h-2v.04h2zm0 .04v-.04h-2v.04h2zm0 .04v-.04h-2v.04h2zm0 .04v-.04h-2v.04h2zm0 .04v-.04h-2v.04h2zm0 .04v-.04h-2v.04h2zm0 .04v-.04h-2v.04h2zm0 .04v-.04h-2v.04h2zm0 .04v-.04h-2v.04h2zm0 .041v-.04h-2v.04h2zm0 .041v-.04h-2v.04h2zm0 .041v-.041h-2v.041h2zm0 .041v-.041h-2v.041h2zm0 .041v-.04h-2v.04h2zm0 .042v-.042h-2v.042h2zm0 .041v-.041h-2v.041h2zm0 .042v-.042h-2v.042h2zm0 .042v-.042h-2v.042h2zm0 .042v-.042h-2v.042h2zm0 .042v-.042h-2v.042h2zm0 .042v-.042h-2v.042h2zm0 .042v-.042h-2v.042h2zm0 .043v-.043h-2v.043h2zm0 .043v-.043h-2v.043h2zm0 .043v-.043h-2v.043h2zm0 .043V30.6h-2v.043h2zm0 .043v-.043h-2v.043h2zm0 .043v-.043h-2v.043h2zm0 .044v-.044h-2v.044h2zm0 .043v-.043h-2v.043h2zm0 .044v-.044h-2v.044h2zm0 .044v-.044h-2v.044h2zm0 .044v-.044h-2v.044h2zm0 .044v-.044h-2v.044h2zm0 .045v-.045h-2v.045h2zm0 .044v-.044h-2v.044h2zm0 .045v-.045h-2v.045h2zm0 .045v-.045h-2v.045h2zm0 .045v-.045h-2v.045h2zm0 .045v-.045h-2v.045h2zm0 .046v-.046h-2v.046h2zm0 .045v-.046h-2v.046h2zm0 .046v-.046h-2v.046h2zm0 .046v-.046h-2v.046h2zm0 .046v-.046h-2v.046h2zm0 .046v-.046h-2v.046h2zm0 .046v-.046h-2v.046h2zm0 .047v-.047h-2v.047h2zm0 .046v-.046h-2v.046h2zm0 .047v-.047h-2v.047h2zm0 .047v-.047h-2v.047h2zm0 .047v-.047h-2v.047h2zm0 .048v-.048h-2v.048h2zm0 .047v-.047h-2v.047h2zm0 .048v-.048h-2v.048h2zm0 .048v-.048h-2v.048h2zm0 .048v-.048h-2v.048h2zm0 .048v-.048h-2v.048h2zm0 .048v-.048h-2v.048h2zm0 .049v-.049h-2v.049h2zm0 .048V32.2h-2v.048h2zm0 .05v-.05h-2v.05h2zm0 .048v-.049h-2v.05h2zm0 .05v-.05h-2v.05h2zm0 .05v-.05h-2v.05h2zm0 .049v-.05h-2v.05h2zm0 .05v-.05h-2v.05h2zm0 .05v-.05h-2v.05h2zm0 .05v-.05h-2v.05h2zm0 .05v-.05h-2v.05h2zm0 .05v-.05h-2v.05h2zm0 .05v-.05h-2v.05h2zm0 .052v-.051h-2v.05h2zm0 .05v-.05h-2v.05h2zm0 .052v-.051h-2v.05h2zm0 .051v-.051h-2V33h2zm0 .052V33h-2v.052h2zm0 .051v-.051h-2v.051h2zm0 .052v-.052h-2v.052h2zm0 .052v-.052h-2v.052h2zm0 .053v-.053h-2v.053h2zm0 .052v-.052h-2v.052h2zm0 .053v-.053h-2v.053h2zm0 .052v-.052h-2v.052h2zm0 .053v-.053h-2v.053h2zm0 .054v-.054h-2v.054h2zm0 .053v-.053h-2v.053h2zm0 .053v-.053h-2v.053h2zm0 .054v-.053h-2v.053h2zm0 .054v-.054h-2v.054h2zm0 .054v-.054h-2v.054h2zm0 .055v-.055h-2v.055h2zm0 .054v-.054h-2v.054h2zm0 .055V33.9h-2v.055h2zm0 .055v-.055h-2v.055h2zm0 .055v-.055h-2v.055h2zm0 .055v-.055h-2v.055h2zm0 .055v-.055h-2v.055h2zm0 .056v-.056h-2v.056h2zm0 .056v-.056h-2v.056h2zm0 .056v-.056h-2v.056h2zm0 .056v-.056h-2v.056h2zm0 .057V34.4h-2v.057h2zm0 .056v-.056h-2v.056h2zm0 .057v-.057h-2v.057h2zm0 .057v-.057h-2v.057h2zm0 .057v-.057h-2v.057h2zm0 .058v-.057h-2v.057h2zm0 .058v-.058h-2v.058h2zm0 .057V34.8h-2v.057h2zm0 .058v-.058h-2v.058h2zm0 .059v-.059h-2v.059h2zm0 .058v-.058h-2v.058h2zm0 .059v-.059h-2v.059h2zm0 .059v-.06h-2v.06h2zm0 .059v-.06h-2v.06h2zm0 .059v-.06h-2v.06h2zm0 .06v-.06h-2v.06h2zm0 .059v-.06h-2v.06h2zm0 .06v-.06h-2v.06h2zm0 .06v-.06h-2v.06h2zm0 .06v-.06h-2v.06h2zm0 .06v-.06h-2v.06h2zm0 .061v-.06h-2v.06h2zm0 .061v-.06h-2v.06h2zm0 .061v-.061h-2v.061h2zm0 .061v-.06h-2v.06h2zm0 .062v-.062h-2v.062h2zm0 .062v-.062h-2v.062h2zm0 .062v-.062h-2v.062h2zm0 .062v-.062h-2v.062h2zm0 .062v-.062h-2v.062h2zm0 .063v-.063h-2v.063h2zm0 .062v-.062h-2v.062h2zm0 .063v-.063h-2v.063h2zm0 .064v-.064h-2v.064h2zm0 .063v-.063h-2v.063h2zm0 .064v-.064h-2v.064h2zm0 .063v-.063h-2v.063h2zm0 .065v-.065h-2v.065h2zm0 .064v-.064h-2v.064h2zm0 .064v-.064h-2v.064h2zm0 .065v-.065h-2v.065h2zm0 .065v-.065h-2v.065h2zm0 .065v-.065h-2v.065h2zm0 .066v-.066h-2v.066h2zm0 .065v-.065h-2v.065h2zm0 .066v-.066h-2v.066h2zm0 .066v-.066h-2v.066h2zm0 .066v-.066h-2v.066h2zm0 .067v-.067h-2v.067h2zm0 .067v-.067h-2v.067h2zm0 .067v-.067h-2v.067h2zm0 .067v-.067h-2v.067h2zm0 .067v-.067h-2v.067h2zm0 .068v-.068h-2v.068h2zm0 .068v-.068h-2v.068h2zm0 .068v-.068h-2v.068h2zm0 .068v-.068h-2v.068h2zm0 .069v-.07h-2v.07h2zm0 .068v-.069h-2v.07h2zm0 .07v-.07h-2v.07h2zm0 .068v-.069h-2v.07h2zm0 .07v-.07h-2v.07h2zm0 .07v-.07h-2v.07h2zm0 .07v-.07h-2v.07h2zm0 .07v-.07h-2v.07h2zm0 .07v-.07h-2v.07h2zm0 .07v-.07h-2v.07h2zm0 .071v-.07h-2v.07h2zm0 .072v-.072h-2v.072h2zm0 .07v-.07h-2v.07h2zm0 .072v-.071h-2v.071h2zm0 .072v-.072h-2V39h2zm0 .072V39h-2v.072h2zm0 .072v-.072h-2v.072h2zm0 .073v-.073h-2v.073h2zm0 .072v-.072h-2v.072h2zm0 .074v-.074h-2v.074h2zm0 .073v-.074h-2v.074h2zm0 .073v-.073h-2v.073h2zm0 .074v-.074h-2v.074h2zm0 .074v-.074h-2v.074h2zm0 .074v-.074h-2v.074h2zm0 .074v-.074h-2v.074h2zm0 .075v-.075h-2v.075h2zm0 .075v-.075h-2v.075h2zm0 .075v-.075h-2v.075h2zm0 .075v-.075h-2v.075h2zm0 .076v-.076h-2v.076h2zm0 .076v-.076h-2v.076h2zm0 .076v-.076h-2v.076h2zm0 .076v-.076h-2v.076h2zm0 .077v-.077h-2v.077h2zm0 .077v-.077h-2v.077h2zm0 .077v-.077h-2v.077h2zm0 .077v-.077h-2v.077h2zm0 .078v-.078h-2v.078h2zm0 .078v-.078h-2v.078h2zm0 .078v-.078h-2v.078h2zm0 .078v-.078h-2v.078h2zm0 .079v-.079h-2v.079h2zm0 .079v-.08h-2v.08h2zm0 .079v-.08h-2v.08h2zm0 .08v-.08h-2v.08h2zm0 .079v-.08h-2v.08h2zm0 .08v-.08h-2v.08h2zm0 .08v-.08h-2v.08h2zm0 .08v-.08h-2v.08h2zm0 .08v-.08h-2v.08h2zm0 .082v-.081h-2v.08h2zm0 .08v-.08h-2v.08h2zm0 .082v-.081h-2v.081h2zm0 .082v-.082h-2v.082h2zm0 .082v-.082h-2v.082h2zm0 .082v-.082h-2v.082h2zm0 .083v-.083h-2v.083h2zm0 .082v-.082h-2v.082h2zm0 .083V42.4h-2v.083h2zm0 .084v-.084h-2v.084h2zm0 .083v-.084h-2v.084h2zm0 .084v-.084h-2v.084h2zm0 .084v-.084h-2v.084h2zm0 .084v-.084h-2v.084h2zm0 .085V42.9h-2v.085h2zm0 .085v-.085h-2v.085h2zm0 .085v-.085h-2v.085h2zm0 .085v-.085h-2v.085h2zm0 .086v-.086h-2v.086h2zm0 .085v-.085h-2v.085h2zm0 .087v-.087h-2v.087h2zm0 .086v-.087h-2v.087h2zm0 .087v-.087h-2v.087h2zm0 .087v-.087h-2v.087h2zm0 .087v-.087h-2v.087h2zm0 .087v-.087h-2v.087h2zm0 .088v-.088h-2v.088h2zm0 .088v-.088h-2v.088h2zm0 .088v-.088h-2v.088h2zm0 .09v-.09h-2v.09h2zm0 .088v-.089h-2v.089h2zm0 .09v-.09h-2v.09h2zm0 .088v-.089h-2v.09h2zm0 .09v-.09h-2v.09h2zm0 .09v-.09h-2v.09h2zm0 .09v-.09h-2v.09h2zm0 .09v-.09h-2v.09h2zm0 .092v-.091h-2v.09h2zm0 .09v-.09h-2v.09h2zm0 .092v-.091h-2v.091h2zm0 .092v-.092h-2v.092h2zm0 .092v-.092h-2v.092h2zm0 .092v-.092h-2v.092h2zm0 .092v-.092h-2v.092h2zm0 .093v-.093h-2v.093h2zm0 .001h-2 2zm.21-1h-1.21v2h1.21v-2zm-1-11.549v12.55h2V33.1h-2zm5.5-1h-4.5v2h4.5v-2zm1.5 1.5a1.5 1.5 0 0 0-1.5-1.5v2a.5.5 0 0 1-.5-.5h2zm0 12.05V33.6h-2v12.05h2zm1.205-1H40.7v2h2.205v-2zm1.314 1.315c0-.72-.582-1.316-1.314-1.316v2a.685.685 0 0 1-.686-.684h2zm0 .576v-.576h-2v.576h2zm-1.314 1.317c.732 0 1.314-.597 1.314-1.316h-2c0-.371.3-.684.686-.684v2zm-36.241 0h36.24v-2H6.665v2zM5.35 46.542c0 .72.581 1.316 1.314 1.316v-2c.386 0 .686.313.686.684h-2zm0-.577v.576h2v-.576h-2zm1.314-1.316c-.733 0-1.314.596-1.314 1.316h2c0 .371-.3.684-.686.684v-2zm3.636 0H6.664v2H10.3v-2zm-1 1h2-2zm0-23.22v23.22h2v-23.22h-2zm-2.636 1H10.3v-2H6.664v2zM5.35 22.111c0 .72.581 1.316 1.314 1.316v-2c.386 0 .686.314.686.684h-2zm0-.576v.576h2v-.576h-2zm1.314-1.316c-.733 0-1.314.596-1.314 1.316h2c0 .37-.3.684-.686.684v-2zm4.636 3.208h22.19v-2H11.3v2zm1 0v-1h-2v1h2zm0 21.22v-21.22h-2v21.22h2zm0 1v-1h-2v1h2zm0-1h-1v2h1v-2zm20.19 0H12.3v2h20.19v-2zm1 0h-1v2h1v-2zm-1 0v1h2v-1h-2zm0-21.22v21.22h2v-21.22h-2zm0-1v1h2v-1h-2z" fill="#fff" mask="url(#ww4f2nyctb)"/>
        <path d="M19.997 33.515H13.71a.189.189 0 0 0-.189.19v.605c0 .104.085.19.189.19h6.287a.189.189 0 0 0 .188-.19v-.606a.189.189 0 0 0-.188-.19z" fill="#92839A"/>
        <path opacity=".7" d="M34.522 25.328v8.007c-.3-.835-.928-1.907-.928-4.004 0-2.096.628-3.168.928-4.003z" fill="#3B4C71"/>
        <path d="M34.522 22.404v2.924c-.3.835-.928 1.907-.928 4.003s.628 3.168.928 4.003v12.29H10.328v-23.22h24.194zM14.51 43.184a.317.317 0 0 0 .314.315h4.547a.313.313 0 0 0 .313-.316V24.825a.318.318 0 0 0-.193-.291.311.311 0 0 0-.12-.024h-4.547a.31.31 0 0 0-.29.194.317.317 0 0 0-.024.121v18.358z" fill="#85728C"/>
        <path d="M34.101 25.711c.183-.445.324-.907.421-1.38h.157a.25.25 0 0 1 .25.253c-.035.46-.159.908-.364 1.32a8.513 8.513 0 0 0 0 6.855c.205.412.329.86.364 1.319a.254.254 0 0 1-.25.253h-.157a7.699 7.699 0 0 0-.42-1.38 9.022 9.022 0 0 1 0-7.24z" fill="#463F6A"/>
        <path d="M34.014 25.711a7.72 7.72 0 0 0 .508-1.38h.13a.268.268 0 0 1 .277.252c-.04.465-.177.915-.402 1.32a7.771 7.771 0 0 0 0 6.856c.225.406.362.856.403 1.32a.268.268 0 0 1-.278.252h-.13a7.718 7.718 0 0 0-.508-1.38 8.238 8.238 0 0 1 0-7.24z" fill="#A897A8"/>
        <path d="M14.133 22.95h-.667a.312.312 0 0 0-.313.315v22.36h.98V22.95z" fill="#414D83"/>
        <path d="M20.852 22.95h-6.76a.317.317 0 0 0-.313.316v22.358h7.387V23.265a.317.317 0 0 0-.314-.315zm-1.168 20.236a.317.317 0 0 1-.314.316h-4.547a.313.313 0 0 1-.314-.316v-18.36a.317.317 0 0 1 .314-.317h4.547a.313.313 0 0 1 .314.316v18.36z" fill="#4E5D90"/>
        <path d="M20.496 23.455h-6.049a.313.313 0 0 0-.314.316v21.853h6.677V23.771a.317.317 0 0 0-.314-.316zm-.812 19.728a.317.317 0 0 1-.314.316h-4.547a.313.313 0 0 1-.314-.316V24.825a.317.317 0 0 1 .314-.316h4.547a.313.313 0 0 1 .314.316v18.358z" fill="#A897A8"/>
        <path opacity=".7" d="M19.37 24.51h-4.547a.315.315 0 0 0-.314.316v18.359c0 .174.14.316.314.316h4.547a.315.315 0 0 0 .314-.316v-18.36a.315.315 0 0 0-.314-.316z" fill="#3B4C71"/>
        <path d="M19.37 24.51h-.212a.312.312 0 0 1 .314.315v18.358a.317.317 0 0 1-.314.316h.212a.313.313 0 0 0 .313-.316V24.825a.319.319 0 0 0-.193-.292.313.313 0 0 0-.12-.024z" fill="#92839A"/>
        <path d="M20.496 23.455h-.058v22.17h.373V23.77a.318.318 0 0 0-.195-.292.31.31 0 0 0-.12-.024z" fill="#414D83"/>
        <path d="M42.932 45.625H6.69a.315.315 0 0 0-.314.316v.576c0 .175.14.316.314.316h36.24a.315.315 0 0 0 .314-.316v-.576a.315.315 0 0 0-.313-.316z" fill="#9E8299"/>
        <path d="M38.165 21.196H6.691a.315.315 0 0 0-.314.316v.576c0 .175.14.316.314.316h31.474a.315.315 0 0 0 .314-.316v-.576a.315.315 0 0 0-.314-.316z" fill="#6F87B7"/>
        <path d="M19.12 33.825c-1.635 0-2.977-.456-3.881-1.32a4.595 4.595 0 0 1-1.27-3.174c0-1.184.455-2.322 1.27-3.174.904-.864 2.246-1.32 3.88-1.32h15.403v-2.433H10.328v23.22h24.194v-11.8H19.12z" fill="#FCBD45"/>
        <path d="M34.522 42.671H10.328v2.954h24.194v-2.954z" fill="#C6BBC6"/>
        <path d="M34.522 41.234H10.328v1.437h24.194v-1.437zM34.522 38.359H10.328v1.437h24.194V38.36z" fill="#EEECF0"/>
        <g opacity=".7">
            <path d="M19.12 24.837c-1.635 0-2.976.456-3.881 1.32a4.594 4.594 0 0 0-1.27 3.174c0 1.184.455 2.322 1.27 3.174.905.864 2.246 1.32 3.88 1.32h4.954V32.05c0-.866.613-1.57 1.366-1.57h4.342c.753 0 1.366.704 1.366 1.57v1.774h3.374v-8.988H19.12z" fill="#65859E"/>
            <path d="m23.87 24.837-8.06 8.121a5.958 5.958 0 0 0 3.31.867h.765l8.922-8.988H23.87zM34.522 29.71v-4.13l-4.865 4.902h.125c.754 0 1.366.704 1.366 1.569v1.06l3.374-3.4zM19.837 24.837l-5.712 5.754c.158.62.459 1.192.88 1.67l7.368-7.423-2.536-.001zM34.522 31.488l-2.319 2.337h2.32v-2.337z" fill="#759CB1"/>
        </g>
        <path d="M24.03 33.825h-.879a.188.188 0 0 0 .189-.19v-1.584c0-1.146.836-2.075 1.867-2.075h4.342c1.032 0 1.868.929 1.868 2.075v1.584a.19.19 0 0 0 .188.19h-.878a.188.188 0 0 0 .189-.19v-1.584c0-.866-.613-1.57-1.367-1.57h-4.342c-.753 0-1.366.704-1.366 1.57v1.584a.19.19 0 0 0 .188.19z" fill="#D5D1DA"/>
        <path d="M34.574 33.825h-2.736a.19.19 0 0 1-.188-.19v-1.584c0-1.146-.836-2.075-1.867-2.075H25.44c-1.031 0-1.867.929-1.867 2.075v1.584a.19.19 0 0 1-.189.19H19.12c-1.635 0-2.977-.456-3.881-1.32a4.595 4.595 0 0 1-1.27-3.174c0-1.184.455-2.322 1.27-3.174.904-.864 2.246-1.32 3.88-1.32h15.455a.257.257 0 0 0 .25-.332.255.255 0 0 0-.137-.152.25.25 0 0 0-.102-.022H19.12c-1.765 0-3.227.505-4.226 1.459a5.1 5.1 0 0 0-1.427 3.54 5.1 5.1 0 0 0 1.427 3.542c1 .954 2.46 1.458 4.226 1.458h15.465a.25.25 0 0 0 .238-.173.255.255 0 0 0 .012-.104.26.26 0 0 0-.26-.228zm-10.311 0a.185.185 0 0 1-.134-.056.19.19 0 0 1-.055-.134v-1.584c0-.866.613-1.57 1.366-1.57h4.343c.753 0 1.365.704 1.365 1.57v1.584a.19.19 0 0 1-.188.19h-6.698z" fill="#EEECF0"/>
        <path d="M31.4 35.531h-7.577a.25.25 0 0 1-.25-.253v-.948h8.077v.948a.254.254 0 0 1-.25.253z" fill="#DED4DB" style="mix-blend-mode:multiply"/>
        <path d="M32.165 34.33h-8.342a.254.254 0 0 1 0-.506h8.342a.25.25 0 0 1 .25.254.254.254 0 0 1-.25.253z" fill="#D5D1DA"/>
        <path d="M34.522 22.404H10.328V23.7h24.194v-1.296z" fill="#DED4DB" style="mix-blend-mode:multiply"/>
        <path d="M31.966 21.888a.135.135 0 0 1-.121-.125l-.05-.555.48.051-.164.533a.137.137 0 0 1-.145.096z" fill="#DAD1D9"/>
        <path d="M30.62 21.457h-.547a.094.094 0 0 0-.094.095v.687c0 .052.042.095.094.095h.547a.094.094 0 0 0 .095-.095v-.687a.094.094 0 0 0-.095-.095z" fill="#886883"/>
        <path d="M30.089 21.457h-.016a.094.094 0 0 0-.094.095v.687c0 .052.042.095.094.095h.016a.094.094 0 0 0 .094-.095v-.687a.094.094 0 0 0-.094-.095z" fill="#7D5B77"/>
        <path d="M30.347 22.257a.06.06 0 0 0 .048.058.058.058 0 0 0 .026 0l1.595-.425a.155.155 0 0 0 .102-.157.15.15 0 0 0-.122-.16l-1.587-.111a.058.058 0 0 0-.045.015.061.061 0 0 0-.019.044l.002.736z" fill="#C6BBC6"/>
        <path d="m31.04 20.765.112-1.065a.222.222 0 0 1 .245-.2l1.452.155a.226.226 0 0 1 .198.246l-.112 1.066-1.895-.202z" fill="#DAD1D9"/>
        <path d="m32.71 21.306-1.52-.16.076-.724a.191.191 0 0 1 .134-.162.188.188 0 0 1 .073-.006l1.146.122a.19.19 0 0 1 .167.208l-.075.722z" fill="#B9ACBA"/>
        <path d="m31.095 20.248-.102.97a.097.097 0 0 0 .084.105.094.094 0 0 0 .103-.084l.086-.817a.191.191 0 0 1 .134-.162.188.188 0 0 1 .073-.007l1.146.122a.188.188 0 0 1 .167.209l-.086.817a.097.097 0 0 0 .084.104.094.094 0 0 0 .104-.085l.102-.97a.226.226 0 0 0-.198-.247l-1.452-.154a.222.222 0 0 0-.245.199z" fill="#E9E2E7"/>
        <path d="M32.256 20.78a.395.395 0 0 1-.278.335.389.389 0 0 1-.5-.341.396.396 0 0 1 .208-.384.388.388 0 0 1 .485.1.395.395 0 0 1 .085.29z" fill="#5B3D55"/>
        <path d="M32.73 20.558a.113.113 0 0 1-.145.096.112.112 0 0 1-.08-.097.113.113 0 0 1 .124-.123.113.113 0 0 1 .1.124z" fill="#D32739"/>
        <path d="M31.777 21.867a.136.136 0 0 1-.122-.124l-.049-.555.479.051-.163.532a.137.137 0 0 1-.145.096z" fill="#E9E2E7"/>
        <path d="M31.901 20.419a.317.317 0 0 0-.314.166.323.323 0 0 0 .186.46.317.317 0 0 0 .412-.273.324.324 0 0 0-.165-.316.317.317 0 0 0-.119-.037zm-.055.52a.2.2 0 0 1-.171-.143.204.204 0 0 1 .066-.215.2.2 0 0 1 .304.063.204.204 0 0 1-.051.251.2.2 0 0 1-.148.044z" fill="#775A70"/>
        <path d="M31.889 20.537a.2.2 0 0 0-.198.104.204.204 0 0 0 .117.29.2.2 0 0 0 .214-.064.203.203 0 0 0-.133-.33zm-.032.31a.11.11 0 0 1-.094-.142.111.111 0 0 1 .095-.077.109.109 0 0 1 .107.058.112.112 0 0 1-.066.158.109.109 0 0 1-.043.004z" fill="#4A3897"/>
        <path d="M31.878 20.628a.108.108 0 0 0-.107.057.11.11 0 0 0 .127.158.11.11 0 0 0 .078-.094.11.11 0 0 0-.097-.12z" fill="#4334C4"/>
        <path d="M31.866 20.75a.045.045 0 0 1-.023-.08.046.046 0 0 1 .068.013.047.047 0 0 1 .005.026.046.046 0 0 1-.05.04z" fill="#9E87EB"/>
        <path d="M11.915 31.624h-.734a.12.12 0 0 0-.119.12v2.29c0 .067.053.12.119.12h.734a.12.12 0 0 0 .119-.12v-2.29a.12.12 0 0 0-.12-.12z" fill="#ACA0AF"/>
        <path d="M11.447 31.624h.357v-6.162a.478.478 0 0 0-.473-.476H9.77v.36h1.562a.115.115 0 0 1 .116.116v6.162z" fill="#9F90A1"/>
        <path d="M11.357 24.604h-2.63a.277.277 0 0 0-.275.278v9.159c0 .153.123.278.275.278h2.63a.277.277 0 0 0 .276-.278v-9.16a.277.277 0 0 0-.276-.277z" fill="#4B3757"/>
        <path d="M11 24.604H8.37a.277.277 0 0 0-.275.278v9.159c0 .153.123.278.276.278H11a.277.277 0 0 0 .275-.278v-9.16a.277.277 0 0 0-.276-.277z" fill="#5C4B6C"/>
        <path d="M10.306 25.733H8.993a.208.208 0 0 0-.207.208v2.07c0 .114.093.207.207.207h1.313a.208.208 0 0 0 .207-.208v-2.069a.208.208 0 0 0-.207-.208z" fill="#4B3757"/>
        <path d="M8.94 25.875h.71c.422 0 .765.492.765 1.1 0 .608-.343 1.101-.766 1.101h-.71v-2.201z" fill="#6A5A7A"/>
        <path d="M8.175 26.975c0 .608.343 1.101.766 1.101.422 0 .765-.492.765-1.1 0-.609-.343-1.101-.765-1.101-.423 0-.766.492-.766 1.1z" fill="#4B3757"/>
        <path d="M9.353 26.049a1.395 1.395 0 0 1 0 1.853 1.055 1.055 0 0 1-.542-.926 1.066 1.066 0 0 1 .542-.927z" fill="#E44452"/>
        <path d="M10.306 28.218H8.993a.208.208 0 0 0-.207.209v2.069c0 .115.093.208.207.208h1.313a.208.208 0 0 0 .207-.208v-2.069a.208.208 0 0 0-.207-.209z" fill="#4B3757"/>
        <path d="M8.94 28.36h.71c.422 0 .765.493.765 1.101s-.343 1.101-.766 1.101h-.71V28.36z" fill="#6A5A7A"/>
        <path d="M8.175 29.462c0 .608.343 1.1.766 1.1.422 0 .765-.492.765-1.1 0-.608-.343-1.101-.765-1.101-.423 0-.766.492-.766 1.1z" fill="#4B3757"/>
        <path d="M9.353 28.535a1.395 1.395 0 0 1 0 1.853 1.056 1.056 0 0 1-.542-.927 1.066 1.066 0 0 1 .542-.926z" fill="#FFBE27"/>
        <path d="M10.306 30.704H8.993a.208.208 0 0 0-.207.209v2.069c0 .115.093.208.207.208h1.313a.208.208 0 0 0 .207-.208v-2.07a.208.208 0 0 0-.207-.208z" fill="#4B3757"/>
        <path d="M8.94 30.846h.71c.422 0 .765.493.765 1.101s-.343 1.101-.766 1.101h-.71v-2.202z" fill="#6A5A7A"/>
        <path d="M8.175 31.947c0 .608.343 1.101.766 1.101.422 0 .765-.493.765-1.1 0-.609-.343-1.102-.765-1.102-.423 0-.766.493-.766 1.101z" fill="#4B3757"/>
        <path d="M9.353 31.02a1.395 1.395 0 0 1 0 1.854 1.056 1.056 0 0 1-.542-.927 1.067 1.067 0 0 1 .542-.927z" fill="#8FBB68"/>
        <path d="M38.237 33.059h-2.792a.118.118 0 0 0-.12.12v.021h2.912v-.142z" fill="#7A93C2"/>
        <path d="M38.237 33.154h-2.911c-.072 0-.136.066-.16.166l-.102.416c-.022.09-.032.182-.032.274v11.614h3.207l-.002-12.47z" fill="#D1C8D1"/>
        <path d="M38.238 33.199h-2.912c-.072 0-.136.066-.16.166l-.102.416c-.01.044-.019.088-.024.133h3.198v-.715z" fill="#C2B5C1"/>
        <path d="M37.81 35.073h-2.78v10.552h2.78V35.073z" fill="#809ECC"/>
        <path d="M40.41 33.154h-2.291a.194.194 0 0 0-.168.166l-.107.416c-.023.09-.034.181-.034.274v11.614h2.908V34.01c0-.093-.01-.184-.034-.274l-.107-.416a.195.195 0 0 0-.167-.166z" fill="#C2B5C1"/>
        <path d="M40.718 35.073H37.81v10.552h2.908V35.073z" fill="#7A93C2"/>
        <path d="M40.217 36.253h-1.905a.265.265 0 0 0-.264.266v7.934c0 .147.118.266.264.266h1.905c.146 0 .264-.119.264-.266V36.52a.265.265 0 0 0-.264-.266zM40.29 33.059h-2.052a.12.12 0 0 0-.119.12v.021h2.29v-.022a.12.12 0 0 0-.073-.11.118.118 0 0 0-.045-.01z" fill="#6F87B7"/>
        <path d="M40.71 33.913a1.065 1.065 0 0 0-.026-.133l-.107-.416a.195.195 0 0 0-.167-.166h-2.291a.193.193 0 0 0-.168.166l-.107.416a1.03 1.03 0 0 0-.025.133h2.89z" fill="#B5A5B3"/>
        <path d="m56.693 3.831-.084.005-.069 1.122.096.027a.374.374 0 0 0 .414-.17.725.725 0 0 0-.025-.826.39.39 0 0 0-.332-.158z" fill="#D1C8D1"/>
        <path d="M56.307 4.013a.36.36 0 0 1 .471-.14c.054.027.1.067.135.117a.702.702 0 0 1 .025.801.361.361 0 0 1-.471.141.362.362 0 0 1-.135-.117.702.702 0 0 1-.025-.802z" fill="#F1EDF0"/>
        <path d="M56.584 3.94c.225.003.362.218.36.473-.003.255-.144.452-.37.45a.46.46 0 0 1-.402-.465.466.466 0 0 1 .412-.457z" fill="#D32739"/>
        <path d="M57.009 4.646a.194.194 0 0 0-.168.075.15.15 0 0 0-.032.147l.105.177.228-.324-.024-.04-.11-.035z" fill="#B6A7B5"/>
        <path d="m47.583 16.73-.084.004-.07 1.123.096.026a.373.373 0 0 0 .415-.17.723.723 0 0 0-.026-.825.389.389 0 0 0-.33-.158z" fill="#D1C8D1"/>
        <path d="M47.196 16.912a.361.361 0 0 1 .47-.14.36.36 0 0 1 .136.117.702.702 0 0 1 .024.8.362.362 0 0 1-.296.179.358.358 0 0 1-.31-.155.701.701 0 0 1-.024-.801z" fill="#F1EDF0"/>
        <path d="M47.473 16.839c.225.002.362.218.36.472-.003.255-.144.452-.37.45a.46.46 0 0 1-.401-.465.467.467 0 0 1 .411-.457z" fill="#D32739"/>
        <path d="M47.9 17.542a.192.192 0 0 0-.168.076.15.15 0 0 0-.032.146l.106.177.227-.324-.024-.04-.11-.035z" fill="#B6A7B5"/>
        <path d="m37.166 33.08-.501.018-1.002 4.586.514-.02h.023a.142.142 0 0 0 .092-.061l1.827-2.598a.263.263 0 0 0 .044-.126l.031-.293a.438.438 0 0 0-.073-.285l-.768-1.11a.212.212 0 0 0-.188-.11z" fill="#3C284A"/>
        <path d="M36.346 33.204a.143.143 0 0 1 .088-.061l.205-.043a.206.206 0 0 1 .198.107l.768 1.11a.438.438 0 0 1 .074.285l-.032.294a.266.266 0 0 1-.044.125l-1.827 2.598c-.07.1-.199.08-.287-.046l-.942-1.36a.389.389 0 0 1-.03-.411l1.828-2.598z" fill="#4B3757"/>
        <path d="M59.464 3.66 37.971 34.22a.188.188 0 0 1-.305.004l-.57-.771a.19.19 0 0 1-.002-.223L58.669 2.554a.111.111 0 0 1 .18-.002l.612.83a.239.239 0 0 1 .003.279z" fill="#E2DFE5"/>
        <path d="m57.966 5.082-.957 1.362a.096.096 0 0 1-.084.047.095.095 0 0 1-.083-.05l-.176-.24a.21.21 0 0 1-.007-.231l.957-1.362a.096.096 0 0 1 .084-.048.095.095 0 0 1 .083.051l.176.24a.21.21 0 0 1 .007.231zM55.682 8.329l-.956 1.361a.096.096 0 0 1-.167-.003l-.177-.24a.212.212 0 0 1-.006-.23l.956-1.363a.096.096 0 0 1 .133-.033.096.096 0 0 1 .034.037l.176.239a.212.212 0 0 1 .007.232zM53.399 11.543l-.957 1.362a.096.096 0 0 1-.084.048.096.096 0 0 1-.082-.05l-.177-.24a.212.212 0 0 1-.007-.232l.957-1.362a.096.096 0 0 1 .084-.047.095.095 0 0 1 .083.05l.176.24a.21.21 0 0 1 .007.231zM51.115 14.775l-.956 1.362a.096.096 0 0 1-.084.047.096.096 0 0 1-.082-.05l-.177-.24a.21.21 0 0 1-.007-.231l.957-1.362a.098.098 0 0 1 .084-.046.096.096 0 0 1 .083.05l.176.239a.212.212 0 0 1 .006.231zM48.832 18.01l-.957 1.361a.095.095 0 0 1-.166-.003l-.177-.24a.212.212 0 0 1-.006-.23l.956-1.363a.096.096 0 0 1 .133-.033.096.096 0 0 1 .034.037l.176.24a.211.211 0 0 1 .007.23zM46.549 21.243l-.957 1.362a.096.096 0 0 1-.084.048.095.095 0 0 1-.083-.051l-.176-.24a.212.212 0 0 1-.007-.23l.957-1.363a.096.096 0 0 1 .084-.047.096.096 0 0 1 .083.05l.176.24a.21.21 0 0 1 .007.231zM44.265 24.477l-.956 1.362a.096.096 0 0 1-.133.034.096.096 0 0 1-.035-.037l-.176-.24a.211.211 0 0 1-.007-.231l.957-1.362a.096.096 0 0 1 .133-.034.097.097 0 0 1 .034.037l.177.24a.211.211 0 0 1 .006.231zM41.982 27.711l-.957 1.362a.096.096 0 0 1-.084.047.096.096 0 0 1-.083-.05l-.176-.24a.212.212 0 0 1-.007-.231l.957-1.362a.096.096 0 0 1 .167.003l.176.24a.21.21 0 0 1 .007.231zM39.698 30.945l-.956 1.361a.095.095 0 0 1-.167-.003l-.177-.24a.21.21 0 0 1-.006-.23l.956-1.362a.097.097 0 0 1 .085-.048.095.095 0 0 1 .082.05l.177.24a.211.211 0 0 1 .006.232z" fill="#D32739"/>
        <path d="m38.403 29.732-.085.005-.069 1.122.096.027a.373.373 0 0 0 .415-.17.725.725 0 0 0-.026-.826.389.389 0 0 0-.331-.158z" fill="#D1C8D1"/>
        <path d="M38.015 29.915a.363.363 0 0 1 .297-.179.357.357 0 0 1 .309.155.702.702 0 0 1 .025.802.36.36 0 0 1-.606.023.702.702 0 0 1-.025-.801z" fill="#F1EDF0"/>
        <path d="M38.293 29.842c.225.002.362.218.36.472-.003.255-.144.452-.37.45a.46.46 0 0 1-.402-.465.466.466 0 0 1 .412-.457z" fill="#D32739"/>
        <path d="M38.719 30.546a.194.194 0 0 0-.168.075.15.15 0 0 0-.032.147l.106.177.228-.324-.024-.04-.11-.035z" fill="#B6A7B5"/>
        <path d="m36.559 33.852-1.675 2.381a.135.135 0 0 0-.003.157l.181.26a.357.357 0 0 0 .19.14l.31.096 1.676-2.381-.547-.79-.132.137z" fill="#5C4B6C"/>
        <path d="m36.69 33.721.548.79-.312-.096a.36.36 0 0 1-.19-.139l-.18-.261a.134.134 0 0 1 .014-.17l.12-.124z" fill="#817390"/>
    </g>
    <defs>
        <clipPath id="q508szy3ka">
            <path fill="#fff" d="M0 0h66v53H0z"/>
        </clipPath>
    </defs>
</svg>
