<svg width="1876" height="998" viewBox="0 0 1876 998" fill="none" xmlns="http://www.w3.org/2000/svg">
    <g clip-path="url(#xr0q6b5v8a)">
        <path d="M138 998V671.318c-3.395-73.758-42.59-114.168-57.867-129.49C62.849 524.495 52 499.699 52 472.742c0-26.956 10.849-51.752 28.133-69.085 15.277-15.322 54.472-55.732 57.867-129.49V0M138 998V671.318c3.355-73.758 42.095-114.168 57.195-129.49C212.277 524.495 223 499.699 223 472.742c0-26.956-10.723-51.752-27.805-69.085-15.1-15.322-53.84-55.732-57.195-129.49V0" stroke="#1D5258" stroke-width="26"/>
        <path d="M138 998V671.318c-3.395-73.758-42.59-114.168-57.867-129.49C62.849 524.495 52 499.699 52 472.742c0-26.956 10.849-51.752 28.133-69.085 15.277-15.322 54.472-55.732 57.867-129.49V0M138 998V671.318c3.355-73.758 42.095-114.168 57.195-129.49C212.277 524.495 223 499.699 223 472.742c0-26.956-10.723-51.752-27.805-69.085-15.1-15.322-53.84-55.732-57.195-129.49V0" stroke="#77D6E6" stroke-opacity=".3" stroke-dasharray="8 8"/>
        <path fill-rule="evenodd" clip-rule="evenodd" d="M80.757 417.093C93.74 404.22 112.491 396 133 396s39.26 8.22 52.243 21.093c9.695 9.613 29.295 26.691 60.757 38.451 17.275 6.457 38.127 11.31 62.878 12.442l.297.014H356.5v.003c18.58 0 36.984-1.956 50.626-3.877a433.57 433.57 0 0 0 16.589-2.659c2.012-.365 3.604-.67 4.705-.888.632-.124 1.355-.27 1.913-.388 10.124-2.382 20.105-5.491 30.049-8.588 2.017-.628 4.033-1.256 6.048-1.877 6.683-2.06 12.935-4.019 17.514-5.461l8.346-2.677c9.869-3.911 19.224-6.985 28.21-9.317 32.76-8.502 60.61-7.154 90.5-.668 19.471 4.225 39.808 10.631 62.932 17.914 3.11.979 6.271 1.975 9.487 2.983 4.637 1.454 9.388 2.934 14.268 4.431 1.275.379 5.078 1.354 7.149 1.852 4.3 1.034 10.449 2.4 17.973 3.762a353.285 353.285 0 0 0 26.691 3.79c9.749 1.001 20.404 1.668 31.5 1.668h303.5c1.86 0 3.7-.061 5.5-.174 10.94-.688 20.63-3.298 27.76-5.817 4.2-1.482 7.63-2.97 10.05-4.112a78.471 78.471 0 0 0 3.47-1.739l.11-.06.12-.068.14-.076.1-.052c17.94-9.629 35.88-14.504 54.25-14.528 18.48-.025 37.4 4.861 57.19 14.753 1.51.74 3.07 1.393 4.63 2.034a148.643 148.643 0 0 0 17.1 5.836c7.86 2.149 17.41 4.003 27.08 4.003h584v-26h-584c-7.68 0-15.94-1.759-23-3.879a122.77 122.77 0 0 1-11.28-4.001 97.09 97.09 0 0 1-2.43-1.038c-.27-.12-.46-.209-.58-.263l-.05-.021c-23.25-11.602-46.11-17.443-68.66-17.424-22.51.018-44.71 5.878-66.66 17.675l-.13.071-.09.051v.004l-.01.002-.05.028a50.943 50.943 0 0 1-2.35 1.179 81.594 81.594 0 0 1-7.6 3.107c-5.25 1.853-11.89 3.628-19.11 4.263-1.8.158-3.64.246-5.5.246H781c-9.979 0-19.619-.595-28.5-1.497a327.349 327.349 0 0 1-25.059-3.545 300.43 300.43 0 0 1-16.527-3.457 165.905 165.905 0 0 1-5.734-1.47 2171.838 2171.838 0 0 1-16.68-5.205c-2.334-.737-4.648-1.47-6.945-2.197-23.111-7.318-44.426-14.067-65.555-18.582-32.487-6.942-64.535-8.602-102 1.074-9.877 2.55-20.131 5.889-30.868 10.127l-.098.031-1.485.472c-1.289.408-3.146.996-5.418 1.712a3027.644 3027.644 0 0 1-17.361 5.414c-13.346 4.114-27.736 8.421-34.091 9.931l-.043.009-.147.03c-.24.05-.609.124-1.099.221-.979.193-2.438.473-4.308.812a405.924 405.924 0 0 1-15.583 2.497c-12.984 1.829-30.079 3.623-46.999 3.623V442h-46.726c-21.456-1.012-39.44-5.173-54.274-10.669-27.394-10.151-44.04-24.857-51.951-32.701C185.724 380.955 160.404 370 133 370c-27.403 0-52.724 10.955-70.55 28.63-8.914 8.84-29.149 26.019-62.438 35.961v26.974c1.346-.344 2.675-.699 3.988-1.065 40.773-11.356 65.646-32.39 76.757-43.407zM80.745 526.907C93.728 539.78 112.48 548 132.988 548s39.26-8.22 52.243-21.093c9.695-9.613 29.295-26.691 60.757-38.451 17.275-6.457 38.127-11.31 62.878-12.442l.297-.014h47.325v-.003c18.58 0 36.984 1.956 50.625 3.877a433.677 433.677 0 0 1 16.59 2.659c2.012.365 3.604.67 4.705.888.632.124 1.355.27 1.912.388 10.125 2.382 20.106 5.491 30.05 8.588 2.017.628 4.033 1.256 6.047 1.877a3067.48 3067.48 0 0 1 17.515 5.461l8.346 2.677c9.868 3.911 19.224 6.985 28.21 9.317 32.76 8.502 60.61 7.154 90.5.668 19.471-4.225 39.808-10.631 62.931-17.914 3.111-.979 6.272-1.975 9.487-2.983 4.637-1.454 9.389-2.934 14.269-4.431 1.275-.379 5.077-1.354 7.148-1.852 4.301-1.034 10.45-2.4 17.974-3.762a353.211 353.211 0 0 1 26.691-3.79c9.749-1.001 20.403-1.668 31.5-1.668h303.502c1.86 0 3.7.061 5.5.174 10.94.688 20.62 3.298 27.76 5.817 4.2 1.482 7.62 2.97 10.04 4.112 1.22.572 2.18 1.061 2.88 1.423.23.119.42.225.59.316l.11.06.13.068.14.076.09.052c17.95 9.629 35.89 14.504 54.26 14.528 18.48.025 37.4-4.861 57.18-14.753 1.52-.74 3.08-1.393 4.63-2.034 2.64-1.088 6.37-2.524 10.82-3.959 1.93-.626 4.04-1.263 6.29-1.877 7.86-2.149 17.4-4.003 27.08-4.003h584v26h-584c-7.68 0-15.94 1.759-23 3.879a123.306 123.306 0 0 0-11.29 4.001 93.033 93.033 0 0 0-3 1.301l-.05.021c-23.25 11.602-46.11 17.443-68.66 17.424-22.51-.018-44.71-5.878-66.66-17.675l-.13-.071-.09-.051-.01-.004v-.002l-.05-.028c-.08-.041-.22-.117-.42-.223-.41-.212-1.06-.544-1.93-.956a81.594 81.594 0 0 0-7.6-3.107c-5.25-1.853-11.89-3.628-19.11-4.263-1.8-.158-3.64-.246-5.5-.246H780.988c-9.98 0-19.619.595-28.5 1.497a327.349 327.349 0 0 0-25.059 3.545 300.228 300.228 0 0 0-16.527 3.457 165.905 165.905 0 0 0-5.734 1.47 2171.838 2171.838 0 0 0-16.68 5.205c-2.334.737-4.649 1.47-6.945 2.197-23.112 7.318-44.426 14.067-65.555 18.582-32.487 6.942-64.535 8.602-102-1.074-9.877-2.55-20.131-5.889-30.868-10.127l-.098-.031-1.486-.472a3027.644 3027.644 0 0 0-22.778-7.126c-13.346-4.114-27.736-8.421-34.091-9.931l-.043-.009-.148-.03c-.24-.05-.609-.124-1.098-.221-.979-.193-2.438-.473-4.308-.812a406.248 406.248 0 0 0-15.583-2.497c-12.984-1.829-30.08-3.623-46.999-3.623V502h-46.726c-21.456 1.012-39.441 5.173-54.274 10.669-27.394 10.151-44.04 24.857-51.951 32.701-17.825 17.675-43.146 28.63-70.549 28.63-27.404 0-52.724-10.955-70.55-28.63-8.914-8.84-29.15-26.019-62.438-35.961v-26.974c1.346.344 2.675.699 3.988 1.065 40.772 11.356 65.646 32.39 76.757 43.407z" fill="#1D5258"/>
        <path d="M1876.47 455.003h-584c-21 0-43-10.5-43-10.5-43-21.5-83.5-21.503-123.5 0 0 0-18.5 10.5-41 10.5H781.472c-43 0-79.5-10.5-79.5-10.5-81.5-25.003-132-47.503-214-15 0 0-46.4 14.8-60 18 0 0-35.5 7.5-71 7.5m0-.003h-47.027c-65.548-3-101.461-33.638-115.077-47.139C179.464 392.587 157.429 383 133.472 383c-23.956 0-45.991 9.587-61.396 24.861-10.145 10.06-32.667 29.632-70.604 40.198C-11.507 451.674-26.29 454.235-43 455M1877 489h-583.86c-20.99 0-42.99 10.5-42.99 10.5-42.99 21.499-83.48 21.502-123.47 0 0 0-18.49-10.5-40.99-10.5H782.27c-42.99 0-79.481 10.5-79.481 10.5-81.48 25.001-131.967 47.501-213.947 14.999 0 0-46.389-14.799-59.985-17.999 0 0-35.492-7.5-70.983-7.5m0 .003h-47.016c-65.532 3-101.436 33.636-115.048 47.137-15.401 15.273-37.431 24.86-61.381 24.86-23.95 0-45.98-9.587-61.38-24.86-10.143-10.059-32.66-29.631-70.588-40.197-12.976-3.615-27.756-6.175-44.461-6.94" stroke="#77D6E6" stroke-opacity=".3" stroke-dasharray="8 8"/>
    </g>
    <defs>
        <clipPath id="xr0q6b5v8a">
            <path fill="#fff" d="M0 0h1876v998H0z"/>
        </clipPath>
    </defs>
</svg>
